<svg viewBox="0 0 1707.2222900390625 400.0000305175781" xmlns="http://www.w3.org/2000/svg"><g><g><g><g><line x1="10" y1="0" x2="10" y2="378" fill="rgb(0, 0, 0)" stroke="rgb(204, 204, 204)" stroke-width="1px"></line></g></g><g transform="translate(10, 0)" clip-path="url(#clip_0)"><clipPath id="clip_0"><rect width="1697" height="377"></rect></clipPath><g><g><g><line x1="0" y1="0" x2="0" y2="378" fill="rgb(0, 0, 0)" stroke="rgb(60, 60, 60)" stroke-width="1px" opacity="0.25"></line><line x1="169.722" y1="0" x2="169.722" y2="378" fill="rgb(0, 0, 0)" stroke="rgb(60, 60, 60)" stroke-width="1px" opacity="0.25"></line><line x1="339.444" y1="0" x2="339.444" y2="378" fill="rgb(0, 0, 0)" stroke="rgb(60, 60, 60)" stroke-width="1px" opacity="0.25"></line><line x1="509.1660000000001" y1="0" x2="509.1660000000001" y2="378" fill="rgb(0, 0, 0)" stroke="rgb(60, 60, 60)" stroke-width="1px" opacity="0.25"></line><line x1="678.888" y1="0" x2="678.888" y2="378" fill="rgb(0, 0, 0)" stroke="rgb(60, 60, 60)" stroke-width="1px" opacity="0.25"></line><line x1="848.61" y1="0" x2="848.61" y2="378" fill="rgb(0, 0, 0)" stroke="rgb(60, 60, 60)" stroke-width="1px" opacity="0.25"></line><line x1="1018.332" y1="0" x2="1018.332" y2="378" fill="rgb(0, 0, 0)" stroke="rgb(60, 60, 60)" stroke-width="1px" opacity="0.25"></line><line x1="1188.0539999999999" y1="0" x2="1188.0539999999999" y2="378" fill="rgb(0, 0, 0)" stroke="rgb(60, 60, 60)" stroke-width="1px" opacity="0.25"></line><line x1="1357.7759999999998" y1="0" x2="1357.7759999999998" y2="378" fill="rgb(0, 0, 0)" stroke="rgb(60, 60, 60)" stroke-width="1px" opacity="0.25"></line><line x1="1527.498" y1="0" x2="1527.498" y2="378" fill="rgb(0, 0, 0)" stroke="rgb(60, 60, 60)" stroke-width="1px" opacity="0.25"></line><line x1="1697.22" y1="0" x2="1697.22" y2="378" fill="rgb(0, 0, 0)" stroke="rgb(60, 60, 60)" stroke-width="1px" opacity="0.25"></line></g></g></g><g><g><line x1="169.722" y1="0" x2="169.722" y2="378" fill="rgb(0, 0, 0)" stroke="rgb(153, 153, 153)" stroke-width="1.5px"></line></g></g><g><g><g><g><g><path stroke="rgb(0, 119, 187)" stroke-width="2px" d="M169.722,76.11464879641031L183.91688805,76.11464879641572L198.47950710000003,76.11464879641031L212.82478770000003,76.11464879641031L227.71365015,76.11464879640494L242.37480225000002,76.11464879640494L256.93742130000004,76.11464879641031L271.04839125,76.11464879640494L285.43987395,76.11464879640494L299.6328762,76.11464879640494L314.23509705000004,76.11464879640494L328.37576835,76.11464879640494L342.55792725,76.11464879640494L356.74715790000005,76.11464879641572L371.1838998,76.11464879641572L385.52305155000005,76.11464879641572L399.87493245,76.11464879642114L414.14572395,76.11464879642114L428.35192679999994,76.11464879641572L442.51004174999997,76.11464879641572L456.72331635,76.11464879641572L470.98326449999996,76.11464879641031L485.39690535,76.11464879641031L499.774716,76.11464879640494L514.01014875,76.11464879641031L528.3488290500001,76.11464879641572L543.082113,76.11464879641572L558.3033477,76.11464879642114L573.16863765,76.11464879641572L588.0853156500001,76.11464879641572L602.6639640000001,76.11464879641572L617.1535083,76.11464879641572L631.7571435,76.11464879642114L646.35747855,76.11464879642114L660.9398985,76.11464879642114L675.4709304,75.64073449173026L689.9986621500001,73.32454580339294L704.5414803,71.22942994254625L719.1422868,69.33323227733102L734.51579985,67.61620302401424L749.3264016,66.06070432385866L763.87204845,64.65095834920942L778.4308959,63.37282982579438L793.0208590500001,62.21363756212641L807.78384435,61.161990538655324L822.5001561,60.207644882033286L837.25701255,59.34137867377118L851.8653622500001,58.554882048882824L866.4204381000001,57.8406604529524L880.95571305,57.19194926433836L895.5494478,56.60263826643943L910.0314489000001,56.067204685005684L924.5257077000001,46.22496789692642L939.0586254,46.629998145812095L953.6801757000001,46.998149362567275L968.2847538,40.80743425369166L983.0024799000001,41.70161141113879L997.6947477000001,42.514616125535305L1012.32054105,43.25387435253999L1027.01940915,27.253775733278257L1041.9450447,13.735630521847613L1057.5335389499999,1.466973257241031L1073.12816205,-4.302841501775472L1120.14492765,-9.465310838489225L1135.6938201,11.406331061220287L1151.32945935,29.332402761924754L1166.87976615,24.061304766290224L1182.4880613,10.45916624965144L1198.1062569,-0.8253190751356541L1213.90030335,-4.283268176653461L1229.664177,13.297312161528227L1245.43087935,68.18408324341328L1261.13959335,66.57499919386902L1276.9006382999999,57.941362618562366L1292.71071405,59.02450849698627L1308.50334615,55.555929400095295L1324.0211229,69.20148646784075L1338.7039616999998,77.79892771052818L1353.4216878,94.35354206750587L1368.0932118,153.23475459538852L1382.8797696000001,195.47083588717152L1397.5800520500002,187.40893125905208L1412.23743255,163.6357665258803L1426.9726023,147.12125761014477L1441.7553885,149.04215249027865L1456.5108306,177.86985130796137L1471.7612952,218.67709867122005L1487.50819665,243.50843176096512L1502.77280475,238.64416871367192L1517.40001245,221.05966025014516L1531.7938523999999,219.4911786515513L1546.1641198500001,231.84263549736087L1560.47545605,257.57626966130414L1574.88108225,261.2719751435698L1589.2631359499999,241.1691423936277L1603.6121881499998,226.76085184292302L1618.3765878,239.60758715282043L1633.0716843,284.3153873345569" style="fill: none;" fill="none"></path></g><g><path stroke="rgb(255, 112, 67)" stroke-width="2px" d="M169.722,324.02466305292137L183.9145308,323.75104172364155L198.48186435000002,323.8509725950894L212.82620204999998,323.90071673806284L227.71317870000001,323.9303872396497L242.37574515,323.95002207263707L256.93412115,323.9639234408225L271.0498056,323.97424262465006L285.44647425,323.98217493097997L299.63429055,323.9884376727709L314.21953920000004,323.9934874321996L328.37718270000005,323.9976286918073L342.55604145,324.00107232783625L356.74715790000005,324.00396903481544L371.1886143,324.00642937999964L385.523523,324.0085363373852L399.87587535000006,324.01035339779787L414.1461954,324.01192997565977L428.35239824999996,324.0133051083573L442.512399,324.01451004588125L456.72803085000004,324.01557010065113L470.92810485,324.0165059929602L485.38511910000005,324.0173348455993L499.7756589,324.01807092993835L513.9983625000001,324.0187262331572L528.3502434000001,324.01931089473624L543.0830559,324.0198335460846L558.30476205,324.0203015776663L573.1681662,324.0207213509215L588.08625855,324.02109836807256L602.6653783500001,324.0214374091572L617.1572799,324.02174264358933L631.6953835500001,324.02201772156116L646.3579500000001,324.0222658494522L660.9450844500001,324.02248985248974L675.4718733000001,323.58468529785836L689.9996050500001,321.44293825471476L704.54289465,319.505605876796L719.1413438999999,317.75220436963014L734.5162713000001,316.11661518732797L749.32687305,314.6348920821416L763.87204845,313.2920063861084L778.43325315,312.0744939039278L793.0170874500001,310.97027541663937L807.7414138500001,309.9685005731223L822.4996846500001,309.0594116705607L837.2636128500001,308.23422441892785L851.8219888499999,307.48502326671326L866.4194952,306.8046692581251L880.9561845,306.18671871404587L895.5513336,305.625351294094L910.0314489000001,305.06794216708556L924.5257077000001,295.3220418165136L939.06664005,295.6511049895415L953.6811186,295.85594395066033L968.2847538,293.58293792668144L983.0029513500001,294.11594934575623L997.6961620500001,294.3648461402115L1012.32148395,292.66110564856325L1027.0208235,278.7952749331611L1041.9459876,268.9047408638829L1057.5340104,257.7981422293067L1073.12816205,250.88505818112563L1088.747772,241.4981235014842L1104.45318585,239.19209619667035L1120.146342,235.25748018269883L1135.69523445,233.1437628981407L1151.33040225,230.03824496041108L1166.8830662999999,222.4368393187397L1182.4890042,213.6975103731851L1198.10767125,206.8782600494131L1213.908318,202.0416017966982L1229.6646484500002,201.0571086104996L1245.4318222499999,201.00080071708817L1261.1400648,195.7423580898121L1276.9020526499999,190.7679648070062L1292.7116569500001,186.5142460731199L1308.5038175999998,182.5169924299008L1324.0220658,179.45286016588068L1338.70914765,176.96345935687467L1353.4282881000001,175.29744372090076L1368.0936832500001,175.56098852120087L1382.8797696000001,176.13669514369494L1397.5809949499999,171.62784245064083L1412.237904,166.3676328729518L1426.97213085,163.49826601693647L1441.7553885,162.29733895105142L1456.5108306,164.94187380693296L1471.7612952,165.49507537853515L1487.50913955,164.3850941456263L1502.7732762,161.2826423826454L1517.3721969,157.5870966385269L1531.8013956,157.78042242213002L1546.11037455,158.98019350250382L1560.4825278,159.03955799680597L1574.88202515,157.29139316146984L1589.2438065000001,154.6437523569938L1603.6126596,152.28063443379477L1618.3775307,154.51445420011385L1633.0716843,154.53093461160057" style="fill: none;" fill="none"></path></g><g><path stroke="rgb(51, 187, 238)" stroke-width="2px" d="M169.722,76.11464879641031L183.1611537,76.11464879641572L196.4428431,76.11464879641031L209.62647090000002,76.11464879641031L222.8176419,76.11464879640494L236.06020095,76.11464879640494L249.33010410000003,75.87755578032194L262.5137319,75.70155924167042L275.70537435,75.56627213225896L288.91210320000005,75.45946013950721L302.48844885,75.37333596726673L316.65835004999997,75.4718085726916L330.52558035,75.39153674461335L344.48332905,75.16770174339824L358.35433095,75.28028462617354L372.17064465,75.37669709701078L386.1873246,75.45984433111241L400.30206615000003,75.53198741625833L413.97270180000004,75.59491262034206L427.1959314,75.65004988251151L440.37531614999995,75.69855745455021L453.58628805,75.74138346419838L466.8401619,75.77931142511918L480.0596199,75.81299437659085L493.2470193,75.84298083747414L506.50890780000003,75.86973477872982L519.72789435,75.89365116584835L533.4890484,75.91506817889663L547.5722027999999,75.93427691246518L561.5690818500001,75.9515291435726L575.5141014000001,75.96704360376091L589.5746262,75.98101108271501L603.5597190000001,75.99359861091021L617.4821089500001,76.00495291091813L631.3337814,76.01520326326865L645.30708795,76.02446390051287L659.1941191500001,76.03283601846901L673.19901285,76.04040947491775L687.4118159999999,70.65490195145159L701.5619163000001,65.77867788385214L715.7436037499999,61.361528963442964L729.9017187,57.35855433739733L744.0244749,59.07599560787757L758.17881825,60.633734608328204L772.23840015,62.04704681180182L786.19614885,63.329672784381074L800.22838665,64.4939851149075L813.7967176499999,65.55113505158353L827.1260235,66.51118165967316L840.44684325,67.38320587013801L854.26692855,68.17541142337541L868.3816701000001,68.89521440944435L882.44172345,69.54932285463218L896.47396125,70.14380759469057L910.3840935,65.39925411058937L924.2635815000001,66.36844762762152L938.2797899999999,64.83647800078911L952.3827453,60.57872270796901L966.35605185,56.70766343679938L980.3180436,53.187892467047384L994.3856401500001,49.98729371864022L1008.53574045,47.07672823262865L1022.64246735,44.429751157313575L1036.7968107,41.90814487057918L1051.11993315,39.61466377350811L1065.34452255,37.528572925379756L1079.2829418,35.63103872067338L1093.59380655,33.904951675349125L1107.7245774,32.334766220851456L1121.7568152,30.90635579039551L1135.0149321,29.60688166900947L1148.23014705,28.42467424305209L1161.48826395,27.349125429679265L1174.7892828,26.370591194415713L1188.0205270499998,25.480303178520415L1201.3375752,24.670288557803616L1214.6546233499998,23.93329734393409L1227.86182365,23.262736418728906L1241.09259645,22.652609662491166L1254.51949245,22.097463600763515L1268.0996097,21.592338050378668L1282.12383285,21.13272129636603L1296.22301655,20.71450937648529L1310.2792983,20.333969091086566L1324.39403985,19.98770439236955L1338.4220346,19.67262584044399L1352.4231567000002,19.38592284272988" style="fill: none;" fill="none"></path></g><g><path stroke="rgb(204, 51, 17)" stroke-width="2px" d="M169.722,324.02466305292137L183.16492530000002,324.02466305292137L196.44331455000003,324.0246630529149L209.625528,324.0246630529149L222.8176419,323.7744527222843L236.0606724,323.39118491135815L249.31737495000002,323.31449985641314L262.51326044999996,322.9912151530177L275.70490290000004,322.8249271442272L288.89607390000003,322.6936393887609L302.4898632,322.806329278646L316.65740715,322.968166305026L330.53029485,322.96960233918253L344.48238615,323.03498100693054L358.35338805000004,323.15264461183125L372.17017319999997,323.25340806689815L386.1873246,323.3403076493417L400.3015947,323.4157064838049L413.95478670000006,323.4814714480905L427.19545995,323.53909701129004L440.38003065,323.5897936947329L453.58628805,323.634552413383L466.84063334999996,323.6741920395208L480.0483051,323.7093950830411L493.2451335,323.7407348166463L506.4876925500001,323.76869614968876L519.7293087,323.7936918719402L533.4890484,323.8160754251668L547.5618309,323.8361510407281L561.55965285,323.854181858063L575.5098583500001,323.87039647990616L589.576512,323.88499430607555L603.5616048,323.8981499050358L617.4844662,323.9100166208071L631.3328385,323.9207295682667L645.3080308499999,323.9304081351903L659.1955335000001,323.93915808432854L673.1895838500001,323.94707332866875L687.4104016500002,319.0397051825394L701.5543731,314.59635301196204L715.7261601,310.5712803648181L729.8772033,306.9235839520933L744.0112743000001,303.61662686367526L758.1774039,305.48233445113806L772.2134133,307.17507449680215L786.19709175,308.71130067525763L800.2043427,310.1058289559188L813.79860345,311.3720130876487L827.12838075,312.5218991764219L840.4473147000001,313.56636218900763L854.26598565,314.51522677877944L868.3628120999999,315.3773744678172L882.43229445,316.16083891916895L896.4503887500001,316.87289078251297L910.3859793,312.703643582737L924.2626386000001,313.4912906122593L938.2548031499999,309.63214270532325L952.3596442500001,306.1237328815761L966.3579376499999,302.9339037618174L980.31757215,300.03349469489274L994.38658305,297.3960541784504L1008.5239541999999,294.9975812946664L1022.6443531499999,292.8162929961218L1036.7986965,290.83241446060146L1051.1119185,289.0279900648165L1065.3468798,287.38671281416106L1079.2838847,285.8937703144496L1093.5707055,284.5357055885189L1107.72410595,283.30029123022445L1121.75540085,282.17641555401775L1135.01446065,281.1539795438175L1148.22166095,280.223803533198L1161.48920685,279.3775426616022L1174.7916400499998,278.6076102512942L1188.01958415,277.90710833813023L1201.33804665,277.26976466753496L1214.6541519,276.68987553697826L1227.8599378499998,276.1622539283705L1241.09259645,275.6821824288946L1254.5199639,275.24537048866637L1268.10102405,274.8479156075969L1282.12571865,274.4862680836255L1296.2225451,274.15719899002113L1310.26279755,273.8577710814339L1324.39403985,273.5853123569652L1338.42439185,273.33739203460726L1352.4236281499998,273.11179871436366" style="fill: none;" fill="none"></path></g></g></g></g><g opacity="0.2"><g><g><g><path stroke="rgb(0, 119, 187)" stroke-width="2px" d="M169.722,76.11464879641031L183.91688805,76.11464879641031L198.47950710000003,76.11464879641031L212.82478770000003,76.11464879641031L227.71365015,76.11464879641031L242.37480225000002,76.11464879641031L256.93742130000004,76.11464879641031L271.04839125,76.11464879641031L285.43987395,76.11464879641031L299.6328762,76.11464879641031L314.23509705000004,76.11464879641031L328.37576835,76.11464879641031L342.55792725,76.11464879641031L356.74715790000005,76.11464879641031L371.1838998,76.11464879641031L385.52305155000005,76.11464879641031L399.87493245,76.11464879641031L414.14572395,76.11464879641031L428.35192679999994,76.11464879641031L442.51004174999997,76.11464879641031L456.72331635,76.11464879641031L470.98326449999996,76.11464879641031L485.39690535,76.11464879641031L499.774716,76.11464879641031L514.01014875,76.11464879641031L528.3488290500001,76.11464879641031L543.082113,76.11464879641031L558.3033477,76.11464879641031L573.16863765,76.11464879641031L588.0853156500001,76.11464879641031L602.6639640000001,76.11464879641031L617.1535083,76.11464879641031L631.7571435,76.11464879641031L646.35747855,76.11464879641031L660.9398985,76.11464879641031L675.4709304,71.02581822663753L689.9986621500001,50.69790127558318L704.5414803,50.69790127558318L719.1422868,50.69790127558318L734.51579985,50.69790127558318L749.3264016,50.69790127558318L763.87204845,50.69790127558318L778.4308959,50.69790127558318L793.0208590500001,50.69790127558318L807.78384435,50.69790127558318L822.5001561,50.69790127558318L837.25701255,50.69790127558318L851.8653622500001,50.69790127558318L866.4204381000001,50.69790127558318L880.95571305,50.69790127558318L895.5494478,50.69790127558318L910.0314489000001,50.69790127558318L924.5257077000001,-52.41549649679704L939.0586254,50.69790127558318L953.6801757000001,50.69790127558318L968.2847538,-21.383148198498557L983.0024799000001,50.69790127558318L997.6947477000001,50.69790127558318L1012.32054105,50.69790127558318L1027.01940915,-133.53954702425213L1104.4517715,-32.43430383955045L1120.14492765,56.64419474885774L1135.6938201,222.6522385626107L1151.32945935,210.72168027334607L1166.87976615,-29.108040551144263L1213.90030335,-39.186573156572905L1229.664177,191.30287965883468L1245.43087935,626.9627793837299L1261.13959335,50.32424931108745L1276.9006382999999,-29.173148074523645L1292.71071405,69.96956122177141L1308.50334615,20.52667112840785L1324.0211229,207.35402886942325L1338.7039616999998,164.78475575580393L1353.4216878,262.0466468007669L1368.0932118,753.3528453253853L1382.8797696000001,624.9282669983538L1397.5800520500002,106.02013872292324L1412.23743255,-75.83907123047386L1426.9726023,-19.411723366585782L1441.7553885,168.4640223206471L1456.5108306,470.47459646922937L1487.50819665,495.41697690759327L1502.77280475,189.5052771294129L1517.40001245,43.73848052942427L1531.7938523999999,203.63833765430792L1546.1641198500001,356.9306807109485L1560.47545605,518.6945457645722L1574.88108225,298.6545702845388L1589.2631359499999,38.51157839191736L1603.6121881499998,81.39111812122295L1618.3765878,369.7283335149339L1633.0716843,739.2271869681529" style="fill: none;" fill="none"></path></g><g><path stroke="rgb(255, 112, 67)" stroke-width="2px" d="M169.722,324.02466305292137L183.9145308,323.5020479846581L198.48186435000002,324.02466305292137L212.82620204999998,324.02466305292137L227.71317870000001,324.02466305292137L242.37574515,324.02466305292137L256.93412115,324.02466305292137L271.0498056,324.02466305292137L285.44647425,324.02466305292137L299.63429055,324.02466305292137L314.21953920000004,324.02466305292137L328.37718270000005,324.02466305292137L342.55604145,324.02466305292137L356.74715790000005,324.02466305292137L371.1886143,324.02466305292137L385.523523,324.02466305292137L399.87587535000006,324.02466305292137L414.1461954,324.02466305292137L428.35239824999996,324.02466305292137L442.512399,324.02466305292137L456.72803085000004,324.02466305292137L470.92810485,324.02466305292137L485.38511910000005,324.02466305292137L499.7756589,324.02466305292137L513.9983625000001,324.02466305292137L528.3502434000001,324.02466305292137L543.0830559,324.02466305292137L558.30476205,324.02466305292137L573.1681662,324.02466305292137L588.08625855,324.02466305292137L602.6653783500001,324.02466305292137L617.1572799,324.02466305292137L631.6953835500001,324.02466305292137L646.3579500000001,324.02466305292137L660.9450844500001,324.02466305292137L675.4718733000001,319.32137989100926L689.9996050500001,300.51989436840773L704.54289465,300.51989436840773L719.1413438999999,300.51989436840773L734.5162713000001,300.0005791693015L749.32687305,300.0005791693015L763.87204845,300.0005791693015L778.43325315,300.0005791693015L793.0170874500001,300.0005791693015L807.7414138500001,300.0005791693015L822.4996846500001,300.0005791693015L837.2636128500001,300.0005791693015L851.8219888499999,300.0005791693015L866.4194952,300.0005791693015L880.9561845,300.0005791693015L895.5513336,300.0005791693015L910.0314489000001,299.47828638461834L924.5257077000001,197.64574614887889L939.06664005,298.9560006042983L953.6811186,297.9144344462171L968.2847538,270.73612395307873L983.0029513500001,299.47828638461834L997.6961620500001,296.8699118330519L1012.32148395,275.51109238427324L1027.0208235,139.40817732432146L1041.9459876,169.38909875102252L1057.5340104,146.0309548657718L1073.12816205,181.2564169767327L1088.747772,146.96144427375296L1104.45318585,215.93898849258105L1120.146342,195.58293618825374L1135.69523445,211.8204730479867L1151.33040225,198.70844846793585L1166.8830662999999,145.78718815272916L1182.4890042,125.5747240877231L1198.10767125,138.08851242109648L1213.908318,153.23167937212708L1229.6646484500002,191.1153775058568L1245.4318222499999,200.4320525404049L1261.1400648,142.66294745211542L1276.9020526499999,140.54954519474862L1292.7116569500001,143.56363052420903L1308.5038175999998,142.15167788059435L1324.0220658,148.50438145691368L1338.70914765,151.8164029616011L1353.4282881000001,158.4650808648747L1368.0936832500001,178.22453702399434L1382.8797696000001,181.95565732983488L1397.5809949499999,126.0857760830516L1412.237904,113.24020103149218L1426.97213085,134.5072147773093L1441.7553885,150.1603570011579L1456.5108306,191.68383919441024L1471.7612952,171.08760818522117L1487.50913955,153.1662663035652L1502.7732762,129.93373754830944L1517.3721969,120.24770345195063L1531.8013956,159.73488144591764L1546.11037455,171.11140569124015L1560.4825278,159.6397193115349L1574.88202515,139.62218125208358L1589.2438065000001,127.88639643567039L1603.6126596,128.3974787666541L1618.3775307,177.10586566235975L1633.0716843,154.69755559027382" style="fill: none;" fill="none"></path></g><g><path stroke="rgb(51, 187, 238)" stroke-width="2px" d="M169.722,76.11464879641031L183.1611537,76.11464879641031L196.4428431,76.11464879641031L209.62647090000002,76.11464879641031L222.8176419,76.11464879641031L236.06020095,76.11464879641031L249.33010410000003,74.84163697825146L262.5137319,74.84163697825146L275.70537435,74.84163697825146L288.91210320000005,74.84163697825146L302.48844885,74.84163697825146L316.65835004999997,76.11464879641031L330.52558035,74.84163697825146L344.48332905,73.56866677002014L358.35433095,76.11464879641031L372.17064465,76.11464879641031L386.1873246,76.11464879641031L400.30206615000003,76.11464879641031L413.97270180000004,76.11464879641031L427.1959314,76.11464879641031L440.37531614999995,76.11464879641031L453.58628805,76.11464879641031L466.8401619,76.11464879641031L480.0596199,76.11464879641031L493.2470193,76.11464879641031L506.50890780000003,76.11464879641031L519.72789435,76.11464879641031L533.4890484,76.11464879641031L547.5722027999999,76.11464879641031L561.5690818500001,76.11464879641031L575.5141014000001,76.11464879641031L589.5746262,76.11464879641031L603.5597190000001,76.11464879641031L617.4821089500001,76.11464879641031L631.3337814,76.11464879641031L645.30708795,76.11464879641031L659.1941191500001,76.11464879641031L673.19901285,76.11464879641031L687.4118159999999,17.753205804180066L701.5619163000001,17.753205804180066L715.7436037499999,17.753205804180066L729.9017187,17.753205804180066L744.0244749,76.11464879641031L758.17881825,76.11464879641031L772.23840015,76.11464879641031L786.19614885,76.11464879641031L800.22838665,76.11464879641031L813.7967176499999,76.11464879641031L827.1260235,76.11464879641031L840.44684325,76.11464879641031L854.26692855,76.11464879641031L868.3816701000001,76.11464879641031L882.44172345,76.11464879641031L896.47396125,76.11464879641031L910.3840935,17.753205804180066L924.2635815000001,76.11464879641031L938.2797899999999,49.428685386271106L952.3827453,17.753205804180066L966.35605185,17.753205804180066L980.3180436,17.753205804180066L994.3856401500001,17.753205804180066L1008.53574045,17.753205804180066L1022.64246735,17.753205804180066L1036.7968107,16.488026006745667L1051.11993315,16.488026006745667L1065.34452255,16.488026006745667L1079.2829418,16.488026006745667L1093.59380655,16.488026006745667L1107.7245774,16.488026006745667L1121.7568152,16.488026006745667L1135.0149321,16.488026006745667L1148.23014705,16.488026006745667L1161.48826395,16.488026006745667L1174.7892828,16.488026006745667L1188.0205270499998,16.488026006745667L1201.3375752,16.488026006745667L1214.6546233499998,16.488026006745667L1227.86182365,16.488026006745667L1241.09259645,16.488026006745667L1254.51949245,16.488026006745667L1268.0996097,16.488026006745667L1282.12383285,16.488026006745667L1296.22301655,16.488026006745667L1310.2792983,16.488026006745667L1324.39403985,16.488026006745667L1338.4220346,16.488026006745667L1352.4231567000002,16.488026006745667" style="fill: none;" fill="none"></path></g><g><path stroke="rgb(204, 51, 17)" stroke-width="2px" d="M169.722,324.02466305292137L183.16492530000002,324.02466305292137L196.44331455000003,324.02466305292137L209.625528,324.02466305292137L222.8176419,322.9794399294011L236.0606724,321.93424485716014L249.31737495000002,322.9794399294011L262.51326044999996,321.4116578397957L275.70490290000004,321.93424485716014L288.89607390000003,321.93424485716014L302.4898632,323.5020479846581L316.65740715,324.02466305292137L330.53029485,322.9794399294011L344.48238615,323.5020479846581L358.35338805000004,324.02466305292137L372.17017319999997,324.02466305292137L386.1873246,324.02466305292137L400.3015947,324.02466305292137L413.95478670000006,324.02466305292137L427.19545995,324.02466305292137L440.38003065,324.02466305292137L453.58628805,324.02466305292137L466.84063334999996,324.02466305292137L480.0483051,324.02466305292137L493.2451335,324.02466305292137L506.4876925500001,324.02466305292137L519.7293087,324.02466305292137L533.4890484,324.02466305292137L547.5618309,324.02466305292137L561.55965285,324.02466305292137L575.5098583500001,324.02466305292137L589.576512,324.02466305292137L603.5616048,324.02466305292137L617.4844662,324.02466305292137L631.3328385,324.02466305292137L645.3080308499999,324.02466305292137L659.1955335000001,324.02466305292137L673.1895838500001,324.02466305292137L687.4104016500002,270.83155793823903L701.5543731,270.83155793823903L715.7261601,270.83155793823903L729.8772033,270.83155793823903L744.0112743000001,270.83155793823903L758.1774039,324.02466305292137L772.2134133,324.02466305292137L786.19709175,324.02466305292137L800.2043427,324.02466305292137L813.79860345,324.02466305292137L827.12838075,324.02466305292137L840.4473147000001,324.02466305292137L854.26598565,324.02466305292137L868.3628120999999,324.02466305292137L882.43229445,324.02466305292137L896.4503887500001,324.02466305292137L910.3859793,270.83155793823903L924.2626386000001,321.4116578397957L938.2548031499999,270.83155793823903L952.3596442500001,270.83155793823903L966.3579376499999,270.83155793823903L980.31757215,270.83155793823903L994.38658305,270.83155793823903L1008.5239541999999,270.83155793823903L1022.6443531499999,270.83155793823903L1036.7986965,270.83155793823903L1051.1119185,270.83155793823903L1065.3468798,270.83155793823903L1079.2838847,270.83155793823903L1093.5707055,270.83155793823903L1107.72410595,270.83155793823903L1121.75540085,270.83155793823903L1135.01446065,270.83155793823903L1148.22166095,270.83155793823903L1161.48920685,270.83155793823903L1174.7916400499998,270.83155793823903L1188.01958415,270.83155793823903L1201.33804665,270.83155793823903L1214.6541519,270.83155793823903L1227.8599378499998,270.83155793823903L1241.09259645,270.83155793823903L1254.5199639,270.83155793823903L1268.10102405,270.83155793823903L1282.12571865,270.83155793823903L1296.2225451,270.83155793823903L1310.26279755,270.83155793823903L1324.39403985,270.83155793823903L1338.42439185,270.83155793823903L1352.4236281499998,270.83155793823903" style="fill: none;" fill="none"></path></g></g></g></g></g></g><g transform="translate(10, 378)" clip-path="url(#clip_1)"><clipPath id="clip_1"><rect width="1697" height="21"></rect></clipPath><g><g><line x1="0" y1="0" x2="0" y2="5" style="visibility: inherit;" fill="rgb(0, 0, 0)" stroke="rgb(204, 204, 204)" stroke-width="1px"></line><line x1="169.722" y1="0" x2="169.722" y2="5" style="visibility: inherit;" fill="rgb(0, 0, 0)" stroke="rgb(204, 204, 204)" stroke-width="1px"></line><line x1="339.444" y1="0" x2="339.444" y2="5" style="visibility: inherit;" fill="rgb(0, 0, 0)" stroke="rgb(204, 204, 204)" stroke-width="1px"></line><line x1="509.1660000000001" y1="0" x2="509.1660000000001" y2="5" style="visibility: inherit;" fill="rgb(0, 0, 0)" stroke="rgb(204, 204, 204)" stroke-width="1px"></line><line x1="678.888" y1="0" x2="678.888" y2="5" style="visibility: inherit;" fill="rgb(0, 0, 0)" stroke="rgb(204, 204, 204)" stroke-width="1px"></line><line x1="848.61" y1="0" x2="848.61" y2="5" style="visibility: inherit;" fill="rgb(0, 0, 0)" stroke="rgb(204, 204, 204)" stroke-width="1px"></line><line x1="1018.332" y1="0" x2="1018.332" y2="5" style="visibility: inherit;" fill="rgb(0, 0, 0)" stroke="rgb(204, 204, 204)" stroke-width="1px"></line><line x1="1188.0539999999999" y1="0" x2="1188.0539999999999" y2="5" style="visibility: inherit;" fill="rgb(0, 0, 0)" stroke="rgb(204, 204, 204)" stroke-width="1px"></line><line x1="1357.7759999999998" y1="0" x2="1357.7759999999998" y2="5" style="visibility: inherit;" fill="rgb(0, 0, 0)" stroke="rgb(204, 204, 204)" stroke-width="1px"></line><line x1="1527.498" y1="0" x2="1527.498" y2="5" style="visibility: inherit;" fill="rgb(0, 0, 0)" stroke="rgb(204, 204, 204)" stroke-width="1px"></line><line x1="1697.22" y1="0" x2="1697.22" y2="5" style="visibility: inherit;" fill="rgb(0, 0, 0)" stroke="rgb(204, 204, 204)" stroke-width="1px"></line></g><g transform="translate(0, 8)"><text x="0" y="0" dx="0em" dy="0.95em" style="text-anchor: middle; visibility: hidden; font-family: Roboto, sans-serif; font-size: 12px; font-weight: 200;" fill="rgb(50, 49, 63)" stroke="none" stroke-width="1px">-0.1</text><text x="169.722" y="0" dx="0em" dy="0.95em" style="text-anchor: middle; visibility: inherit; font-family: Roboto, sans-serif; font-size: 12px; font-weight: 200;" fill="rgb(50, 49, 63)" stroke="none" stroke-width="1px">0</text><text x="339.444" y="0" dx="0em" dy="0.95em" style="text-anchor: middle; visibility: inherit; font-family: Roboto, sans-serif; font-size: 12px; font-weight: 200;" fill="rgb(50, 49, 63)" stroke="none" stroke-width="1px">0.1</text><text x="509.1660000000001" y="0" dx="0em" dy="0.95em" style="text-anchor: middle; visibility: inherit; font-family: Roboto, sans-serif; font-size: 12px; font-weight: 200;" fill="rgb(50, 49, 63)" stroke="none" stroke-width="1px">0.2</text><text x="678.888" y="0" dx="0em" dy="0.95em" style="text-anchor: middle; visibility: inherit; font-family: Roboto, sans-serif; font-size: 12px; font-weight: 200;" fill="rgb(50, 49, 63)" stroke="none" stroke-width="1px">0.3</text><text x="848.61" y="0" dx="0em" dy="0.95em" style="text-anchor: middle; visibility: inherit; font-family: Roboto, sans-serif; font-size: 12px; font-weight: 200;" fill="rgb(50, 49, 63)" stroke="none" stroke-width="1px">0.4</text><text x="1018.332" y="0" dx="0em" dy="0.95em" style="text-anchor: middle; visibility: inherit; font-family: Roboto, sans-serif; font-size: 12px; font-weight: 200;" fill="rgb(50, 49, 63)" stroke="none" stroke-width="1px">0.5</text><text x="1188.0539999999999" y="0" dx="0em" dy="0.95em" style="text-anchor: middle; visibility: inherit; font-family: Roboto, sans-serif; font-size: 12px; font-weight: 200;" fill="rgb(50, 49, 63)" stroke="none" stroke-width="1px">0.6</text><text x="1357.7759999999998" y="0" dx="0em" dy="0.95em" style="text-anchor: middle; visibility: inherit; font-family: Roboto, sans-serif; font-size: 12px; font-weight: 200;" fill="rgb(50, 49, 63)" stroke="none" stroke-width="1px">0.7</text><text x="1527.498" y="0" dx="0em" dy="0.95em" style="text-anchor: middle; visibility: inherit; font-family: Roboto, sans-serif; font-size: 12px; font-weight: 200;" fill="rgb(50, 49, 63)" stroke="none" stroke-width="1px">0.8</text><text x="1697.22" y="0" dx="0em" dy="0.95em" style="text-anchor: middle; visibility: hidden; font-family: Roboto, sans-serif; font-size: 12px; font-weight: 200;" fill="rgb(50, 49, 63)" stroke="none" stroke-width="1px">0.9</text></g><line x1="0" y1="0" x2="1697.22" y2="0" fill="rgb(0, 0, 0)" stroke="rgb(204, 204, 204)" stroke-width="1px"></line></g></g></g></g></svg>