<svg viewBox="0 0 1707.2222900390625 400.0000305175781" xmlns="http://www.w3.org/2000/svg"><g><g><g><g><g><line x1="61.953125" y1="378" x2="56.953125" y2="378" style="visibility: inherit;" fill="rgb(0, 0, 0)" stroke="rgb(204, 204, 204)" stroke-width="1px"></line><line x1="61.953125" y1="348.92307692307696" x2="56.953125" y2="348.92307692307696" style="visibility: inherit;" fill="rgb(0, 0, 0)" stroke="rgb(204, 204, 204)" stroke-width="1px"></line><line x1="61.953125" y1="319.84615384615387" x2="56.953125" y2="319.84615384615387" style="visibility: inherit;" fill="rgb(0, 0, 0)" stroke="rgb(204, 204, 204)" stroke-width="1px"></line><line x1="61.953125" y1="290.7692307692308" x2="56.953125" y2="290.7692307692308" style="visibility: inherit;" fill="rgb(0, 0, 0)" stroke="rgb(204, 204, 204)" stroke-width="1px"></line><line x1="61.953125" y1="261.6923076923077" x2="56.953125" y2="261.6923076923077" style="visibility: inherit;" fill="rgb(0, 0, 0)" stroke="rgb(204, 204, 204)" stroke-width="1px"></line><line x1="61.953125" y1="232.61538461538464" x2="56.953125" y2="232.61538461538464" style="visibility: inherit;" fill="rgb(0, 0, 0)" stroke="rgb(204, 204, 204)" stroke-width="1px"></line><line x1="61.953125" y1="203.53846153846152" x2="56.953125" y2="203.53846153846152" style="visibility: inherit;" fill="rgb(0, 0, 0)" stroke="rgb(204, 204, 204)" stroke-width="1px"></line><line x1="61.953125" y1="174.46153846153848" x2="56.953125" y2="174.46153846153848" style="visibility: inherit;" fill="rgb(0, 0, 0)" stroke="rgb(204, 204, 204)" stroke-width="1px"></line><line x1="61.953125" y1="145.38461538461536" x2="56.953125" y2="145.38461538461536" style="visibility: inherit;" fill="rgb(0, 0, 0)" stroke="rgb(204, 204, 204)" stroke-width="1px"></line><line x1="61.953125" y1="116.30769230769232" x2="56.953125" y2="116.30769230769232" style="visibility: inherit;" fill="rgb(0, 0, 0)" stroke="rgb(204, 204, 204)" stroke-width="1px"></line><line x1="61.953125" y1="87.23076923076925" x2="56.953125" y2="87.23076923076925" style="visibility: inherit;" fill="rgb(0, 0, 0)" stroke="rgb(204, 204, 204)" stroke-width="1px"></line><line x1="61.953125" y1="58.15384615384616" x2="56.953125" y2="58.15384615384616" style="visibility: inherit;" fill="rgb(0, 0, 0)" stroke="rgb(204, 204, 204)" stroke-width="1px"></line><line x1="61.953125" y1="29.076923076923098" x2="56.953125" y2="29.076923076923098" style="visibility: inherit;" fill="rgb(0, 0, 0)" stroke="rgb(204, 204, 204)" stroke-width="1px"></line><line x1="61.953125" y1="0" x2="56.953125" y2="0" style="visibility: inherit;" fill="rgb(0, 0, 0)" stroke="rgb(204, 204, 204)" stroke-width="1px"></line></g><g transform="translate(51.953125, 0)"><text x="0" y="378" dx="0em" dy="0.3em" style="text-anchor: end; visibility: hidden; font-family: Roboto, sans-serif; font-size: 12px; font-weight: 200;" fill="rgb(50, 49, 63)" stroke="none" stroke-width="1px">-0.01</text><text x="0" y="348.92307692307696" dx="0em" dy="0.3em" style="text-anchor: end; visibility: inherit; font-family: Roboto, sans-serif; font-size: 12px; font-weight: 200;" fill="rgb(50, 49, 63)" stroke="none" stroke-width="1px">0</text><text x="0" y="319.84615384615387" dx="0em" dy="0.3em" style="text-anchor: end; visibility: inherit; font-family: Roboto, sans-serif; font-size: 12px; font-weight: 200;" fill="rgb(50, 49, 63)" stroke="none" stroke-width="1px">0.01</text><text x="0" y="290.7692307692308" dx="0em" dy="0.3em" style="text-anchor: end; visibility: inherit; font-family: Roboto, sans-serif; font-size: 12px; font-weight: 200;" fill="rgb(50, 49, 63)" stroke="none" stroke-width="1px">0.02</text><text x="0" y="261.6923076923077" dx="0em" dy="0.3em" style="text-anchor: end; visibility: inherit; font-family: Roboto, sans-serif; font-size: 12px; font-weight: 200;" fill="rgb(50, 49, 63)" stroke="none" stroke-width="1px">0.03</text><text x="0" y="232.61538461538464" dx="0em" dy="0.3em" style="text-anchor: end; visibility: inherit; font-family: Roboto, sans-serif; font-size: 12px; font-weight: 200;" fill="rgb(50, 49, 63)" stroke="none" stroke-width="1px">0.04</text><text x="0" y="203.53846153846152" dx="0em" dy="0.3em" style="text-anchor: end; visibility: inherit; font-family: Roboto, sans-serif; font-size: 12px; font-weight: 200;" fill="rgb(50, 49, 63)" stroke="none" stroke-width="1px">0.05</text><text x="0" y="174.46153846153848" dx="0em" dy="0.3em" style="text-anchor: end; visibility: inherit; font-family: Roboto, sans-serif; font-size: 12px; font-weight: 200;" fill="rgb(50, 49, 63)" stroke="none" stroke-width="1px">0.06</text><text x="0" y="145.38461538461536" dx="0em" dy="0.3em" style="text-anchor: end; visibility: inherit; font-family: Roboto, sans-serif; font-size: 12px; font-weight: 200;" fill="rgb(50, 49, 63)" stroke="none" stroke-width="1px">0.07</text><text x="0" y="116.30769230769232" dx="0em" dy="0.3em" style="text-anchor: end; visibility: inherit; font-family: Roboto, sans-serif; font-size: 12px; font-weight: 200;" fill="rgb(50, 49, 63)" stroke="none" stroke-width="1px">0.08</text><text x="0" y="87.23076923076925" dx="0em" dy="0.3em" style="text-anchor: end; visibility: inherit; font-family: Roboto, sans-serif; font-size: 12px; font-weight: 200;" fill="rgb(50, 49, 63)" stroke="none" stroke-width="1px">0.09</text><text x="0" y="58.15384615384616" dx="0em" dy="0.3em" style="text-anchor: end; visibility: inherit; font-family: Roboto, sans-serif; font-size: 12px; font-weight: 200;" fill="rgb(50, 49, 63)" stroke="none" stroke-width="1px">0.1</text><text x="0" y="29.076923076923098" dx="0em" dy="0.3em" style="text-anchor: end; visibility: inherit; font-family: Roboto, sans-serif; font-size: 12px; font-weight: 200;" fill="rgb(50, 49, 63)" stroke="none" stroke-width="1px">0.11</text><text x="0" y="0" dx="0em" dy="0.3em" style="text-anchor: end; visibility: hidden; font-family: Roboto, sans-serif; font-size: 12px; font-weight: 200;" fill="rgb(50, 49, 63)" stroke="none" stroke-width="1px">0.12</text></g><line x1="61.953125" y1="0" x2="61.953125" y2="378" fill="rgb(0, 0, 0)" stroke="rgb(204, 204, 204)" stroke-width="1px"></line></g></g><g transform="translate(61, 0)" clip-path="url(#clip_0)"><clipPath id="clip_0"><rect width="1645" height="377"></rect></clipPath><g><g><g><line x1="0" y1="0" x2="0" y2="378" fill="rgb(0, 0, 0)" stroke="rgb(60, 60, 60)" stroke-width="1px" opacity="0.25"></line><line x1="137.10557291666666" y1="0" x2="137.10557291666666" y2="378" fill="rgb(0, 0, 0)" stroke="rgb(60, 60, 60)" stroke-width="1px" opacity="0.25"></line><line x1="274.2111458333333" y1="0" x2="274.2111458333333" y2="378" fill="rgb(0, 0, 0)" stroke="rgb(60, 60, 60)" stroke-width="1px" opacity="0.25"></line><line x1="411.31671875" y1="0" x2="411.31671875" y2="378" fill="rgb(0, 0, 0)" stroke="rgb(60, 60, 60)" stroke-width="1px" opacity="0.25"></line><line x1="548.4222916666666" y1="0" x2="548.4222916666666" y2="378" fill="rgb(0, 0, 0)" stroke="rgb(60, 60, 60)" stroke-width="1px" opacity="0.25"></line><line x1="685.5278645833333" y1="0" x2="685.5278645833333" y2="378" fill="rgb(0, 0, 0)" stroke="rgb(60, 60, 60)" stroke-width="1px" opacity="0.25"></line><line x1="822.6334375" y1="0" x2="822.6334375" y2="378" fill="rgb(0, 0, 0)" stroke="rgb(60, 60, 60)" stroke-width="1px" opacity="0.25"></line><line x1="959.7390104166667" y1="0" x2="959.7390104166667" y2="378" fill="rgb(0, 0, 0)" stroke="rgb(60, 60, 60)" stroke-width="1px" opacity="0.25"></line><line x1="1096.8445833333333" y1="0" x2="1096.8445833333333" y2="378" fill="rgb(0, 0, 0)" stroke="rgb(60, 60, 60)" stroke-width="1px" opacity="0.25"></line><line x1="1233.95015625" y1="0" x2="1233.95015625" y2="378" fill="rgb(0, 0, 0)" stroke="rgb(60, 60, 60)" stroke-width="1px" opacity="0.25"></line><line x1="1371.0557291666667" y1="0" x2="1371.0557291666667" y2="378" fill="rgb(0, 0, 0)" stroke="rgb(60, 60, 60)" stroke-width="1px" opacity="0.25"></line><line x1="1508.1613020833333" y1="0" x2="1508.1613020833333" y2="378" fill="rgb(0, 0, 0)" stroke="rgb(60, 60, 60)" stroke-width="1px" opacity="0.25"></line><line x1="1645.266875" y1="0" x2="1645.266875" y2="378" fill="rgb(0, 0, 0)" stroke="rgb(60, 60, 60)" stroke-width="1px" opacity="0.25"></line></g><g><line x1="0" y1="378" x2="1645.266875" y2="378" fill="rgb(0, 0, 0)" stroke="rgb(60, 60, 60)" stroke-width="1px" opacity="0.25"></line><line x1="0" y1="348.92307692307696" x2="1645.266875" y2="348.92307692307696" fill="rgb(0, 0, 0)" stroke="rgb(60, 60, 60)" stroke-width="1px" opacity="0.25"></line><line x1="0" y1="319.84615384615387" x2="1645.266875" y2="319.84615384615387" fill="rgb(0, 0, 0)" stroke="rgb(60, 60, 60)" stroke-width="1px" opacity="0.25"></line><line x1="0" y1="290.7692307692308" x2="1645.266875" y2="290.7692307692308" fill="rgb(0, 0, 0)" stroke="rgb(60, 60, 60)" stroke-width="1px" opacity="0.25"></line><line x1="0" y1="261.6923076923077" x2="1645.266875" y2="261.6923076923077" fill="rgb(0, 0, 0)" stroke="rgb(60, 60, 60)" stroke-width="1px" opacity="0.25"></line><line x1="0" y1="232.61538461538464" x2="1645.266875" y2="232.61538461538464" fill="rgb(0, 0, 0)" stroke="rgb(60, 60, 60)" stroke-width="1px" opacity="0.25"></line><line x1="0" y1="203.53846153846152" x2="1645.266875" y2="203.53846153846152" fill="rgb(0, 0, 0)" stroke="rgb(60, 60, 60)" stroke-width="1px" opacity="0.25"></line><line x1="0" y1="174.46153846153848" x2="1645.266875" y2="174.46153846153848" fill="rgb(0, 0, 0)" stroke="rgb(60, 60, 60)" stroke-width="1px" opacity="0.25"></line><line x1="0" y1="145.38461538461536" x2="1645.266875" y2="145.38461538461536" fill="rgb(0, 0, 0)" stroke="rgb(60, 60, 60)" stroke-width="1px" opacity="0.25"></line><line x1="0" y1="116.30769230769232" x2="1645.266875" y2="116.30769230769232" fill="rgb(0, 0, 0)" stroke="rgb(60, 60, 60)" stroke-width="1px" opacity="0.25"></line><line x1="0" y1="87.23076923076925" x2="1645.266875" y2="87.23076923076925" fill="rgb(0, 0, 0)" stroke="rgb(60, 60, 60)" stroke-width="1px" opacity="0.25"></line><line x1="0" y1="58.15384615384616" x2="1645.266875" y2="58.15384615384616" fill="rgb(0, 0, 0)" stroke="rgb(60, 60, 60)" stroke-width="1px" opacity="0.25"></line><line x1="0" y1="29.076923076923098" x2="1645.266875" y2="29.076923076923098" fill="rgb(0, 0, 0)" stroke="rgb(60, 60, 60)" stroke-width="1px" opacity="0.25"></line><line x1="0" y1="0" x2="1645.266875" y2="0" fill="rgb(0, 0, 0)" stroke="rgb(60, 60, 60)" stroke-width="1px" opacity="0.25"></line></g></g></g><g><g><line x1="0" y1="348.92307692307696" x2="1645.266875" y2="348.92307692307696" fill="rgb(0, 0, 0)" stroke="rgb(153, 153, 153)" stroke-width="1.5px"></line></g></g><g><g><line x1="137.10557291666666" y1="0" x2="137.10557291666666" y2="378" fill="rgb(0, 0, 0)" stroke="rgb(153, 153, 153)" stroke-width="1.5px"></line></g></g><g><g><g><g><g><path stroke="rgb(255, 112, 67)" stroke-width="2px" d="M137.10557291666666,59.45645456589189L150.81613020833333,60.13234855283242L164.5266875,60.8242818106909L178.23724479166668,61.53192566226118L191.94780208333333,62.25492420771408L205.658359375,62.99288319297L219.36891666666668,63.74539699972613L233.07947395833332,64.51201930184149L246.79003125,65.29228237410501L260.5005885416667,66.08569485639171L274.2111458333333,66.89174768614512L287.92170312499996,67.70991296745142L301.63226041666667,68.53964692843621L315.34281770833337,69.38038738735956L329.053375,70.23157062384249L342.76393229166666,71.09262186361987" style="fill: none;" fill="none"></path></g><g><path stroke="rgb(0, 153, 136)" stroke-width="2px" d="M137.10557291666666,59.45645456589189L150.81613020833333,60.13234855283242L164.5266875,60.8242818106909L178.23724479166668,61.53192566226118L191.94780208333333,62.25492420771408L205.658359375,62.99288319297L219.36891666666668,63.74539699972613L233.07947395833332,64.51201930184149L246.79003125,65.29228237410501L260.5005885416667,66.08569485639171L274.2111458333333,66.89174768614512L287.92170312499996,67.70991296745142" style="fill: none;" fill="none"></path></g><g><path stroke="rgb(238, 51, 119)" stroke-width="2px" d="M137.10557291666666,58.23558007753816Z" style="fill: none;" fill="none"></path></g><g><path stroke="rgb(51, 187, 238)" stroke-width="2px" d="M137.10557291666666,319.97641468735844L150.81613020833333,320.0440040860525L164.5266875,320.11319780744105L178.23724479166668,320.183962389523L191.94780208333333,320.25626236152647L205.658359375,320.33005833778145L219.36891666666668,320.4053097734891L233.07947395833332,320.481971952538L246.79003125,320.5599982204359L260.5005885416667,320.6393391981186L274.2111458333333,320.719944715937L287.92170312499996,320.8017615086044L301.63226041666667,320.88473491770964L315.34281770833337,320.9688091075492L329.053375,321.053927617852L342.76393229166666,321.1400325887567L356.47448958333337,321.227065455193L370.185046875,321.31496811829027L383.89560416666666,321.4036818662052L397.60616145833336,321.4931477037747" style="fill: none;" fill="none"></path></g><g><path stroke="rgb(0, 119, 187)" stroke-width="2px" d="M137.10557291666666,319.97641468735844L150.81613020833333,320.0440040860525L164.5266875,320.11319780744105L178.23724479166668,320.183962389523L191.94780208333333,320.25626236152647L205.658359375,320.33005833778145L219.36891666666668,320.4053097734891L233.07947395833332,320.481971952538L246.79003125,320.5599982204359" style="fill: none;" fill="none"></path></g><g><path stroke="rgb(187, 187, 187)" stroke-width="2px" d="M137.10557291666666,319.97641468735844Z" style="fill: none;" fill="none"></path></g><g><path stroke="rgb(238, 51, 119)" stroke-width="2px" d="M137.10557291666666,319.97641468735844L150.81613020833333,320.0440040860525L164.5266875,320.11319780744105L178.23724479166668,320.183962389523L191.94780208333333,320.25626236152647L205.658359375,320.33005833778145L219.36891666666668,320.4053097734891L233.07947395833332,320.481971952538" style="fill: none;" fill="none"></path></g><g><path stroke="rgb(204, 51, 17)" stroke-width="2px" d="M137.10557291666666,346.02841063180506L150.81613020833333,346.03516946533944L164.5266875,346.04208880213815L178.23724479166668,346.0491652815325L191.94780208333333,346.0563952913696L205.658359375,346.06377489030774L219.36891666666668,346.0712999969818L233.07947395833332,346.078966216252L246.79003125,346.0867688600675L260.5005885416667,346.0947029662884L274.2111458333333,346.1027635060113L287.92170312499996,346.11094516189905L301.63226041666667,346.1192425178634L315.34281770833337,346.1276499453539L329.053375,346.13616179153576L342.76393229166666,346.14477228838575L356.47448958333337,346.15347558626405L370.185046875,346.16226585859204L383.89560416666666,346.17113722401007L397.60616145833336,346.180083813918L411.31671875,346.1890997591624L425.0272760416667,346.1981793034785L438.73783333333336,346.20731672778055L452.44839062500006,346.21650639070907" style="fill: none;" fill="none"></path></g><g><path stroke="rgb(187, 187, 187)" stroke-width="2px" d="M137.10557291666666,346.01558893123786L150.81613020833333,346.0156959751966L164.5266875,346.01580609734833L178.23724479166668,346.01591946921906L191.94780208333333,346.0160360338194L205.658359375,346.0161556830701L219.36891666666668,346.0162784723039L233.07947395833332,346.0164043556221L246.79003125,346.0165331803669L260.5005885416667,346.01666497710175L274.2111458333333,346.0167997476867L287.92170312499996,346.0169373857345L301.63226041666667,346.0170778379272L315.34281770833337,346.0172210464134L329.053375,346.01736690925077L342.76393229166666,346.01751540748063L356.47448958333337,346.017666434138L370.185046875,346.01781996144996L383.89560416666666,346.01797591584403L397.60616145833336,346.01813415063424L411.31671875,346.0182946704107L425.0272760416667,346.0184573625186L438.73783333333336,346.0186221533594L452.44839062500006,346.01878896863747L466.15894791666665,346.0189577337333L479.86950520833335,346.01912834070265L493.5800625,346.01930075211953L507.2906197916667,346.01947489384713L521.0011770833333,346.0196506926316L534.711734375,346.01982807630867L548.4222916666666,346.02000694179304L562.1328489583334,346.02018722300494L575.8434062499999,346.02036885503526L589.5539635416667,346.02055177432646L603.2645208333333,346.0207359504561L616.975078125,346.0209212883176L630.6856354166667,346.02110769811264L644.3961927083334,346.0212951576714L658.10675,346.0214836119541L671.8173072916667,346.02167297667404L685.5278645833333,346.02186323480686L699.238421875,346.02205433691137L712.9489791666667,346.02224617356063L726.6595364583334,346.0224387671143L740.37009375,346.0226320426905L754.0806510416667,346.0228259921043L767.7912083333333,346.02302054428276L781.501765625,346.0232156638201L795.2123229166667,346.02341128617655L808.9228802083333,346.0236074127766L822.6334375,346.0238040127672L836.3439947916667,346.02400105685786L850.0545520833334,346.0241984866045L863.7651093750001,346.0243962785214L877.4756666666667,346.0245944409161L891.1862239583332,346.0247929191685L904.8967812500001,346.02499169344037L918.6073385416666,346.0251907755336L932.3178958333333,346.02539011430076L946.0284531249999,346.0255896626256L959.7390104166667,346.0257894382252L973.4495677083333,346.02598942610825L987.160125,346.026189612157L1000.8706822916666,346.02638998308896L1014.5812395833334,346.026590526419L1028.291796875,346.0267911693709L1042.0023541666667,346.02699196750825L1055.7129114583333,346.02719287949964L1069.42346875,346.0273939284952L1083.1340260416666,346.0275950742769" style="fill: none;" fill="none"></path></g><g><path stroke="rgb(238, 51, 119)" stroke-width="2px" d="M137.10557291666666,346.01558893123786L150.81613020833333,346.0156959751966L164.5266875,346.01580609734833L178.23724479166668,346.01591946921906L191.94780208333333,346.0160360338194L205.658359375,346.0161556830701L219.36891666666668,346.0162784723039L233.07947395833332,346.0164043556221L246.79003125,346.0165331803669L260.5005885416667,346.01666497710175L274.2111458333333,346.0167997476867L287.92170312499996,346.0169373857345" style="fill: none;" fill="none"></path></g><g><path stroke="rgb(204, 51, 17)" stroke-width="2px" d="M137.10557291666666,346.0162019546215L150.81613020833333,346.0166299532314L164.5266875,346.0170703829382L178.23724479166668,346.01752335637656L191.94780208333333,346.017988740954L205.658359375,346.0184665481949L219.36891666666668,346.01895657859245L233.07947395833332,346.0194587005354L246.79003125,346.0199727548707L260.5005885416667,346.0204984601862L274.2111458333333,346.02103568725767L287.92170312499996,346.02158422334423L301.63226041666667,346.0221437951017L315.34281770833337,346.02271412385613" style="fill: none;" fill="none"></path></g><g><path stroke="rgb(187, 187, 187)" stroke-width="2px" d="M137.10557291666666,346.0162019546215L150.81613020833333,346.0166299532314L164.5266875,346.0170703829382L178.23724479166668,346.01752335637656L191.94780208333333,346.017988740954" style="fill: none;" fill="none"></path></g><g><path stroke="rgb(0, 153, 136)" stroke-width="2px" d="M137.10557291666666,346.0186520171566L150.81613020833333,346.0203588720684L164.5266875,346.0221141850053L178.23724479166668,346.0239174610871L191.94780208333333,346.02576818712726L205.658359375,346.02766584548505L219.36891666666668,346.02960980264896L233.07947395833332,346.0315992753006L246.79003125,346.03363358002474L260.5005885416667,346.03571171632666L274.2111458333333,346.0378327462002L287.92170312499996,346.0399956642102L301.63226041666667,346.04219944780834L315.34281770833337,346.04444296924146L329.053375,346.0467250555115L342.76393229166666,346.0490444937514L356.47448958333337,346.05140003672807L370.185046875,346.05379044567985L383.89560416666666,346.0562144522961L397.60616145833336,346.0586707656402L411.31671875,346.06115804316727L425.0272760416667,346.0636749371012L438.73783333333336,346.06622015045446L452.44839062500006,346.0687923487813L466.15894791666665,346.0713902545128L479.86950520833335,346.0740125275453L493.5800625,346.07665787806906L507.2906197916667,346.079325032581L521.0011770833333,346.0820127536097L534.711734375,346.08471984082547L548.4222916666666,346.08744506773996L562.1328489583334,346.0901872701993L575.8434062499999,346.0929453126137L589.5539635416667,346.0957180740116L603.2645208333333,346.09850449881054L616.975078125,346.10130357876403" style="fill: none;" fill="none"></path></g><g><path stroke="rgb(238, 51, 119)" stroke-width="2px" d="M137.10557291666666,58.17429263316672L150.81613020833333,58.18499986464298L164.5266875,58.19601153871308L178.23724479166668,58.20734380307156L191.94780208333333,58.21899862338573L205.658359375,58.230966129331684L219.36891666666668,58.24324385387235L233.07947395833332,58.255828535369965L246.79003125,58.268709481961665L260.5005885416667,58.28189054367634L274.2111458333333,58.29536645658175L287.92170312499996,58.30912878228771L301.63226041666667,58.32317501378974L315.34281770833337,58.337496215099996L329.053375,58.352081188606036L342.76393229166666,58.366929420181236L356.47448958333337,58.38203406979605L370.185046875,58.397388074777524L383.89560416666666,58.412981846884854" style="fill: none;" fill="none"></path></g><g><path stroke="rgb(204, 51, 17)" stroke-width="2px" d="M137.10557291666666,58.17429263316672L150.81613020833333,58.18499986464298L164.5266875,58.19601153871308L178.23724479166668,58.20734380307156L191.94780208333333,58.21899862338573L205.658359375,58.230966129331684L219.36891666666668,58.24324385387235L233.07947395833332,58.255828535369965L246.79003125,58.268709481961665L260.5005885416667,58.28189054367634L274.2111458333333,58.29536645658175L287.92170312499996,58.30912878228771L301.63226041666667,58.32317501378974L315.34281770833337,58.337496215099996L329.053375,58.352081188606036L342.76393229166666,58.366929420181236L356.47448958333337,58.38203406979605L370.185046875,58.397388074777524L383.89560416666666,58.412981846884854" style="fill: none;" fill="none"></path></g><g><path stroke="rgb(187, 187, 187)" stroke-width="2px" d="M137.10557291666666,58.17429263316672L150.81613020833333,58.18499986464298L164.5266875,58.19601153871308L178.23724479166668,58.20734380307156L191.94780208333333,58.21899862338573L205.658359375,58.230966129331684L219.36891666666668,58.24324385387235L233.07947395833332,58.255828535369965L246.79003125,58.268709481961665L260.5005885416667,58.28189054367634L274.2111458333333,58.29536645658175L287.92170312499996,58.30912878228771L301.63226041666667,58.32317501378974L315.34281770833337,58.337496215099996L329.053375,58.352081188606036L342.76393229166666,58.366929420181236L356.47448958333337,58.38203406979605L370.185046875,58.397388074777524L383.89560416666666,58.412981846884854L397.60616145833336,58.42880601960306L411.31671875,58.44485592153734L425.0272760416667,58.461126365668065L438.73783333333336,58.47760736752287L452.44839062500006,58.49428923843063L466.15894791666665,58.51116686104898L479.86950520833335,58.528228417683245" style="fill: none;" fill="none"></path></g><g><path stroke="rgb(0, 119, 187)" stroke-width="2px" d="M137.10557291666666,319.97641468735844L150.81613020833333,320.0440040860525L164.5266875,320.11319780744105L178.23724479166668,320.183962389523L191.94780208333333,320.25626236152647L205.658359375,320.33005833778145L219.36891666666668,320.4053097734891L233.07947395833332,320.481971952538L246.79003125,320.5599982204359L260.5005885416667,320.6393391981186L274.2111458333333,320.719944715937L287.92170312499996,320.8017615086044" style="fill: none;" fill="none"></path></g><g><path stroke="rgb(204, 51, 17)" stroke-width="2px" d="M137.10557291666666,319.8481990356858L150.81613020833333,319.8492694752733L164.5266875,319.85037094404254L178.23724479166668,319.85150478582773L191.94780208333333,319.8526698569953L205.658359375,319.8538666740932L219.36891666666668,319.8550947962392L233.07947395833332,319.8563533399429L246.79003125,319.85764157788634L260.5005885416667,319.8589596375205L274.2111458333333,319.8603070402909L287.92170312499996,319.8616832621464L301.63226041666667,319.8630877384086L315.34281770833337,319.864519867987L329.053375,319.8659783733618L342.76393229166666,319.8674633285582L356.47448958333337,319.8689737243186L370.185046875,319.87050918411666L383.89560416666666,319.87206867154146L397.60616145833336,319.87365118538656L411.31671875,319.87525631708854L425.0272760416667,319.87688331920293L438.73783333333336,319.878531161796L452.44839062500006,319.88019939213103L466.15894791666665,319.8818872467302L479.86950520833335,319.8835934314398L493.5800625,319.8853175162046L507.2906197916667,319.8870590383671L521.0011770833333,319.88881698996676L534.711734375,319.89059066467667" style="fill: none;" fill="none"></path></g><g><path stroke="rgb(187, 187, 187)" stroke-width="2px" d="M137.10557291666666,319.8481990356858L150.81613020833333,319.8492694752733L164.5266875,319.85037094404254L178.23724479166668,319.85150478582773L191.94780208333333,319.8526698569953L205.658359375,319.8538666740932L219.36891666666668,319.8550947962392L233.07947395833332,319.8563533399429L246.79003125,319.85764157788634L260.5005885416667,319.8589596375205L274.2111458333333,319.8603070402909L287.92170312499996,319.8616832621464L301.63226041666667,319.8630877384086L315.34281770833337,319.864519867987L329.053375,319.8659783733618L342.76393229166666,319.8674633285582" style="fill: none;" fill="none"></path></g><g><path stroke="rgb(238, 51, 119)" stroke-width="2px" d="M137.10557291666666,319.8481990356858L150.81613020833333,319.8492694752733L164.5266875,319.85037094404254L178.23724479166668,319.85150478582773L191.94780208333333,319.8526698569953L205.658359375,319.8538666740932L219.36891666666668,319.8550947962392L233.07947395833332,319.8563533399429L246.79003125,319.85764157788634L260.5005885416667,319.8589596375205L274.2111458333333,319.8603070402909L287.92170312499996,319.8616832621464L301.63226041666667,319.8630877384086L315.34281770833337,319.864519867987L329.053375,319.8659783733618L342.76393229166666,319.8674633285582L356.47448958333337,319.8689737243186L370.185046875,319.87050918411666L383.89560416666666,319.87206867154146" style="fill: none;" fill="none"></path></g><g><path stroke="rgb(187, 187, 187)" stroke-width="2px" d="M137.10557291666666,346.01558893123786Z" style="fill: none;" fill="none"></path></g><g><path stroke="rgb(0, 119, 187)" stroke-width="2px" d="M137.10557291666666,58.164067227106834L150.81613020833333,58.16942084284501L164.5266875,58.174934591934274L178.23724479166668,58.18060776485126L191.94780208333333,58.186439374538026L205.658359375,58.192419138651275L219.36891666666668,58.19855719421571L233.07947395833332,58.20484709586262L246.79003125,58.21129080661177L260.5005885416667,58.21788549014935L274.2111458333333,58.22462528501735L287.92170312499996,58.231510833306984L301.63226041666667,58.23853897551734L315.34281770833337,58.24570380431356L329.053375,58.2530050336135" style="fill: none;" fill="none"></path></g><g><path stroke="rgb(187, 187, 187)" stroke-width="2px" d="M137.10557291666666,319.8481990356858L150.81613020833333,319.8492694752733L164.5266875,319.85037094404254L178.23724479166668,319.85150478582773L191.94780208333333,319.8526698569953L205.658359375,319.8538666740932L219.36891666666668,319.8550947962392L233.07947395833332,319.8563533399429L246.79003125,319.85764157788634L260.5005885416667,319.8589596375205L274.2111458333333,319.8603070402909L287.92170312499996,319.8616832621464L301.63226041666667,319.8630877384086L315.34281770833337,319.864519867987L329.053375,319.8659783733618L342.76393229166666,319.8674633285582L356.47448958333337,319.8689737243186L370.185046875,319.87050918411666L383.89560416666666,319.87206867154146L397.60616145833336,319.87365118538656L411.31671875,319.87525631708854L425.0272760416667,319.87688331920293L438.73783333333336,319.878531161796L452.44839062500006,319.88019939213103L466.15894791666665,319.8818872467302L479.86950520833335,319.8835934314398L493.5800625,319.8853175162046L507.2906197916667,319.8870590383671L521.0011770833333,319.88881698996676L534.711734375,319.89059066467667L548.4222916666666,319.89237936695343L562.1328489583334,319.8941819014627L575.8434062499999,319.8959981628862L589.5539635416667,319.8978274931921L603.2645208333333,319.8996689989561L616.975078125,319.9015223358439L630.6856354166667,319.9033863960701L644.3961927083334,319.90526089486264L658.10675,319.9071452875708L671.8173072916667,319.90903904828514L685.5278645833333,319.91094167022146L699.238421875,319.91285266595855L712.9489791666667,319.91477131952746L726.6595364583334,319.9166972059039L740.37009375,319.91863016433336L754.0806510416667,319.92056953371133L767.7912083333333,319.92251494224763L781.501765625,319.92446603479937L795.2123229166667,319.9264222265241L808.9228802083333,319.9283834636049L822.6334375,319.93034943723893L836.3439947916667,319.9323198542752L850.0545520833334,319.93429443677053L863.7651093750001,319.93627243106323L877.4756666666667,319.9382538782026L891.1862239583332,319.9402388062103L904.8967812500001,319.94222674240467L918.6073385416666,319.9442174944947L932.3178958333333,319.9462108807343L946.0284531249999,319.9482064849671L959.7390104166667,319.950204167614L973.4495677083333,319.95220404084364L987.160125,319.9542059573273L1000.8706822916666,319.95620953434985L1014.5812395833334,319.95821490837744L1028.291796875,319.9602214671332L1042.0023541666667,319.9622293829481L1055.7129114583333,319.9642385652844L1069.42346875,319.96624892896335L1083.1340260416666,319.96826039392624L1096.8445833333333,319.970272884996L1110.5551406250001,319.97228584365234L1124.2656979166668,319.9742997357791L1137.9762552083334,319.9763142515192L1151.6868124999999,319.97832935130276L1165.3973697916667,319.98034524155156L1179.1079270833334,319.9823611331323L1192.818484375,319.9843775262765L1206.5290416666667,319.98639438722495L1220.2395989583333,319.9884116842396L1233.95015625,319.99042938751234L1247.6607135416666,319.99244746907345" style="fill: none;" fill="none"></path></g><g><path stroke="rgb(255, 112, 67)" stroke-width="2px" d="M137.10557291666666,319.8471781198795L150.81613020833333,319.84771263077283L164.5266875,319.8482641185632L178.23724479166668,319.84883102670966L191.94780208333333,319.8494142029376L205.658359375,319.85001218944694L219.36891666666668,319.8506256995448L233.07947395833332,319.8512550224682L246.79003125,319.8518993937141L260.5005885416667,319.8525586227076L274.2111458333333,319.8532328621831L287.92170312499996,319.85392141439354L301.63226041666667,319.8546240194702L315.34281770833337,319.85534072544107L329.053375,319.8560708446806L342.76393229166666,319.8568140643649L356.47448958333337,319.8575700547879L370.185046875,319.85833817398293L383.89560416666666,319.8591184034773L397.60616145833336,319.85991037334367L411.31671875,319.8607137077818L425.0272760416667,319.86152802676327L438.73783333333336,319.862352947601L452.44839062500006,319.8631880864403L466.15894791666665,319.8640330596665L479.86950520833335,319.8648874852252L493.5800625,319.8657509838524L507.2906197916667,319.8666231802106L521.0011770833333,319.8675031826638L534.711734375,319.86839120111773L548.4222916666666,319.86928687194654L562.1328489583334,319.870189839804L575.8434062499999,319.8710997581738L589.5539635416667,319.8720160358433L603.2645208333333,319.8729386240283L616.975078125,319.8738672027449L630.6856354166667,319.87480121123934L644.3961927083334,319.87574062630995L658.10675,319.87668490784085L671.8173072916667,319.8776338011659L685.5278645833333,319.878587060272L699.238421875,319.879544696479L712.9489791666667,319.880506210046L726.6595364583334,319.88147163183754L740.37009375,319.8824404833987L754.0806510416667,319.8834125679381L767.7912083333333,319.88438794392016L781.501765625,319.88536616232267L795.2123229166667,319.8863470540169L808.9228802083333,319.8873307038365L822.6334375,319.88831669013524L836.3439947916667,319.88930462394865L850.0545520833334,319.8902946370931L863.7651093750001,319.89128659844033L877.4756666666667,319.89228062901003L891.1862239583332,319.89327634415656L904.8967812500001,319.8942736352179L918.6073385416666,319.8952723996317L932.3178958333333,319.89627254069114L946.0284531249999,319.897273967299L959.7390104166667,319.89827659372173L973.4495677083333,319.8992803393448L987.160125,319.9002848840694L1000.8706822916666,319.9012901789601L1014.5812395833334,319.90229642171187L1028.291796875,319.9033035459874L1042.0023541666667,319.9043114897604L1055.7129114583333,319.90532019507L1069.42346875,319.9063296077851L1083.1340260416666,319.90733943332793L1096.8445833333333,319.90834989063507L1110.5551406250001,319.9093609337633L1124.2656979166668,319.9103725199408L1137.9762552083334,319.91138412147126L1151.6868124999999,319.91239623321474L1165.3973697916667,319.9134085728672L1179.1079270833334,319.91442137071397L1192.818484375,319.9154343478853L1206.5290416666667,319.91644773783383L1220.2395989583333,319.9174612647405L1233.95015625,319.91847516486985L1247.6607135416666,319.91948916510125L1261.3712708333335,319.9205035041849L1275.0818281250001,319.9215179113786L1288.7923854166668,319.92253238382114L1302.5029427083332,319.92354691861505L1316.2135,319.9245615128563L1329.9240572916667,319.92557616365883L1343.6346145833334,319.92659086817474L1357.345171875,319.9276058673811L1371.0557291666667,319.9286208928345L1384.7662864583333,319.92963594386475L1398.47684375,319.9306510197099L1412.1874010416666,319.9316661195378L1425.8979583333335,319.93268124246526L1439.608515625,319.93369638757383L1453.3190729166668,319.9347113101774L1467.0296302083334,319.9357262750129L1480.7401875,319.9367412791532L1494.4507447916667,319.93775631985625" style="fill: none;" fill="none"></path></g><g><path stroke="rgb(0, 153, 136)" stroke-width="2px" d="M137.10557291666666,319.8471781198795L150.81613020833333,319.84771263077283L164.5266875,319.8482641185632L178.23724479166668,319.84883102670966L191.94780208333333,319.8494142029376L205.658359375,319.85001218944694L219.36891666666668,319.8506256995448L233.07947395833332,319.8512550224682L246.79003125,319.8518993937141L260.5005885416667,319.8525586227076L274.2111458333333,319.8532328621831L287.92170312499996,319.85392141439354L301.63226041666667,319.8546240194702L315.34281770833337,319.85534072544107L329.053375,319.8560708446806L342.76393229166666,319.8568140643649L356.47448958333337,319.8575700547879L370.185046875,319.85833817398293L383.89560416666666,319.8591184034773L397.60616145833336,319.85991037334367L411.31671875,319.8607137077818L425.0272760416667,319.86152802676327L438.73783333333336,319.862352947601L452.44839062500006,319.8631880864403L466.15894791666665,319.8640330596665L479.86950520833335,319.8648874852252L493.5800625,319.8657509838524L507.2906197916667,319.8666231802106L521.0011770833333,319.8675031826638L534.711734375,319.86839120111773L548.4222916666666,319.86928687194654L562.1328489583334,319.870189839804L575.8434062499999,319.8710997581738L589.5539635416667,319.8720160358433L603.2645208333333,319.8729386240283L616.975078125,319.8738672027449L630.6856354166667,319.87480121123934L644.3961927083334,319.87574062630995L658.10675,319.87668490784085L671.8173072916667,319.8776338011659L685.5278645833333,319.878587060272L699.238421875,319.879544696479L712.9489791666667,319.880506210046L726.6595364583334,319.88147163183754L740.37009375,319.8824404833987L754.0806510416667,319.8834125679381L767.7912083333333,319.88438794392016L781.501765625,319.88536616232267L795.2123229166667,319.8863470540169L808.9228802083333,319.8873307038365L822.6334375,319.88831669013524L836.3439947916667,319.88930462394865L850.0545520833334,319.8902946370931L863.7651093750001,319.89128659844033L877.4756666666667,319.89228062901003L891.1862239583332,319.89327634415656L904.8967812500001,319.8942736352179L918.6073385416666,319.8952723996317L932.3178958333333,319.89627254069114L946.0284531249999,319.897273967299L959.7390104166667,319.89827659372173L973.4495677083333,319.8992803393448L987.160125,319.9002848840694L1000.8706822916666,319.9012901789601L1014.5812395833334,319.90229642171187L1028.291796875,319.9033035459874L1042.0023541666667,319.9043114897604L1055.7129114583333,319.90532019507L1069.42346875,319.9063296077851L1083.1340260416666,319.90733943332793L1096.8445833333333,319.90834989063507L1110.5551406250001,319.9093609337633L1124.2656979166668,319.9103725199408L1137.9762552083334,319.91138412147126L1151.6868124999999,319.91239623321474L1165.3973697916667,319.9134085728672L1179.1079270833334,319.91442137071397L1192.818484375,319.9154343478853L1206.5290416666667,319.91644773783383L1220.2395989583333,319.9174612647405L1233.95015625,319.91847516486985L1247.6607135416666,319.91948916510125L1261.3712708333335,319.9205035041849L1275.0818281250001,319.9215179113786L1288.7923854166668,319.92253238382114L1302.5029427083332,319.92354691861505L1316.2135,319.9245615128563L1329.9240572916667,319.92557616365883L1343.6346145833334,319.92659086817474L1357.345171875,319.9276058673811L1371.0557291666667,319.9286208928345L1384.7662864583333,319.92963594386475L1398.47684375,319.9306510197099L1412.1874010416666,319.9316661195378L1425.8979583333335,319.93268124246526L1439.608515625,319.93369638757383L1453.3190729166668,319.9347113101774L1467.0296302083334,319.9357262750129L1480.7401875,319.9367412791532L1494.4507447916667,319.93775631985625" style="fill: none;" fill="none"></path></g><g><path stroke="rgb(51, 187, 238)" stroke-width="2px" d="M137.10557291666666,319.8471781198795L150.81613020833333,319.84771263077283L164.5266875,319.8482641185632L178.23724479166668,319.84883102670966L191.94780208333333,319.8494142029376L205.658359375,319.85001218944694L219.36891666666668,319.8506256995448L233.07947395833332,319.8512550224682L246.79003125,319.8518993937141L260.5005885416667,319.8525586227076L274.2111458333333,319.8532328621831L287.92170312499996,319.85392141439354L301.63226041666667,319.8546240194702L315.34281770833337,319.85534072544107L329.053375,319.8560708446806L342.76393229166666,319.8568140643649L356.47448958333337,319.8575700547879L370.185046875,319.85833817398293L383.89560416666666,319.8591184034773L397.60616145833336,319.85991037334367L411.31671875,319.8607137077818L425.0272760416667,319.86152802676327L438.73783333333336,319.862352947601L452.44839062500006,319.8631880864403L466.15894791666665,319.8640330596665L479.86950520833335,319.8648874852252" style="fill: none;" fill="none"></path></g><g><path stroke="rgb(238, 51, 119)" stroke-width="2px" d="M137.10557291666666,319.8481990356858L150.81613020833333,319.8492694752733L164.5266875,319.85037094404254L178.23724479166668,319.85150478582773L191.94780208333333,319.8526698569953L205.658359375,319.8538666740932L219.36891666666668,319.8550947962392L233.07947395833332,319.8563533399429L246.79003125,319.85764157788634L260.5005885416667,319.8589596375205L274.2111458333333,319.8603070402909L287.92170312499996,319.8616832621464L301.63226041666667,319.8630877384086L315.34281770833337,319.864519867987L329.053375,319.8659783733618L342.76393229166666,319.8674633285582L356.47448958333337,319.8689737243186L370.185046875,319.87050918411666L383.89560416666666,319.87206867154146L397.60616145833336,319.87365118538656L411.31671875,319.87525631708854L425.0272760416667,319.87688331920293L438.73783333333336,319.878531161796L452.44839062500006,319.88019939213103L466.15894791666665,319.8818872467302L479.86950520833335,319.8835934314398L493.5800625,319.8853175162046L507.2906197916667,319.8870590383671L521.0011770833333,319.88881698996676L534.711734375,319.89059066467667L548.4222916666666,319.89237936695343L562.1328489583334,319.8941819014627L575.8434062499999,319.8959981628862L589.5539635416667,319.8978274931921L603.2645208333333,319.8996689989561L616.975078125,319.9015223358439L630.6856354166667,319.9033863960701L644.3961927083334,319.90526089486264L658.10675,319.9071452875708L671.8173072916667,319.90903904828514L685.5278645833333,319.91094167022146L699.238421875,319.91285266595855L712.9489791666667,319.91477131952746L726.6595364583334,319.9166972059039L740.37009375,319.91863016433336L754.0806510416667,319.92056953371133L767.7912083333333,319.92251494224763L781.501765625,319.92446603479937L795.2123229166667,319.9264222265241L808.9228802083333,319.9283834636049L822.6334375,319.93034943723893L836.3439947916667,319.9323198542752L850.0545520833334,319.93429443677053L863.7651093750001,319.93627243106323L877.4756666666667,319.9382538782026L891.1862239583332,319.9402388062103L904.8967812500001,319.94222674240467L918.6073385416666,319.9442174944947L932.3178958333333,319.9462108807343L946.0284531249999,319.9482064849671L959.7390104166667,319.950204167614L973.4495677083333,319.95220404084364L987.160125,319.9542059573273L1000.8706822916666,319.95620953434985L1014.5812395833334,319.95821490837744L1028.291796875,319.9602214671332L1042.0023541666667,319.9622293829481L1055.7129114583333,319.9642385652844L1069.42346875,319.96624892896335L1083.1340260416666,319.96826039392624L1096.8445833333333,319.970272884996L1110.5551406250001,319.97228584365234L1124.2656979166668,319.9742997357791L1137.9762552083334,319.9763142515192L1151.6868124999999,319.97832935130276L1165.3973697916667,319.98034524155156L1179.1079270833334,319.9823611331323L1192.818484375,319.9843775262765L1206.5290416666667,319.98639438722495L1220.2395989583333,319.9884116842396L1233.95015625,319.99042938751234L1247.6607135416666,319.99244746907345L1261.3712708333335,319.99446541506745L1275.0818281250001,319.99648348867896L1288.7923854166668,319.99850192872657L1302.5029427083332,320.00052046433575L1316.2135,320.00253909229536L1329.9240572916667,320.00455780919845L1343.6346145833334,320.0065761239533L1357.345171875,320.00859456438474L1371.0557291666667,320.01061312287527L1384.7662864583333,320.0126315483997L1398.47684375,320.01465009975334L1412.1874010416666,320.01666828088605L1425.8979583333335,320.01868637142036L1439.608515625,320.020704381822L1453.3190729166668,320.02272256515204L1467.0296302083334,320.02474066401044L1480.7401875,320.02675844400005L1494.4507447916667,320.02877593540956" style="fill: none;" fill="none"></path></g><g><path stroke="rgb(204, 51, 17)" stroke-width="2px" d="M137.10557291666666,319.8471781198795L150.81613020833333,319.84771263077283L164.5266875,319.8482641185632L178.23724479166668,319.84883102670966L191.94780208333333,319.8494142029376L205.658359375,319.85001218944694L219.36891666666668,319.8506256995448L233.07947395833332,319.8512550224682L246.79003125,319.8518993937141L260.5005885416667,319.8525586227076L274.2111458333333,319.8532328621831L287.92170312499996,319.85392141439354L301.63226041666667,319.8546240194702L315.34281770833337,319.85534072544107L329.053375,319.8560708446806L342.76393229166666,319.8568140643649L356.47448958333337,319.8575700547879L370.185046875,319.85833817398293L383.89560416666666,319.8591184034773L397.60616145833336,319.85991037334367L411.31671875,319.8607137077818L425.0272760416667,319.86152802676327L438.73783333333336,319.862352947601L452.44839062500006,319.8631880864403L466.15894791666665,319.8640330596665L479.86950520833335,319.8648874852252L493.5800625,319.8657509838524L507.2906197916667,319.8666231802106L521.0011770833333,319.8675031826638L534.711734375,319.86839120111773L548.4222916666666,319.86928687194654L562.1328489583334,319.870189839804L575.8434062499999,319.8710997581738L589.5539635416667,319.8720160358433L603.2645208333333,319.8729386240283L616.975078125,319.8738672027449L630.6856354166667,319.87480121123934L644.3961927083334,319.87574062630995L658.10675,319.87668490784085L671.8173072916667,319.8776338011659L685.5278645833333,319.878587060272L699.238421875,319.879544696479L712.9489791666667,319.880506210046L726.6595364583334,319.88147163183754L740.37009375,319.8824404833987L754.0806510416667,319.8834125679381L767.7912083333333,319.88438794392016L781.501765625,319.88536616232267L795.2123229166667,319.8863470540169L808.9228802083333,319.8873307038365L822.6334375,319.88831669013524L836.3439947916667,319.88930462394865L850.0545520833334,319.8902946370931L863.7651093750001,319.89128659844033L877.4756666666667,319.89228062901003L891.1862239583332,319.89327634415656L904.8967812500001,319.8942736352179L918.6073385416666,319.8952723996317L932.3178958333333,319.89627254069114L946.0284531249999,319.897273967299L959.7390104166667,319.89827659372173L973.4495677083333,319.8992803393448L987.160125,319.9002848840694L1000.8706822916666,319.9012901789601L1014.5812395833334,319.90229642171187L1028.291796875,319.9033035459874L1042.0023541666667,319.9043114897604L1055.7129114583333,319.90532019507L1069.42346875,319.9063296077851L1083.1340260416666,319.90733943332793L1096.8445833333333,319.90834989063507L1110.5551406250001,319.9093609337633L1124.2656979166668,319.9103725199408L1137.9762552083334,319.91138412147126L1151.6868124999999,319.91239623321474L1165.3973697916667,319.9134085728672L1179.1079270833334,319.91442137071397L1192.818484375,319.9154343478853L1206.5290416666667,319.91644773783383L1220.2395989583333,319.9174612647405L1233.95015625,319.91847516486985L1247.6607135416666,319.91948916510125L1261.3712708333335,319.9205035041849L1275.0818281250001,319.9215179113786L1288.7923854166668,319.92253238382114L1302.5029427083332,319.92354691861505L1316.2135,319.9245615128563" style="fill: none;" fill="none"></path></g><g><path stroke="rgb(51, 187, 238)" stroke-width="2px" d="M137.10557291666666,346.0162019546215Z" style="fill: none;" fill="none"></path></g><g><path stroke="rgb(204, 51, 17)" stroke-width="2px" d="M137.10557291666666,319.8481990356858L150.81613020833333,319.8492694752733L164.5266875,319.85037094404254L178.23724479166668,319.85150478582773L191.94780208333333,319.8526698569953L205.658359375,319.8538666740932L219.36891666666668,319.8550947962392L233.07947395833332,319.8563533399429L246.79003125,319.85764157788634L260.5005885416667,319.8589596375205L274.2111458333333,319.8603070402909L287.92170312499996,319.8616832621464L301.63226041666667,319.8630877384086L315.34281770833337,319.864519867987L329.053375,319.8659783733618L342.76393229166666,319.8674633285582L356.47448958333337,319.8689737243186L370.185046875,319.87050918411666L383.89560416666666,319.87206867154146L397.60616145833336,319.87365118538656L411.31671875,319.87525631708854L425.0272760416667,319.87688331920293L438.73783333333336,319.878531161796L452.44839062500006,319.88019939213103L466.15894791666665,319.8818872467302L479.86950520833335,319.8835934314398" style="fill: none;" fill="none"></path></g><g><path stroke="rgb(255, 112, 67)" stroke-width="2px" d="M137.10557291666666,319.8481990356858L150.81613020833333,319.8492694752733L164.5266875,319.85037094404254L178.23724479166668,319.85150478582773L191.94780208333333,319.8526698569953L205.658359375,319.8538666740932L219.36891666666668,319.8550947962392" style="fill: none;" fill="none"></path></g></g></g></g><g opacity="0.2"><g><g><g><path stroke="rgb(255, 112, 67)" stroke-width="2px" d="M137.10557291666666,59.45645456589189L150.81613020833333,60.74741208094819L164.5266875,62.02693100617483L178.23724479166668,63.29514132554716L191.94780208333333,64.5521946870364L205.658359375,65.79819941062196L219.36891666666668,67.03337213626278L233.07947395833332,68.25779951994238L246.79003125,69.47163320963202L260.5005885416667,70.675003189307L274.2111458333333,71.86806110693861L287.92170312499996,73.05093694650215L301.63226041666667,74.22376069197288L315.34281770833337,75.38661899933449L329.053375,76.53970684454993L342.76393229166666,77.68313254759863" style="fill: none;" fill="none"></path></g><g><path stroke="rgb(0, 153, 136)" stroke-width="2px" d="M137.10557291666666,59.45645456589189L150.81613020833333,60.74741208094819L164.5266875,62.02693100617483L178.23724479166668,63.29514132554716L191.94780208333333,64.5521946870364L205.658359375,65.79819941062196L219.36891666666668,67.03337213626278L233.07947395833332,68.25779951994238L246.79003125,69.47163320963202L260.5005885416667,70.675003189307L274.2111458333333,71.86806110693861L287.92170312499996,73.05093694650215" style="fill: none;" fill="none"></path></g><g><path stroke="rgb(238, 51, 119)" stroke-width="2px" d="M137.10557291666666,58.23558007753816Z" style="fill: none;" fill="none"></path></g><g><path stroke="rgb(51, 187, 238)" stroke-width="2px" d="M137.10557291666666,319.97641468735844L150.81613020833333,320.1055104388641L164.5266875,320.2334634145865L178.23724479166668,320.36028444652374L191.94780208333333,320.4859897826727L205.658359375,320.61059025503124L219.36891666666668,320.7341075275953L233.07947395833332,320.8565497243634L246.79003125,320.97793309333235L260.5005885416667,321.09826846650014L274.2111458333333,321.2175775078627L287.92170312499996,321.3358656334189L301.63226041666667,321.4531463831663L315.34281770833337,321.5694332971023L329.053375,321.68474262322366L342.76393229166666,321.7990824855291L356.47448958333337,321.91246371601636L370.185046875,322.0249052706819L383.89560416666666,322.1364152735242L397.60616145833336,322.2470018485418" style="fill: none;" fill="none"></path></g><g><path stroke="rgb(0, 119, 187)" stroke-width="2px" d="M137.10557291666666,319.97641468735844L150.81613020833333,320.1055104388641L164.5266875,320.2334634145865L178.23724479166668,320.36028444652374L191.94780208333333,320.4859897826727L205.658359375,320.61059025503124L219.36891666666668,320.7341075275953L233.07947395833332,320.8565497243634L246.79003125,320.97793309333235" style="fill: none;" fill="none"></path></g><g><path stroke="rgb(187, 187, 187)" stroke-width="2px" d="M137.10557291666666,319.97641468735844Z" style="fill: none;" fill="none"></path></g><g><path stroke="rgb(238, 51, 119)" stroke-width="2px" d="M137.10557291666666,319.97641468735844L150.81613020833333,320.1055104388641L164.5266875,320.2334634145865L178.23724479166668,320.36028444652374L191.94780208333333,320.4859897826727L205.658359375,320.61059025503124L219.36891666666668,320.7341075275953L233.07947395833332,320.8565497243634" style="fill: none;" fill="none"></path></g><g><path stroke="rgb(204, 51, 17)" stroke-width="2px" d="M137.10557291666666,346.02841063180506L150.81613020833333,346.0413200038557L164.5266875,346.05411530142794L178.23724479166668,346.06679754002164L191.94780208333333,346.07936807363654L205.658359375,346.0918280870224L219.36891666666668,346.10417961117884L233.07947395833332,346.1164240001056L246.79003125,346.1285624385525L260.5005885416667,346.1405959420193L274.2111458333333,346.1525267107555L287.92170312499996,346.1643554217612L301.63226041666667,346.1760837675359L315.34281770833337,346.1877124250795L329.053375,346.19924325614164L342.76393229166666,346.21067727622216L356.47448958333337,346.2220155008209L370.185046875,346.23325962243746L383.89560416666666,346.2444104873217L397.60616145833336,346.2554692802234L411.31671875,346.26643684739247L425.0272760416667,346.2773148813285L438.73783333333336,346.2881042282814L452.44839062500006,346.2988059037508" style="fill: none;" fill="none"></path></g><g><path stroke="rgb(187, 187, 187)" stroke-width="2px" d="M137.10557291666666,346.01558893123786L150.81613020833333,346.01579338519906L164.5266875,346.0159975006603L178.23724479166668,346.0162019546215L191.94780208333333,346.0164064085828L205.658359375,346.01661052404404L219.36891666666668,346.01681497800524L233.07947395833332,346.0170194319664L246.79003125,346.01722320892776L260.5005885416667,346.0174273243891L274.2111458333333,346.0176317783502L287.92170312499996,346.01783589381154L301.63226041666667,346.0180400092728L315.34281770833337,346.01824412473405L329.053375,346.01844790169537L342.76393229166666,346.0186520171566L356.47448958333337,346.018855794118L370.185046875,346.0190599095793L383.89560416666666,346.01926402504057L397.60616145833336,346.01946746350194L411.31671875,346.01967157896325L425.0272760416667,346.0198753559245L438.73783333333336,346.0200791328859L452.44839062500006,346.0202829098472L466.15894791666665,346.02048668680857L479.86950520833335,346.02069012526994L493.5800625,346.0208939022313L507.2906197916667,346.0210976791926L521.0011770833333,346.021301456154L534.711734375,346.0215052331153L548.4222916666666,346.0217086715767L562.1328489583334,346.0219121100381L575.8434062499999,346.0221155484995L589.5539635416667,346.0223189869609L603.2645208333333,346.0225227639222L616.975078125,346.02272620238364L630.6856354166667,346.02292930234506L644.3961927083334,346.0231327408065L658.10675,346.0233361792679L671.8173072916667,346.02353927922934L685.5278645833333,346.02374271769077L699.238421875,346.0239461561522L712.9489791666667,346.0241489176137L726.6595364583334,346.0243523560751L740.37009375,346.0245554560366L754.0806510416667,346.02475889449795L767.7912083333333,346.02496199445943L781.501765625,346.0251650944209L795.2123229166667,346.0253678558824L808.9228802083333,346.0255709558439L822.6334375,346.02577405580536L836.3439947916667,346.0259771557668L850.0545520833334,346.0261799172284L863.7651093750001,346.02638267868986L877.4756666666667,346.02658577865134L891.1862239583332,346.0267885401128L904.8967812500001,346.0269913015744L918.6073385416666,346.02719440153584L932.3178958333333,346.0273971629974L946.0284531249999,346.02759958595897L959.7390104166667,346.0278023474205L973.4495677083333,346.02800510888204L987.160125,346.0282078703436L1000.8706822916666,346.02841063180506L1014.5812395833334,346.02861339326665L1028.291796875,346.02881547772824L1042.0023541666667,346.02901823918984L1055.7129114583333,346.02922066215143L1069.42346875,346.0294234236129L1083.1340260416666,346.0296258465745" style="fill: none;" fill="none"></path></g><g><path stroke="rgb(238, 51, 119)" stroke-width="2px" d="M137.10557291666666,346.01558893123786L150.81613020833333,346.01579338519906L164.5266875,346.0159975006603L178.23724479166668,346.0162019546215L191.94780208333333,346.0164064085828L205.658359375,346.01661052404404L219.36891666666668,346.01681497800524L233.07947395833332,346.0170194319664L246.79003125,346.01722320892776L260.5005885416667,346.0174273243891L274.2111458333333,346.0176317783502L287.92170312499996,346.01783589381154" style="fill: none;" fill="none"></path></g><g><path stroke="rgb(204, 51, 17)" stroke-width="2px" d="M137.10557291666666,346.0162019546215L150.81613020833333,346.0170194319664L164.5266875,346.01783589381154L178.23724479166668,346.0186520171566L191.94780208333333,346.01946746350194L205.658359375,346.0202829098472L219.36891666666668,346.0210976791926L233.07947395833332,346.0219121100381L246.79003125,346.02272620238364L260.5005885416667,346.02353927922934L274.2111458333333,346.0243523560751L287.92170312499996,346.0251650944209L301.63226041666667,346.0259771557668L315.34281770833337,346.0267885401128" style="fill: none;" fill="none"></path></g><g><path stroke="rgb(187, 187, 187)" stroke-width="2px" d="M137.10557291666666,346.0162019546215L150.81613020833333,346.0170194319664L164.5266875,346.01783589381154L178.23724479166668,346.0186520171566L191.94780208333333,346.01946746350194" style="fill: none;" fill="none"></path></g><g><path stroke="rgb(0, 153, 136)" stroke-width="2px" d="M137.10557291666666,346.0186520171566L150.81613020833333,346.0219121100381L164.5266875,346.0251650944209L178.23724479166668,346.02841063180506L191.94780208333333,346.0316487221907L205.658359375,346.0348797040777L219.36891666666668,346.03810357746596L233.07947395833332,346.0413200038557L246.79003125,346.04452999874667L260.5005885416667,346.04773220813905L274.2111458333333,346.05092730903283L287.92170312499996,346.05411530142794L301.63226041666667,346.05729652382433L315.34281770833337,346.06047063772206L329.053375,346.0636376431212L342.76393229166666,346.06679754002164L356.47448958333337,346.06995032842343L370.185046875,346.0730963468265L383.89560416666666,346.0762355952309L397.60616145833336,346.07936807363654L411.31671875,346.0824934435435L425.0272760416667,346.0856117049519L438.73783333333336,346.08872336561143L452.44839062500006,346.0918280870224L466.15894791666665,346.0949263769345L479.86950520833335,346.09801755834803L493.5800625,346.10110196976274L507.2906197916667,346.10417961117884L521.0011770833333,346.10725065184613L534.711734375,346.1103152610147L548.4222916666666,346.11337293093453L562.1328489583334,346.1164240001056L575.8434062499999,346.11946846852794L589.5539635416667,346.1225061669516L603.2645208333333,346.12553743387645L616.975078125,346.1285624385525" style="fill: none;" fill="none"></path></g><g><path stroke="rgb(238, 51, 119)" stroke-width="2px" d="M137.10557291666666,58.17429263316672L150.81613020833333,58.19474344528642L164.5266875,58.21515092941432L178.23724479166668,58.23558007753816L191.94780208333333,58.25603088965786L205.658359375,58.27646003778166L219.36891666666668,58.2968891859055L233.07947395833332,58.317318334029295L246.79003125,58.33770415416134L260.5005885416667,58.35813330228514L274.2111458333333,58.37856245040898L287.92170312499996,58.39896993453688L301.63226041666667,58.41939908266072L315.34281770833337,58.43980656678862L329.053375,58.46017072292476L342.76393229166666,58.4805782070527L356.47448958333337,58.50098569118064L370.185046875,58.52139317530854L383.89560416666666,58.54177899544058" style="fill: none;" fill="none"></path></g><g><path stroke="rgb(204, 51, 17)" stroke-width="2px" d="M137.10557291666666,58.17429263316672L150.81613020833333,58.19474344528642L164.5266875,58.21515092941432L178.23724479166668,58.23558007753816L191.94780208333333,58.25603088965786L205.658359375,58.27646003778166L219.36891666666668,58.2968891859055L233.07947395833332,58.317318334029295L246.79003125,58.33770415416134L260.5005885416667,58.35813330228514L274.2111458333333,58.37856245040898L287.92170312499996,58.39896993453688L301.63226041666667,58.41939908266072L315.34281770833337,58.43980656678862L329.053375,58.46017072292476L342.76393229166666,58.4805782070527L356.47448958333337,58.50098569118064L370.185046875,58.52139317530854L383.89560416666666,58.54177899544058" style="fill: none;" fill="none"></path></g><g><path stroke="rgb(187, 187, 187)" stroke-width="2px" d="M137.10557291666666,58.17429263316672L150.81613020833333,58.19474344528642L164.5266875,58.21515092941432L178.23724479166668,58.23558007753816L191.94780208333333,58.25603088965786L205.658359375,58.27646003778166L219.36891666666668,58.2968891859055L233.07947395833332,58.317318334029295L246.79003125,58.33770415416134L260.5005885416667,58.35813330228514L274.2111458333333,58.37856245040898L287.92170312499996,58.39896993453688L301.63226041666667,58.41939908266072L315.34281770833337,58.43980656678862L329.053375,58.46017072292476L342.76393229166666,58.4805782070527L356.47448958333337,58.50098569118064L370.185046875,58.52139317530854L383.89560416666666,58.54177899544058L397.60616145833336,58.56214315157673L411.31671875,58.58252897170877L425.0272760416667,58.602936455836705L438.73783333333336,58.62332227596871L452.44839062500006,58.64368643210485L466.15894791666665,58.66407225223689L479.86950520833335,58.68441474437718" style="fill: none;" fill="none"></path></g><g><path stroke="rgb(0, 119, 187)" stroke-width="2px" d="M137.10557291666666,319.97641468735844L150.81613020833333,320.1055104388641L164.5266875,320.2334634145865L178.23724479166668,320.36028444652374L191.94780208333333,320.4859897826727L205.658359375,320.61059025503124L219.36891666666668,320.7341075275953L233.07947395833332,320.8565497243634L246.79003125,320.97793309333235L260.5005885416667,321.09826846650014L274.2111458333333,321.2175775078627L287.92170312499996,321.3358656334189" style="fill: none;" fill="none"></path></g><g><path stroke="rgb(204, 51, 17)" stroke-width="2px" d="M137.10557291666666,319.8481990356858L150.81613020833333,319.8502435752979L164.5266875,319.8522854069105L178.23724479166668,319.85432994652257L191.94780208333333,319.85637177813516L205.658359375,319.8584163177472L219.36891666666668,319.86046085735927L233.07947395833332,319.86250268897186L246.79003125,319.86454181258495L260.5005885416667,319.86658364419753L274.2111458333333,319.8686254758101L287.92170312499996,319.8706673074227L301.63226041666667,319.8727091390353L315.34281770833337,319.8747509706479L329.053375,319.8767873862615L342.76393229166666,319.8788292178741L356.47448958333337,319.8808683414872L370.185046875,319.8829101730998L383.89560416666666,319.8849492967129L397.60616145833336,319.88698571232646L411.31671875,319.88902483593955L425.0272760416667,319.89106395955264L438.73783333333336,319.8931003751663L452.44839062500006,319.89513949877943L466.15894791666665,319.8971786223925L479.86950520833335,319.89921233000666L493.5800625,319.90124874562025L507.2906197916667,319.90328786923334L521.0011770833333,319.9053242848469L534.711734375,319.9073607004606" style="fill: none;" fill="none"></path></g><g><path stroke="rgb(187, 187, 187)" stroke-width="2px" d="M137.10557291666666,319.8481990356858L150.81613020833333,319.8502435752979L164.5266875,319.8522854069105L178.23724479166668,319.85432994652257L191.94780208333333,319.85637177813516L205.658359375,319.8584163177472L219.36891666666668,319.86046085735927L233.07947395833332,319.86250268897186L246.79003125,319.86454181258495L260.5005885416667,319.86658364419753L274.2111458333333,319.8686254758101L287.92170312499996,319.8706673074227L301.63226041666667,319.8727091390353L315.34281770833337,319.8747509706479L329.053375,319.8767873862615L342.76393229166666,319.8788292178741" style="fill: none;" fill="none"></path></g><g><path stroke="rgb(238, 51, 119)" stroke-width="2px" d="M137.10557291666666,319.8481990356858L150.81613020833333,319.8502435752979L164.5266875,319.8522854069105L178.23724479166668,319.85432994652257L191.94780208333333,319.85637177813516L205.658359375,319.8584163177472L219.36891666666668,319.86046085735927L233.07947395833332,319.86250268897186L246.79003125,319.86454181258495L260.5005885416667,319.86658364419753L274.2111458333333,319.8686254758101L287.92170312499996,319.8706673074227L301.63226041666667,319.8727091390353L315.34281770833337,319.8747509706479L329.053375,319.8767873862615L342.76393229166666,319.8788292178741L356.47448958333337,319.8808683414872L370.185046875,319.8829101730998L383.89560416666666,319.8849492967129" style="fill: none;" fill="none"></path></g><g><path stroke="rgb(187, 187, 187)" stroke-width="2px" d="M137.10557291666666,346.01558893123786Z" style="fill: none;" fill="none"></path></g><g><path stroke="rgb(0, 119, 187)" stroke-width="2px" d="M137.10557291666666,58.164067227106834L150.81613020833333,58.17429263316672L164.5266875,58.184518039226575L178.23724479166668,58.19474344528642L191.94780208333333,58.20496885134627L205.658359375,58.21515092941432L219.36891666666668,58.225376335474174L233.07947395833332,58.23558007753816L246.79003125,58.24580548359801L260.5005885416667,58.25603088965786L274.2111458333333,58.26623463172181L287.92170312499996,58.27646003778166L301.63226041666667,58.286685443841506L315.34281770833337,58.2968891859055L329.053375,58.307114591965345" style="fill: none;" fill="none"></path></g><g><path stroke="rgb(187, 187, 187)" stroke-width="2px" d="M137.10557291666666,319.8481990356858L150.81613020833333,319.8502435752979L164.5266875,319.8522854069105L178.23724479166668,319.85432994652257L191.94780208333333,319.85637177813516L205.658359375,319.8584163177472L219.36891666666668,319.86046085735927L233.07947395833332,319.86250268897186L246.79003125,319.86454181258495L260.5005885416667,319.86658364419753L274.2111458333333,319.8686254758101L287.92170312499996,319.8706673074227L301.63226041666667,319.8727091390353L315.34281770833337,319.8747509706479L329.053375,319.8767873862615L342.76393229166666,319.8788292178741L356.47448958333337,319.8808683414872L370.185046875,319.8829101730998L383.89560416666666,319.8849492967129L397.60616145833336,319.88698571232646L411.31671875,319.88902483593955L425.0272760416667,319.89106395955264L438.73783333333336,319.8931003751663L452.44839062500006,319.89513949877943L466.15894791666665,319.8971786223925L479.86950520833335,319.89921233000666L493.5800625,319.90124874562025L507.2906197916667,319.90328786923334L521.0011770833333,319.9053242848469L534.711734375,319.9073607004606L548.4222916666666,319.9093971160742L562.1328489583334,319.91142811568886L575.8434062499999,319.91346453130245L589.5539635416667,319.91550094691604L603.2645208333333,319.9175346545302L616.975078125,319.91957107014383L630.6856354166667,319.9216020697585L644.3961927083334,319.92363577737257L658.10675,319.92566948498666L671.8173072916667,319.92770319260086L685.5278645833333,319.929736900215L699.238421875,319.9317706078291L712.9489791666667,319.9338016074437L726.6595364583334,319.9358326070584L740.37009375,319.93786631467253L754.0806510416667,319.9398973142871L767.7912083333333,319.94192831390177L781.501765625,319.9439593135165L795.2123229166667,319.94598760513156L808.9228802083333,319.9480186047462L822.6334375,319.9500496043609L836.3439947916667,319.9520806039755L850.0545520833334,319.95411160359015L863.7651093750001,319.95613718720585L877.4756666666667,319.95816547882094L891.1862239583332,319.96019647843565L904.8967812500001,319.9622247700508L918.6073385416666,319.9642530616659L932.3178958333333,319.9662813532811L946.0284531249999,319.96830693689674L959.7390104166667,319.97033252051244L973.4495677083333,319.9723608121276L987.160125,319.97438910374274L1000.8706822916666,319.97641468735844L1014.5812395833334,319.97844297897353L1028.291796875,319.9804658545898L1042.0023541666667,319.9824914382054L1055.7129114583333,319.9845170218211L1069.42346875,319.98654260543674L1083.1340260416666,319.98856818905244L1096.8445833333333,319.9905937726681L1110.5551406250001,319.9926139402848L1124.2656979166668,319.99463952390045L1137.9762552083334,319.99666239951665L1151.6868124999999,319.9986852751328L1165.3973697916667,320.0007108587485L1179.1079270833334,320.0027283183657L1192.818484375,320.0047511939819L1206.5290416666667,320.00677406959807L1220.2395989583333,320.00879694521427L1233.95015625,320.0108198208305L1247.6607135416666,320.0128426964466" style="fill: none;" fill="none"></path></g><g><path stroke="rgb(255, 112, 67)" stroke-width="2px" d="M137.10557291666666,319.8471781198795L150.81613020833333,319.8481990356858L164.5266875,319.8492226594916L178.23724479166668,319.8502435752979L191.94780208333333,319.8512671991037L205.658359375,319.8522854069105L219.36891666666668,319.8533063227168L233.07947395833332,319.85432994652257L246.79003125,319.85535086232886L260.5005885416667,319.85637177813516L274.2111458333333,319.8573954019409L287.92170312499996,319.8584163177472L301.63226041666667,319.8594372335535L315.34281770833337,319.86046085735927L329.053375,319.86148177316556L342.76393229166666,319.86250268897186L356.47448958333337,319.86352360477815L370.185046875,319.86454181258495L383.89560416666666,319.86556272839124L397.60616145833336,319.86658364419753L411.31671875,319.8676045600038L425.0272760416667,319.8686254758101L438.73783333333336,319.8696463916164L452.44839062500006,319.8706673074227L466.15894791666665,319.871688223229L479.86950520833335,319.8727091390353L493.5800625,319.8737300548416L507.2906197916667,319.8747509706479L521.0011770833333,319.87576647045523L534.711734375,319.8767873862615L548.4222916666666,319.8778083020678L562.1328489583334,319.8788292178741L575.8434062499999,319.8798501336804L589.5539635416667,319.8808683414872L603.2645208333333,319.8818892572935L616.975078125,319.8829101730998L630.6856354166667,319.8839283809066L644.3961927083334,319.8849492967129L658.10675,319.88596750451967L671.8173072916667,319.88698571232646L685.5278645833333,319.88800392013326L699.238421875,319.88902483593955L712.9489791666667,319.89004304374635L726.6595364583334,319.89106395955264L740.37009375,319.8920821673595L754.0806510416667,319.8931003751663L767.7912083333333,319.8941212909726L781.501765625,319.89513949877943L795.2123229166667,319.8961577065862L808.9228802083333,319.8971786223925L822.6334375,319.8981968301993L836.3439947916667,319.89921233000666L850.0545520833334,319.90023053781346L863.7651093750001,319.90124874562025L877.4756666666667,319.90226966142654L891.1862239583332,319.90328786923334L904.8967812500001,319.90430607704013L918.6073385416666,319.9053242848469L932.3178958333333,319.9063424926537L946.0284531249999,319.9073607004606L959.7390104166667,319.90837890826737L973.4495677083333,319.9093971160742L987.160125,319.9104126158815L1000.8706822916666,319.91142811568886L1014.5812395833334,319.91244632349566L1028.291796875,319.91346453130245L1042.0023541666667,319.91448273910925L1055.7129114583333,319.91550094691604L1069.42346875,319.91651915472283L1083.1340260416666,319.9175346545302L1096.8445833333333,319.918552862337L1110.5551406250001,319.91957107014383L1124.2656979166668,319.9205892779506L1137.9762552083334,319.9216020697585L1151.6868124999999,319.9226202775653L1165.3973697916667,319.92363577737257L1179.1079270833334,319.92465398517936L1192.818484375,319.92566948498666L1206.5290416666667,319.9266876927935L1220.2395989583333,319.92770319260086L1233.95015625,319.92872140040765L1247.6607135416666,319.929736900215L1261.3712708333335,319.9307551080218L1275.0818281250001,319.9317706078291L1288.7923854166668,319.9327861076364L1302.5029427083332,319.9338016074437L1316.2135,319.93481710725104L1329.9240572916667,319.9358326070584L1343.6346145833334,319.93684810686574L1357.345171875,319.93786631467253L1371.0557291666667,319.9388818144798L1384.7662864583333,319.9398973142871L1398.47684375,319.9409128140944L1412.1874010416666,319.94192831390177L1425.8979583333335,319.9429438137091L1439.608515625,319.9439593135165L1453.3190729166668,319.94497210532427L1467.0296302083334,319.94598760513156L1480.7401875,319.94700310493886L1494.4507447916667,319.9480186047462" style="fill: none;" fill="none"></path></g><g><path stroke="rgb(0, 153, 136)" stroke-width="2px" d="M137.10557291666666,319.8471781198795L150.81613020833333,319.8481990356858L164.5266875,319.8492226594916L178.23724479166668,319.8502435752979L191.94780208333333,319.8512671991037L205.658359375,319.8522854069105L219.36891666666668,319.8533063227168L233.07947395833332,319.85432994652257L246.79003125,319.85535086232886L260.5005885416667,319.85637177813516L274.2111458333333,319.8573954019409L287.92170312499996,319.8584163177472L301.63226041666667,319.8594372335535L315.34281770833337,319.86046085735927L329.053375,319.86148177316556L342.76393229166666,319.86250268897186L356.47448958333337,319.86352360477815L370.185046875,319.86454181258495L383.89560416666666,319.86556272839124L397.60616145833336,319.86658364419753L411.31671875,319.8676045600038L425.0272760416667,319.8686254758101L438.73783333333336,319.8696463916164L452.44839062500006,319.8706673074227L466.15894791666665,319.871688223229L479.86950520833335,319.8727091390353L493.5800625,319.8737300548416L507.2906197916667,319.8747509706479L521.0011770833333,319.87576647045523L534.711734375,319.8767873862615L548.4222916666666,319.8778083020678L562.1328489583334,319.8788292178741L575.8434062499999,319.8798501336804L589.5539635416667,319.8808683414872L603.2645208333333,319.8818892572935L616.975078125,319.8829101730998L630.6856354166667,319.8839283809066L644.3961927083334,319.8849492967129L658.10675,319.88596750451967L671.8173072916667,319.88698571232646L685.5278645833333,319.88800392013326L699.238421875,319.88902483593955L712.9489791666667,319.89004304374635L726.6595364583334,319.89106395955264L740.37009375,319.8920821673595L754.0806510416667,319.8931003751663L767.7912083333333,319.8941212909726L781.501765625,319.89513949877943L795.2123229166667,319.8961577065862L808.9228802083333,319.8971786223925L822.6334375,319.8981968301993L836.3439947916667,319.89921233000666L850.0545520833334,319.90023053781346L863.7651093750001,319.90124874562025L877.4756666666667,319.90226966142654L891.1862239583332,319.90328786923334L904.8967812500001,319.90430607704013L918.6073385416666,319.9053242848469L932.3178958333333,319.9063424926537L946.0284531249999,319.9073607004606L959.7390104166667,319.90837890826737L973.4495677083333,319.9093971160742L987.160125,319.9104126158815L1000.8706822916666,319.91142811568886L1014.5812395833334,319.91244632349566L1028.291796875,319.91346453130245L1042.0023541666667,319.91448273910925L1055.7129114583333,319.91550094691604L1069.42346875,319.91651915472283L1083.1340260416666,319.9175346545302L1096.8445833333333,319.918552862337L1110.5551406250001,319.91957107014383L1124.2656979166668,319.9205892779506L1137.9762552083334,319.9216020697585L1151.6868124999999,319.9226202775653L1165.3973697916667,319.92363577737257L1179.1079270833334,319.92465398517936L1192.818484375,319.92566948498666L1206.5290416666667,319.9266876927935L1220.2395989583333,319.92770319260086L1233.95015625,319.92872140040765L1247.6607135416666,319.929736900215L1261.3712708333335,319.9307551080218L1275.0818281250001,319.9317706078291L1288.7923854166668,319.9327861076364L1302.5029427083332,319.9338016074437L1316.2135,319.93481710725104L1329.9240572916667,319.9358326070584L1343.6346145833334,319.93684810686574L1357.345171875,319.93786631467253L1371.0557291666667,319.9388818144798L1384.7662864583333,319.9398973142871L1398.47684375,319.9409128140944L1412.1874010416666,319.94192831390177L1425.8979583333335,319.9429438137091L1439.608515625,319.9439593135165L1453.3190729166668,319.94497210532427L1467.0296302083334,319.94598760513156L1480.7401875,319.94700310493886L1494.4507447916667,319.9480186047462" style="fill: none;" fill="none"></path></g><g><path stroke="rgb(51, 187, 238)" stroke-width="2px" d="M137.10557291666666,319.8471781198795L150.81613020833333,319.8481990356858L164.5266875,319.8492226594916L178.23724479166668,319.8502435752979L191.94780208333333,319.8512671991037L205.658359375,319.8522854069105L219.36891666666668,319.8533063227168L233.07947395833332,319.85432994652257L246.79003125,319.85535086232886L260.5005885416667,319.85637177813516L274.2111458333333,319.8573954019409L287.92170312499996,319.8584163177472L301.63226041666667,319.8594372335535L315.34281770833337,319.86046085735927L329.053375,319.86148177316556L342.76393229166666,319.86250268897186L356.47448958333337,319.86352360477815L370.185046875,319.86454181258495L383.89560416666666,319.86556272839124L397.60616145833336,319.86658364419753L411.31671875,319.8676045600038L425.0272760416667,319.8686254758101L438.73783333333336,319.8696463916164L452.44839062500006,319.8706673074227L466.15894791666665,319.871688223229L479.86950520833335,319.8727091390353" style="fill: none;" fill="none"></path></g><g><path stroke="rgb(238, 51, 119)" stroke-width="2px" d="M137.10557291666666,319.8481990356858L150.81613020833333,319.8502435752979L164.5266875,319.8522854069105L178.23724479166668,319.85432994652257L191.94780208333333,319.85637177813516L205.658359375,319.8584163177472L219.36891666666668,319.86046085735927L233.07947395833332,319.86250268897186L246.79003125,319.86454181258495L260.5005885416667,319.86658364419753L274.2111458333333,319.8686254758101L287.92170312499996,319.8706673074227L301.63226041666667,319.8727091390353L315.34281770833337,319.8747509706479L329.053375,319.8767873862615L342.76393229166666,319.8788292178741L356.47448958333337,319.8808683414872L370.185046875,319.8829101730998L383.89560416666666,319.8849492967129L397.60616145833336,319.88698571232646L411.31671875,319.88902483593955L425.0272760416667,319.89106395955264L438.73783333333336,319.8931003751663L452.44839062500006,319.89513949877943L466.15894791666665,319.8971786223925L479.86950520833335,319.89921233000666L493.5800625,319.90124874562025L507.2906197916667,319.90328786923334L521.0011770833333,319.9053242848469L534.711734375,319.9073607004606L548.4222916666666,319.9093971160742L562.1328489583334,319.91142811568886L575.8434062499999,319.91346453130245L589.5539635416667,319.91550094691604L603.2645208333333,319.9175346545302L616.975078125,319.91957107014383L630.6856354166667,319.9216020697585L644.3961927083334,319.92363577737257L658.10675,319.92566948498666L671.8173072916667,319.92770319260086L685.5278645833333,319.929736900215L699.238421875,319.9317706078291L712.9489791666667,319.9338016074437L726.6595364583334,319.9358326070584L740.37009375,319.93786631467253L754.0806510416667,319.9398973142871L767.7912083333333,319.94192831390177L781.501765625,319.9439593135165L795.2123229166667,319.94598760513156L808.9228802083333,319.9480186047462L822.6334375,319.9500496043609L836.3439947916667,319.9520806039755L850.0545520833334,319.95411160359015L863.7651093750001,319.95613718720585L877.4756666666667,319.95816547882094L891.1862239583332,319.96019647843565L904.8967812500001,319.9622247700508L918.6073385416666,319.9642530616659L932.3178958333333,319.9662813532811L946.0284531249999,319.96830693689674L959.7390104166667,319.97033252051244L973.4495677083333,319.9723608121276L987.160125,319.97438910374274L1000.8706822916666,319.97641468735844L1014.5812395833334,319.97844297897353L1028.291796875,319.9804658545898L1042.0023541666667,319.9824914382054L1055.7129114583333,319.9845170218211L1069.42346875,319.98654260543674L1083.1340260416666,319.98856818905244L1096.8445833333333,319.9905937726681L1110.5551406250001,319.9926139402848L1124.2656979166668,319.99463952390045L1137.9762552083334,319.99666239951665L1151.6868124999999,319.9986852751328L1165.3973697916667,320.0007108587485L1179.1079270833334,320.0027283183657L1192.818484375,320.0047511939819L1206.5290416666667,320.00677406959807L1220.2395989583333,320.00879694521427L1233.95015625,320.0108198208305L1247.6607135416666,320.0128426964466L1261.3712708333335,320.0148601560639L1275.0818281250001,320.01688032368054L1288.7923854166668,320.01890319929674L1302.5029427083332,320.02092336691345L1316.2135,320.0229435345301L1329.9240572916667,320.02496370214686L1343.6346145833334,320.02697845376457L1357.345171875,320.0289986213812L1371.0557291666667,320.031018788998L1384.7662864583333,320.03303624861513L1398.47684375,320.03505641623184L1412.1874010416666,320.0370711678496L1425.8979583333335,320.0390886274668L1439.608515625,320.04110608708396L1453.3190729166668,320.0431262547007L1467.0296302083334,320.04514371431793L1480.7401875,320.0471584659356L1494.4507447916667,320.04917321755335" style="fill: none;" fill="none"></path></g><g><path stroke="rgb(204, 51, 17)" stroke-width="2px" d="M137.10557291666666,319.8471781198795L150.81613020833333,319.8481990356858L164.5266875,319.8492226594916L178.23724479166668,319.8502435752979L191.94780208333333,319.8512671991037L205.658359375,319.8522854069105L219.36891666666668,319.8533063227168L233.07947395833332,319.85432994652257L246.79003125,319.85535086232886L260.5005885416667,319.85637177813516L274.2111458333333,319.8573954019409L287.92170312499996,319.8584163177472L301.63226041666667,319.8594372335535L315.34281770833337,319.86046085735927L329.053375,319.86148177316556L342.76393229166666,319.86250268897186L356.47448958333337,319.86352360477815L370.185046875,319.86454181258495L383.89560416666666,319.86556272839124L397.60616145833336,319.86658364419753L411.31671875,319.8676045600038L425.0272760416667,319.8686254758101L438.73783333333336,319.8696463916164L452.44839062500006,319.8706673074227L466.15894791666665,319.871688223229L479.86950520833335,319.8727091390353L493.5800625,319.8737300548416L507.2906197916667,319.8747509706479L521.0011770833333,319.87576647045523L534.711734375,319.8767873862615L548.4222916666666,319.8778083020678L562.1328489583334,319.8788292178741L575.8434062499999,319.8798501336804L589.5539635416667,319.8808683414872L603.2645208333333,319.8818892572935L616.975078125,319.8829101730998L630.6856354166667,319.8839283809066L644.3961927083334,319.8849492967129L658.10675,319.88596750451967L671.8173072916667,319.88698571232646L685.5278645833333,319.88800392013326L699.238421875,319.88902483593955L712.9489791666667,319.89004304374635L726.6595364583334,319.89106395955264L740.37009375,319.8920821673595L754.0806510416667,319.8931003751663L767.7912083333333,319.8941212909726L781.501765625,319.89513949877943L795.2123229166667,319.8961577065862L808.9228802083333,319.8971786223925L822.6334375,319.8981968301993L836.3439947916667,319.89921233000666L850.0545520833334,319.90023053781346L863.7651093750001,319.90124874562025L877.4756666666667,319.90226966142654L891.1862239583332,319.90328786923334L904.8967812500001,319.90430607704013L918.6073385416666,319.9053242848469L932.3178958333333,319.9063424926537L946.0284531249999,319.9073607004606L959.7390104166667,319.90837890826737L973.4495677083333,319.9093971160742L987.160125,319.9104126158815L1000.8706822916666,319.91142811568886L1014.5812395833334,319.91244632349566L1028.291796875,319.91346453130245L1042.0023541666667,319.91448273910925L1055.7129114583333,319.91550094691604L1069.42346875,319.91651915472283L1083.1340260416666,319.9175346545302L1096.8445833333333,319.918552862337L1110.5551406250001,319.91957107014383L1124.2656979166668,319.9205892779506L1137.9762552083334,319.9216020697585L1151.6868124999999,319.9226202775653L1165.3973697916667,319.92363577737257L1179.1079270833334,319.92465398517936L1192.818484375,319.92566948498666L1206.5290416666667,319.9266876927935L1220.2395989583333,319.92770319260086L1233.95015625,319.92872140040765L1247.6607135416666,319.929736900215L1261.3712708333335,319.9307551080218L1275.0818281250001,319.9317706078291L1288.7923854166668,319.9327861076364L1302.5029427083332,319.9338016074437L1316.2135,319.93481710725104" style="fill: none;" fill="none"></path></g><g><path stroke="rgb(51, 187, 238)" stroke-width="2px" d="M137.10557291666666,346.0162019546215Z" style="fill: none;" fill="none"></path></g><g><path stroke="rgb(204, 51, 17)" stroke-width="2px" d="M137.10557291666666,319.8481990356858L150.81613020833333,319.8502435752979L164.5266875,319.8522854069105L178.23724479166668,319.85432994652257L191.94780208333333,319.85637177813516L205.658359375,319.8584163177472L219.36891666666668,319.86046085735927L233.07947395833332,319.86250268897186L246.79003125,319.86454181258495L260.5005885416667,319.86658364419753L274.2111458333333,319.8686254758101L287.92170312499996,319.8706673074227L301.63226041666667,319.8727091390353L315.34281770833337,319.8747509706479L329.053375,319.8767873862615L342.76393229166666,319.8788292178741L356.47448958333337,319.8808683414872L370.185046875,319.8829101730998L383.89560416666666,319.8849492967129L397.60616145833336,319.88698571232646L411.31671875,319.88902483593955L425.0272760416667,319.89106395955264L438.73783333333336,319.8931003751663L452.44839062500006,319.89513949877943L466.15894791666665,319.8971786223925L479.86950520833335,319.89921233000666" style="fill: none;" fill="none"></path></g><g><path stroke="rgb(255, 112, 67)" stroke-width="2px" d="M137.10557291666666,319.8481990356858L150.81613020833333,319.8502435752979L164.5266875,319.8522854069105L178.23724479166668,319.85432994652257L191.94780208333333,319.85637177813516L205.658359375,319.8584163177472L219.36891666666668,319.86046085735927" style="fill: none;" fill="none"></path></g></g></g></g></g></g><g transform="translate(61, 378)" clip-path="url(#clip_1)"><clipPath id="clip_1"><rect width="1645" height="21"></rect></clipPath><g><g><line x1="0" y1="0" x2="0" y2="5" style="visibility: inherit;" fill="rgb(0, 0, 0)" stroke="rgb(204, 204, 204)" stroke-width="1px"></line><line x1="137.10557291666666" y1="0" x2="137.10557291666666" y2="5" style="visibility: inherit;" fill="rgb(0, 0, 0)" stroke="rgb(204, 204, 204)" stroke-width="1px"></line><line x1="274.2111458333333" y1="0" x2="274.2111458333333" y2="5" style="visibility: inherit;" fill="rgb(0, 0, 0)" stroke="rgb(204, 204, 204)" stroke-width="1px"></line><line x1="411.31671875" y1="0" x2="411.31671875" y2="5" style="visibility: inherit;" fill="rgb(0, 0, 0)" stroke="rgb(204, 204, 204)" stroke-width="1px"></line><line x1="548.4222916666666" y1="0" x2="548.4222916666666" y2="5" style="visibility: inherit;" fill="rgb(0, 0, 0)" stroke="rgb(204, 204, 204)" stroke-width="1px"></line><line x1="685.5278645833333" y1="0" x2="685.5278645833333" y2="5" style="visibility: inherit;" fill="rgb(0, 0, 0)" stroke="rgb(204, 204, 204)" stroke-width="1px"></line><line x1="822.6334375" y1="0" x2="822.6334375" y2="5" style="visibility: inherit;" fill="rgb(0, 0, 0)" stroke="rgb(204, 204, 204)" stroke-width="1px"></line><line x1="959.7390104166667" y1="0" x2="959.7390104166667" y2="5" style="visibility: inherit;" fill="rgb(0, 0, 0)" stroke="rgb(204, 204, 204)" stroke-width="1px"></line><line x1="1096.8445833333333" y1="0" x2="1096.8445833333333" y2="5" style="visibility: inherit;" fill="rgb(0, 0, 0)" stroke="rgb(204, 204, 204)" stroke-width="1px"></line><line x1="1233.95015625" y1="0" x2="1233.95015625" y2="5" style="visibility: inherit;" fill="rgb(0, 0, 0)" stroke="rgb(204, 204, 204)" stroke-width="1px"></line><line x1="1371.0557291666667" y1="0" x2="1371.0557291666667" y2="5" style="visibility: inherit;" fill="rgb(0, 0, 0)" stroke="rgb(204, 204, 204)" stroke-width="1px"></line><line x1="1508.1613020833333" y1="0" x2="1508.1613020833333" y2="5" style="visibility: inherit;" fill="rgb(0, 0, 0)" stroke="rgb(204, 204, 204)" stroke-width="1px"></line><line x1="1645.266875" y1="0" x2="1645.266875" y2="5" style="visibility: inherit;" fill="rgb(0, 0, 0)" stroke="rgb(204, 204, 204)" stroke-width="1px"></line></g><g transform="translate(0, 8)"><text x="0" y="0" dx="0em" dy="0.95em" style="text-anchor: middle; visibility: hidden; font-family: Roboto, sans-serif; font-size: 12px; font-weight: 200;" fill="rgb(50, 49, 63)" stroke="none" stroke-width="1px">-10</text><text x="137.10557291666666" y="0" dx="0em" dy="0.95em" style="text-anchor: middle; visibility: inherit; font-family: Roboto, sans-serif; font-size: 12px; font-weight: 200;" fill="rgb(50, 49, 63)" stroke="none" stroke-width="1px">0</text><text x="274.2111458333333" y="0" dx="0em" dy="0.95em" style="text-anchor: middle; visibility: inherit; font-family: Roboto, sans-serif; font-size: 12px; font-weight: 200;" fill="rgb(50, 49, 63)" stroke="none" stroke-width="1px">10</text><text x="411.31671875" y="0" dx="0em" dy="0.95em" style="text-anchor: middle; visibility: inherit; font-family: Roboto, sans-serif; font-size: 12px; font-weight: 200;" fill="rgb(50, 49, 63)" stroke="none" stroke-width="1px">20</text><text x="548.4222916666666" y="0" dx="0em" dy="0.95em" style="text-anchor: middle; visibility: inherit; font-family: Roboto, sans-serif; font-size: 12px; font-weight: 200;" fill="rgb(50, 49, 63)" stroke="none" stroke-width="1px">30</text><text x="685.5278645833333" y="0" dx="0em" dy="0.95em" style="text-anchor: middle; visibility: inherit; font-family: Roboto, sans-serif; font-size: 12px; font-weight: 200;" fill="rgb(50, 49, 63)" stroke="none" stroke-width="1px">40</text><text x="822.6334375" y="0" dx="0em" dy="0.95em" style="text-anchor: middle; visibility: inherit; font-family: Roboto, sans-serif; font-size: 12px; font-weight: 200;" fill="rgb(50, 49, 63)" stroke="none" stroke-width="1px">50</text><text x="959.7390104166667" y="0" dx="0em" dy="0.95em" style="text-anchor: middle; visibility: inherit; font-family: Roboto, sans-serif; font-size: 12px; font-weight: 200;" fill="rgb(50, 49, 63)" stroke="none" stroke-width="1px">60</text><text x="1096.8445833333333" y="0" dx="0em" dy="0.95em" style="text-anchor: middle; visibility: inherit; font-family: Roboto, sans-serif; font-size: 12px; font-weight: 200;" fill="rgb(50, 49, 63)" stroke="none" stroke-width="1px">70</text><text x="1233.95015625" y="0" dx="0em" dy="0.95em" style="text-anchor: middle; visibility: inherit; font-family: Roboto, sans-serif; font-size: 12px; font-weight: 200;" fill="rgb(50, 49, 63)" stroke="none" stroke-width="1px">80</text><text x="1371.0557291666667" y="0" dx="0em" dy="0.95em" style="text-anchor: middle; visibility: inherit; font-family: Roboto, sans-serif; font-size: 12px; font-weight: 200;" fill="rgb(50, 49, 63)" stroke="none" stroke-width="1px">90</text><text x="1508.1613020833333" y="0" dx="0em" dy="0.95em" style="text-anchor: middle; visibility: inherit; font-family: Roboto, sans-serif; font-size: 12px; font-weight: 200;" fill="rgb(50, 49, 63)" stroke="none" stroke-width="1px">100</text><text x="1645.266875" y="0" dx="0em" dy="0.95em" style="text-anchor: middle; visibility: hidden; font-family: Roboto, sans-serif; font-size: 12px; font-weight: 200;" fill="rgb(50, 49, 63)" stroke="none" stroke-width="1px">110</text></g><line x1="0" y1="0" x2="1645.266875" y2="0" fill="rgb(0, 0, 0)" stroke="rgb(204, 204, 204)" stroke-width="1px"></line></g></g></g></g></svg>