<svg viewBox="0 0 1707.2222900390625 400.0000305175781" xmlns="http://www.w3.org/2000/svg"><g><g><g><g><g><line x1="41.171875" y1="378" x2="36.171875" y2="378" style="visibility: inherit;" fill="rgb(0, 0, 0)" stroke="rgb(204, 204, 204)" stroke-width="1px"></line><line x1="41.171875" y1="340.2" x2="36.171875" y2="340.2" style="visibility: inherit;" fill="rgb(0, 0, 0)" stroke="rgb(204, 204, 204)" stroke-width="1px"></line><line x1="41.171875" y1="302.40000000000003" x2="36.171875" y2="302.40000000000003" style="visibility: inherit;" fill="rgb(0, 0, 0)" stroke="rgb(204, 204, 204)" stroke-width="1px"></line><line x1="41.171875" y1="264.59999999999997" x2="36.171875" y2="264.59999999999997" style="visibility: inherit;" fill="rgb(0, 0, 0)" stroke="rgb(204, 204, 204)" stroke-width="1px"></line><line x1="41.171875" y1="226.79999999999998" x2="36.171875" y2="226.79999999999998" style="visibility: inherit;" fill="rgb(0, 0, 0)" stroke="rgb(204, 204, 204)" stroke-width="1px"></line><line x1="41.171875" y1="189" x2="36.171875" y2="189" style="visibility: inherit;" fill="rgb(0, 0, 0)" stroke="rgb(204, 204, 204)" stroke-width="1px"></line><line x1="41.171875" y1="151.20000000000002" x2="36.171875" y2="151.20000000000002" style="visibility: inherit;" fill="rgb(0, 0, 0)" stroke="rgb(204, 204, 204)" stroke-width="1px"></line><line x1="41.171875" y1="113.40000000000002" x2="36.171875" y2="113.40000000000002" style="visibility: inherit;" fill="rgb(0, 0, 0)" stroke="rgb(204, 204, 204)" stroke-width="1px"></line><line x1="41.171875" y1="75.59999999999998" x2="36.171875" y2="75.59999999999998" style="visibility: inherit;" fill="rgb(0, 0, 0)" stroke="rgb(204, 204, 204)" stroke-width="1px"></line><line x1="41.171875" y1="37.79999999999999" x2="36.171875" y2="37.79999999999999" style="visibility: inherit;" fill="rgb(0, 0, 0)" stroke="rgb(204, 204, 204)" stroke-width="1px"></line><line x1="41.171875" y1="0" x2="36.171875" y2="0" style="visibility: inherit;" fill="rgb(0, 0, 0)" stroke="rgb(204, 204, 204)" stroke-width="1px"></line></g><g transform="translate(31.171875, 0)"><text x="0" y="378" dx="0em" dy="0.3em" style="text-anchor: end; visibility: hidden; font-family: Roboto, sans-serif; font-size: 12px; font-weight: 200;" fill="rgb(50, 49, 63)" stroke="none" stroke-width="1px">-10</text><text x="0" y="340.2" dx="0em" dy="0.3em" style="text-anchor: end; visibility: inherit; font-family: Roboto, sans-serif; font-size: 12px; font-weight: 200;" fill="rgb(50, 49, 63)" stroke="none" stroke-width="1px">0</text><text x="0" y="302.40000000000003" dx="0em" dy="0.3em" style="text-anchor: end; visibility: inherit; font-family: Roboto, sans-serif; font-size: 12px; font-weight: 200;" fill="rgb(50, 49, 63)" stroke="none" stroke-width="1px">10</text><text x="0" y="264.59999999999997" dx="0em" dy="0.3em" style="text-anchor: end; visibility: inherit; font-family: Roboto, sans-serif; font-size: 12px; font-weight: 200;" fill="rgb(50, 49, 63)" stroke="none" stroke-width="1px">20</text><text x="0" y="226.79999999999998" dx="0em" dy="0.3em" style="text-anchor: end; visibility: inherit; font-family: Roboto, sans-serif; font-size: 12px; font-weight: 200;" fill="rgb(50, 49, 63)" stroke="none" stroke-width="1px">30</text><text x="0" y="189" dx="0em" dy="0.3em" style="text-anchor: end; visibility: inherit; font-family: Roboto, sans-serif; font-size: 12px; font-weight: 200;" fill="rgb(50, 49, 63)" stroke="none" stroke-width="1px">40</text><text x="0" y="151.20000000000002" dx="0em" dy="0.3em" style="text-anchor: end; visibility: inherit; font-family: Roboto, sans-serif; font-size: 12px; font-weight: 200;" fill="rgb(50, 49, 63)" stroke="none" stroke-width="1px">50</text><text x="0" y="113.40000000000002" dx="0em" dy="0.3em" style="text-anchor: end; visibility: inherit; font-family: Roboto, sans-serif; font-size: 12px; font-weight: 200;" fill="rgb(50, 49, 63)" stroke="none" stroke-width="1px">60</text><text x="0" y="75.59999999999998" dx="0em" dy="0.3em" style="text-anchor: end; visibility: inherit; font-family: Roboto, sans-serif; font-size: 12px; font-weight: 200;" fill="rgb(50, 49, 63)" stroke="none" stroke-width="1px">70</text><text x="0" y="37.79999999999999" dx="0em" dy="0.3em" style="text-anchor: end; visibility: inherit; font-family: Roboto, sans-serif; font-size: 12px; font-weight: 200;" fill="rgb(50, 49, 63)" stroke="none" stroke-width="1px">80</text><text x="0" y="0" dx="0em" dy="0.3em" style="text-anchor: end; visibility: hidden; font-family: Roboto, sans-serif; font-size: 12px; font-weight: 200;" fill="rgb(50, 49, 63)" stroke="none" stroke-width="1px">90</text></g><line x1="41.171875" y1="0" x2="41.171875" y2="378" fill="rgb(0, 0, 0)" stroke="rgb(204, 204, 204)" stroke-width="1px"></line></g></g><g transform="translate(41, 0)" clip-path="url(#clip_0)"><clipPath id="clip_0"><rect width="1666" height="377"></rect></clipPath><g><g><g><line x1="0" y1="0" x2="0" y2="378" fill="rgb(0, 0, 0)" stroke="rgb(60, 60, 60)" stroke-width="1px" opacity="0.25"></line><line x1="166.6048125" y1="0" x2="166.6048125" y2="378" fill="rgb(0, 0, 0)" stroke="rgb(60, 60, 60)" stroke-width="1px" opacity="0.25"></line><line x1="333.209625" y1="0" x2="333.209625" y2="378" fill="rgb(0, 0, 0)" stroke="rgb(60, 60, 60)" stroke-width="1px" opacity="0.25"></line><line x1="499.8144375000001" y1="0" x2="499.8144375000001" y2="378" fill="rgb(0, 0, 0)" stroke="rgb(60, 60, 60)" stroke-width="1px" opacity="0.25"></line><line x1="666.41925" y1="0" x2="666.41925" y2="378" fill="rgb(0, 0, 0)" stroke="rgb(60, 60, 60)" stroke-width="1px" opacity="0.25"></line><line x1="833.0240625" y1="0" x2="833.0240625" y2="378" fill="rgb(0, 0, 0)" stroke="rgb(60, 60, 60)" stroke-width="1px" opacity="0.25"></line><line x1="999.628875" y1="0" x2="999.628875" y2="378" fill="rgb(0, 0, 0)" stroke="rgb(60, 60, 60)" stroke-width="1px" opacity="0.25"></line><line x1="1166.2336874999999" y1="0" x2="1166.2336874999999" y2="378" fill="rgb(0, 0, 0)" stroke="rgb(60, 60, 60)" stroke-width="1px" opacity="0.25"></line><line x1="1332.8384999999998" y1="0" x2="1332.8384999999998" y2="378" fill="rgb(0, 0, 0)" stroke="rgb(60, 60, 60)" stroke-width="1px" opacity="0.25"></line><line x1="1499.4433125" y1="0" x2="1499.4433125" y2="378" fill="rgb(0, 0, 0)" stroke="rgb(60, 60, 60)" stroke-width="1px" opacity="0.25"></line><line x1="1666.048125" y1="0" x2="1666.048125" y2="378" fill="rgb(0, 0, 0)" stroke="rgb(60, 60, 60)" stroke-width="1px" opacity="0.25"></line></g><g><line x1="0" y1="378" x2="1666.048125" y2="378" fill="rgb(0, 0, 0)" stroke="rgb(60, 60, 60)" stroke-width="1px" opacity="0.25"></line><line x1="0" y1="340.2" x2="1666.048125" y2="340.2" fill="rgb(0, 0, 0)" stroke="rgb(60, 60, 60)" stroke-width="1px" opacity="0.25"></line><line x1="0" y1="302.40000000000003" x2="1666.048125" y2="302.40000000000003" fill="rgb(0, 0, 0)" stroke="rgb(60, 60, 60)" stroke-width="1px" opacity="0.25"></line><line x1="0" y1="264.59999999999997" x2="1666.048125" y2="264.59999999999997" fill="rgb(0, 0, 0)" stroke="rgb(60, 60, 60)" stroke-width="1px" opacity="0.25"></line><line x1="0" y1="226.79999999999998" x2="1666.048125" y2="226.79999999999998" fill="rgb(0, 0, 0)" stroke="rgb(60, 60, 60)" stroke-width="1px" opacity="0.25"></line><line x1="0" y1="189" x2="1666.048125" y2="189" fill="rgb(0, 0, 0)" stroke="rgb(60, 60, 60)" stroke-width="1px" opacity="0.25"></line><line x1="0" y1="151.20000000000002" x2="1666.048125" y2="151.20000000000002" fill="rgb(0, 0, 0)" stroke="rgb(60, 60, 60)" stroke-width="1px" opacity="0.25"></line><line x1="0" y1="113.40000000000002" x2="1666.048125" y2="113.40000000000002" fill="rgb(0, 0, 0)" stroke="rgb(60, 60, 60)" stroke-width="1px" opacity="0.25"></line><line x1="0" y1="75.59999999999998" x2="1666.048125" y2="75.59999999999998" fill="rgb(0, 0, 0)" stroke="rgb(60, 60, 60)" stroke-width="1px" opacity="0.25"></line><line x1="0" y1="37.79999999999999" x2="1666.048125" y2="37.79999999999999" fill="rgb(0, 0, 0)" stroke="rgb(60, 60, 60)" stroke-width="1px" opacity="0.25"></line><line x1="0" y1="0" x2="1666.048125" y2="0" fill="rgb(0, 0, 0)" stroke="rgb(60, 60, 60)" stroke-width="1px" opacity="0.25"></line></g></g></g><g><g><line x1="0" y1="340.2" x2="1666.048125" y2="340.2" fill="rgb(0, 0, 0)" stroke="rgb(153, 153, 153)" stroke-width="1.5px"></line></g></g><g><g><line x1="166.6048125" y1="0" x2="166.6048125" y2="378" fill="rgb(0, 0, 0)" stroke="rgb(153, 153, 153)" stroke-width="1.5px"></line></g></g><g><g><g><g><g><path stroke="rgb(0, 119, 187)" stroke-width="2px" d="M166.6048125,329.36438794612883L173.89978933177085,330.7684872197149L181.21073245807295,331.15172289948674L188.5422697903646,331.46243859872726L195.88098038541668,331.60840056835593L203.20812120182293,331.71823413416365L210.60259812994795,331.74571518019394L217.98550527942712,331.81446920636984L225.25086347786458,331.868888229644L232.53542750885416,331.89550396522264L239.85956018281252,331.93491901612714L247.14227304921874,331.96138963605904L254.46062083385416,331.9879748909224L261.7748034981771,332.01114551516827L269.06237567161463,332.02601354093076L276.3818804341146,332.04190133592977" style="fill: none;" fill="none"></path></g><g><path stroke="rgb(255, 112, 67)" stroke-width="2px" d="M166.6048125,269.1695932388306L173.9183009776042,300.0836959391365L181.22947549947918,310.86625121780264L188.560550040625,316.25004381047904L195.89416993307293,319.5373283421849L203.22663284765628,321.715015180241L210.61000278828126,323.26085981054734L218.00355413411458,324.44065488786407L225.27122628828127,325.34354675200785L232.54329495833338,326.0768255569722L239.86418809427084,326.6703929702769L247.16032190390624,327.18243687238805L254.47797550182293,327.6171132974366L261.7727209380208,327.98406204188046L269.0811187130208,328.30781531249914L276.3874339278646,328.59004872623166" style="fill: none;" fill="none"></path></g><g><path stroke="rgb(187, 187, 187)" stroke-width="2px" d="M166.6048125,165.20835319519043L173.91644981302085,155.70759001147186L181.24150806927085,149.37868430716142L188.5684174901042,139.2035560711648L195.8992606356771,130.66249920764926L203.23496308828126,122.69723339810045L210.58616904427083,115.7017124507348L217.91909475,111.24708069504241L225.26544139895833,105.92557050387406L232.62127526640626,99.85414829768116L239.97340680468753,96.32079822897373L247.26861503203125,94.22493752103003" style="fill: none;" fill="none"></path></g><g><path stroke="rgb(0, 153, 136)" stroke-width="2px" d="M166.6048125,221.73207412719725L173.91644981302085,193.528195080433L181.2424336515625,176.1706714381773L188.56888028125002,165.20069073937205L195.89972342682293,154.91536478939585L203.23519448385417,147.07897674534283L210.57598763906253,140.57304601794976L217.91863195885418,134.95657094372348L225.26544139895833,130.46713496911593L232.6131764213542,126.26666056684671L239.9741009914063,123.21078267447687L247.23459988281252,121.702411349608" style="fill: none;" fill="none"></path></g><g><path style="fill: none;" fill="none" stroke="none" stroke-width="1px"></path></g><g><path style="fill: none;" fill="none" stroke="none" stroke-width="1px"></path></g><g><path stroke="rgb(51, 187, 238)" stroke-width="2px" d="M166.6048125,333.9345079493523L173.90603701223958,334.2662893738932L181.2549290125,334.3887427686723L188.62256405416667,334.45357488483387L195.99390142500002,334.499100536859L203.35181785260417,334.52928749201226L210.69862729270835,334.55390873695404L218.05399836901043,334.5741549800912L225.3927089640625,334.5898085376463L232.76404633489585,334.60216239341077L240.15667209843753,334.61074255066643L247.54721530182294,334.62012616188684L254.91114801432292,334.62670724243384L262.30446796458335,334.6308330812502L269.67325998411457,334.6327413323868L277.088793909375,334.6316297571241L284.41963705494794,334.63347916521894L291.60585796744795,334.63301199113164L298.78050910130213,334.63562003443116L305.9898695710938,334.6356882960665L313.2823010515625,334.63000459956066L320.5881534752604,334.6190998279279L327.81486861302085,334.60778946594195L335.1066059067708,334.60381253848595" style="fill: none;" fill="none"></path></g><g><path stroke="rgb(204, 51, 17)" stroke-width="2px" d="M166.6048125,332.05553124904634L173.90626840781252,332.9513256316139L181.25585459479169,333.3738320519883L188.62325824088543,333.60190622460493L195.99690956744794,333.7497941991522L203.35181785260417,333.85655384144746L210.69307379895835,333.9386300214716L218.04821347968752,334.00486386609174L225.3943287330729,334.0612432419148L232.75849284114585,334.11126151329074L240.1520441869792,334.1568940020522L247.53055482057292,334.19919901451607L254.9120735966146,334.2400667949255L262.28734469218756,334.28070918581767L269.67418556640627,334.32178132060386L277.0890253049479,334.36329603264795L284.42102542838546,334.4044972071946L291.58572655260417,334.44572410921313L298.7814346835938,334.486382487224L305.9847788684896,334.5268011107194L313.27073127291663,334.56833234776917L320.56941043385416,334.6103537457592L327.81602559088543,334.65216134854137L335.0698140106771,334.6930331456717" style="fill: none;" fill="none"></path></g><g><path stroke="rgb(255, 112, 67)" stroke-width="2px" d="M166.6048125,333.11162851810457L171.24521931927083,333.1721447567345L175.89511335703128,333.3253729102761L180.54708995494795,333.5171462914781L185.28005500338543,333.64938002763273L190.0014502731771,333.7440787652556L194.71335832447917,333.8173002224108L199.52522926328126,333.8774631884831L204.34705021171877,333.9402975263349L209.1357815932292,334.01114906896447L213.9691723203125,334.0718031452574L218.79215024661463,334.123883843306L223.62600376484377,334.1683518672496L228.48322823593747,334.206291224886L233.3309654885417,334.23903727489136L238.17777715885418,334.26787137005374L243.07850399765627,334.29319908644294L247.97344594713542,334.31574559713476L252.83298437395834,334.3358923588838L257.7589333302083,334.35458781193637L262.6353636338542,334.37146896596755L267.4409868921875,334.3863641741333L272.2401310744792,334.4002304968303L277.07537296614584,334.41322189279975L281.9406962822917,334.4249683820349L286.81111030104165,334.4359100146655L291.7581162544271,334.44590916767567L296.5933581460938,334.45495259357125L301.4207325882813,334.4633266319825L306.26569309401043,334.4714895448959L311.08288613098955,334.4789923354345L315.94381293125,334.48589967228367L320.772575746875,334.49240935415975L325.6679804875,334.49878270719364L330.5629224369792,334.5046549285593L335.500441171875,334.5102557046788L340.4108866247396,334.51563045589205L345.25561573489585,334.52068448679233L350.18596120703126,334.5254593827143L355.0563752257812,334.530108404669L359.8980961934896,334.5344047063143L364.7428253036458,334.53832991594516L369.64378353802084,334.54209022022974L374.5445103768229,334.54563259697875L379.4739302666667,334.54921126923233L384.3131058830729,334.5525779899668L389.14071172083334,334.55584135673325L393.9808129195313,334.55896859082094L398.838037390625,334.56191602621686L403.6654118328125,334.56474246584554L408.5103723385417,334.56769087698376L413.3588037778646,334.5705062554892L418.2134828976562,334.5732068278814L423.0600631723958,334.5755171471704L427.87795039609375,334.5775990632298L432.73054695572915,334.5798531523342L437.5849946799479,334.5819698456902L442.4278726255208,334.58392605746053L447.24182612447925,334.58550841721285L452.09234012395837,334.58689203754L456.9141610723958,334.58818745294036L461.74940296406254,334.58912462421534L466.60755301744786,334.5901952873389L471.5274856888021,334.5917696545171L476.3666613052083,334.59295065763655L481.2442485867188,334.5939517495384L486.1199847036459,334.59483068618016L490.9910929091147,334.5955885308037L495.8617383234376,334.5962628266684L500.70854999375,334.59677506237256" style="fill: none;" fill="none"></path></g><g><path stroke="rgb(187, 187, 187)" stroke-width="2px" d="M166.6048125,325.0588176727295L171.24498792369792,328.8038685109269L175.89465056588543,330.1340359133048L180.5440818125,330.9215725601453L185.2795922122396,331.4305459802881L190.00214445989585,331.78142959246713L194.71335832447917,332.03974783246196L199.52360949427086,332.23962030849196L204.3461246294271,332.4040819737777L209.13369903307293,332.5742072490171L213.9691723203125,332.722922893512L218.78752233515627,332.8500428749572L223.6236898091146,332.9592674564824L228.48114567578128,333.0542527559122L233.32818874166668,333.1372087120741L238.17823995,333.21043070595806L243.07850399765627,333.27590884782484L247.9713633869792,333.33531880683944L252.83529832968748,333.3892149780838L257.76032170364584,333.4387216959975L262.63513223828124,333.48400505678245L267.44144968333336,333.5257131522133L272.2403624700521,333.5641595001997L277.074910175,333.5990292600548L281.9413904690104,333.630718373323L286.8085649497396,333.66085860537004L291.75765346328126,333.6891970561011L296.5908127947917,333.71578929278536L301.41934421484376,333.7409173606004L306.2643047205729,333.7649373321028L311.08265473541667,333.78785161286083L315.9445071179688,333.80969941826294L320.77303853802084,333.830436201768L325.665203740625,333.84993866415454L330.56014569010415,333.8683040465977L335.500441171875,333.88584363033624L340.41134941588547,333.9028221716661L345.2560785260417,333.9192569950148L350.1841100424479,333.93505795183785L355.0522101054688,333.9499750222144L359.8971706111979,333.96407741034653L364.7405113479167,333.97762242031587L369.6430893513021,333.9905780780691L374.5445103768229,334.0031568804122L379.4475511713542,334.01563369808997L384.31287448750004,334.02793566758476L389.1409431164063,334.04004341108174L393.9828954796875,334.05198694642866L398.8366490171875,334.0637255820264L403.66448625052084,334.0750515871152L408.5082897783854,334.0859009337217L413.3571840088542,334.09631531862044L418.2134828976562,334.106537229379L423.05798061223965,334.1167849844692L427.87795039609375,334.1269037045624L432.7312411424479,334.13672438326336L437.58568886666677,334.14619335667663L442.4285668122397,334.155669152656L447.24090054218755,334.165100658867L452.0916459372396,334.1743885897596L456.9141610723958,334.1834736518629L461.74940296406254,334.1923987643399L466.60755301744786,334.20123187467124L471.5251717330729,334.20964618328173L476.3638845583333,334.2179594169108L481.2442485867188,334.22636523374206L486.11929051692704,334.2347721242671L490.9936382604167,334.2431994199336L495.8619697190104,334.2515937987161L500.70901278489583,334.259920637273" style="fill: none;" fill="none"></path></g><g><path stroke="rgb(0, 153, 136)" stroke-width="2px" d="M166.6048125,333.1126144552231L171.25840886692708,333.17408872148513L175.99715880468753,333.3429554867052L180.71114941614584,333.5318414844701L185.49386451276044,333.6604541118423L190.36983202526042,333.75606884797025L195.2245111450521,333.83088131834705L200.06507513489584,333.8912028742791L204.89082980807294,333.9397369666039L209.72792286432295,333.9926036613971L214.55159497734374,334.04049145715044L219.40812526171874,334.0820742557987" style="fill: none;" fill="none"></path></g><g><path stroke="rgb(238, 51, 119)" stroke-width="2px" d="M166.6048125,325.35145804882046L171.25910305364584,328.95467841882817L175.99785299140626,330.2460557462733L180.71091802057293,331.01516402338257L185.49386451276044,331.507579101466L190.37029481640627,331.84850898041213L195.22381695833334,332.1016353627767L200.06345536588543,332.2981484959684L204.8903670169271,332.4555405869566L209.72699728203128,332.60058392315494L214.55367753750002,332.7460636011553L219.3859112867188,332.87138215094996" style="fill: none;" fill="none"></path></g><g><path stroke="rgb(51, 187, 238)" stroke-width="2px" d="M166.6048125,305.9494673538208L190.08637244843752,305.9623360318117L213.8076582104167,305.9675758270464L237.56249633046875,305.97024265726185L261.2027936419271,305.9715400598487L284.85350375416664,305.9718105057173L308.49889176822916,305.97214779333336L332.15608095651044,305.97228409357047L355.73667821015624,305.972367986581L379.2934417197917,305.97041631496427L402.96520882916667,305.97010992411106L426.605506140625,305.9687729104343L450.5512456083334,305.9677537380984L474.28734068697923,305.9676431600386" style="fill: none;" fill="none"></path></g><g><path stroke="rgb(204, 51, 17)" stroke-width="2px" d="M166.6048125,305.07457162857054L190.07873639453126,305.50516740436325L213.7981709919271,305.6533037228994L237.53958816875004,305.72891615124496L261.1970087526042,305.7753267541635L284.8460990958334,305.8068164448717L308.47991733125,305.8290900493712L332.14867629817707,305.84640116866876L355.7276537828125,305.8600563749235L379.284185896875,305.87104715251286L402.94484601875,305.88038508953395L426.59879566901037,305.8882654641143L450.5250979085938,305.89520517371403L474.25725926250004,305.901223459214" style="fill: none;" fill="none"></path></g><g><path stroke="rgb(255, 112, 67)" stroke-width="2px" d="M166.6048125,305.91492891311646L181.1413137861979,305.94249305872944L195.79258727656253,305.9538606359124L210.48736313463542,305.9600381302873L225.29829957031254,305.96338124658485" style="fill: none;" fill="none"></path></g><g><path stroke="rgb(187, 187, 187)" stroke-width="2px" d="M166.6048125,304.87161638259886L181.141082390625,305.397894097414L195.7923558809896,305.5801833036095L210.4871317390625,305.67312669344136L225.29968794375003,305.7300305034871" style="fill: none;" fill="none"></path></g><g><path stroke="rgb(187, 187, 187)" stroke-width="2px" d="M166.6048125,305.9713274002075L206.60269425651043,305.97534886207933L246.5068608059896,305.9763898437379L286.3665994054688,305.97510428135206L326.1636298046875,305.9747606177752L365.8458879997396,305.4970253615673L405.4848752226562,305.45030041264414L445.3186975179687,305.4543685173891L485.2605815458333,305.4717577778672L524.9861107130208,305.4887768282856L564.6116769927085,305.5098913904884L604.244879326302,305.4890764661113L643.8963619101562,305.51081298081533L683.632535273698,305.48773783283224L723.4325738153645,305.5086509384376L763.1187657351562,305.46274741072193L802.7829750755209,305.48374458050387L842.370823876823,305.5024448327832L882.1072286359376,305.49418583518496L922.0137091411458,305.5114909626158L961.7998639484375,305.5276282049086L1001.5601024515626,305.5421996847005L1041.2791525427083,305.55600192836425L1080.9671956270834,305.56851050680245L1120.8049516471356,305.58026527220983L1160.6126262427083,305.59106074656364L1200.2976611846354,304.8874338681904L1240.064147368229,304.9227212887406L1279.7271997307291,304.9457562247307L1319.487669629427,304.9732814978926L1359.3196407601563,304.92158631654627L1399.0560455192708,304.94973324423705L1438.6804548210937,304.9335211970688L1478.3451269526042,304.95899265315575L1518.1840399505209,304.97820770341065L1558.0176308502605,305.00315843106193" style="fill: none;" fill="none"></path></g><g><path stroke="rgb(0, 153, 136)" stroke-width="2px" d="M166.6048125,305.29018363952633L206.62074311119792,305.6180337695011L246.52699222083334,305.7300968546091L286.3844168645834,305.78712120182706L326.17450539661456,305.8218328130986L365.81927750885416,-162.8031531635785L485.2779362138021,-6.387556496278199L525.01063864375,24.822147104852817L564.62926305625,50.47599580087649L604.2696386526042,71.72989802203053L643.869751419271,89.83314569593897L683.6454934257812,105.22087977454794L723.4383587046874,118.6786244748281L763.1324180739583,130.34509254465135L802.802180908073,140.74308292370867L842.3835506333335,149.88788917650876L882.1245833039063,158.1658277550845L922.0150975145833,165.44433413655395L961.8186069898438,172.19405697098588L1001.5783827018228,178.1760777600562L1041.2865572010417,183.7858529374605L1080.9704351651042,188.77289727999604L1120.8241574796875,193.51041112641002L1160.6248902080729,197.75799230028414L1200.323577488802,201.704384237567L1240.0824276184896,205.42505051107779L1279.7216462369793,208.87130729428233L1319.4943801010415,212.04556230567934L1359.3386151971354,215.11267249097648L1399.07501995625,217.90788404000676L1438.699429258073,220.50403711301047L1478.2932943442709,223.0007913439341L1518.2030143875,225.34627634368306L1558.026886673177,227.56773931208525" style="fill: none;" fill="none"></path></g><g><path stroke="rgb(255, 112, 67)" stroke-width="2px" d="M166.6048125,333.0870990514755Z" style="fill: none;" fill="none"></path></g><g><path stroke="rgb(187, 187, 187)" stroke-width="2px" d="M166.6048125,325.26985417842866Z" style="fill: none;" fill="none"></path></g><g><path stroke="rgb(204, 51, 17)" stroke-width="2px" d="M166.6048125,292.302414150238L171.17718902083334,299.08195687570174L175.765300440625,304.6602555964791L180.35063511354167,308.70425520063634L184.95031631197918,311.29675458921486L189.59002894453127,313.1562611281377L194.21308109583336,314.70145024474823L198.86505769375,315.8882965095331L203.49389473437503,316.75295053352676L208.12735968645836,317.51307189706955L212.77285720833333,318.15261020010365L217.42923032213545,318.6991079114131L222.0883801828125,319.15071941681504L226.80769289244793,319.57626564381934L231.53093932682293,319.95408231074765" style="fill: none;" fill="none"></path></g><g><path stroke="rgb(0, 119, 187)" stroke-width="2px" d="M166.6048125,302.8325001525879L171.17070994479167,301.85703957340553L175.7655318361979,305.6705480407264L180.35063511354167,309.50918859930766L184.9505477075521,312.5250857667062L189.5671207828125,314.5440348544502L194.2126183046875,316.2266495870408L198.86552048489585,317.5717964101868L203.49458892109377,318.6688781758654L208.1213434015625,319.5954278507147L212.77285720833333,320.3796961507917L217.42969311328125,321.060779041508L222.0865290182292,321.65119061116536L226.80723010130208,322.1309492035444L231.53140211796878,322.58027616403535" style="fill: none;" fill="none"></path></g><g><path stroke="rgb(0, 119, 187)" stroke-width="2px" d="M166.6048125,297.9354243850708L173.57190180494794,300.5315340987864L180.71947965677086,301.8812673494722L187.7603841494792,302.84109377327786L195.06808773776044,303.6305080476353L202.26402726432292,304.34058914541066L209.41160511614584,304.992312253324L216.33750600911458,305.6160546516753L223.40085587239582,306.21606720870875L230.36725099062502,306.80060709607443L237.53426607057293,307.3728297049379L244.47474488463544,307.9351328798591L251.43535511354168,308.4908498013772L258.3998990671875,309.0344535417682L265.4856943010417,309.57476541919533L272.52359065130213,310.10989633703247L279.5677346820313,310.64112478119307L286.57184727864586,311.16324599247287L293.54472147291665,311.67431466092097L300.4937619231771,312.1703288336706L307.4696442598958,312.6532343215625L314.4688975494792,313.13031420441524L321.5433544002604,313.58967239822965L328.60022518750003,314.0305741054263L335.58721451171874,314.45633677570083L342.62487946640624,314.8670949987032L349.8559911200521,315.26076369294725L357.3270599828125,315.63727366923166L364.623193792448,315.9962664697036L371.94454971953127,316.33832636640693L379.09976362526044,316.6590357075565L386.21147516328125,316.9588279105547L393.3791844299479,317.2434983565484L400.5455053231771,317.5120417215333L407.70257039348957,317.77021126944265L414.83487613750003,318.01432190720317L421.9653307169271,318.24839969062594L429.1031899546875,318.4708865900987L436.26951084791665,318.68440694126855L443.8150890851563,318.8874704031079L451.0841496127604,319.08149992976706L458.2233972239584,319.2671345403595L465.36935530677084,319.4454458791012L472.5303541018229,319.6173220233956L479.77627507213543,319.77992088408257L486.9992878807292,319.935596687165L494.24196931302083,320.08685484169484L501.41222393098957,320.2332188220758L508.55609945364586,320.3728401466475L515.6902563622397,320.50825691574863L522.8531063218751,320.64077617903206L529.9611155307292,320.76531434627583L537.0751410244792,320.8893590789314L544.2081409552083,321.01148755791473L551.3846432536458,321.127816794549L558.5528153114583,321.2398623169371L565.7765223067709,321.34966252261637L572.9877339411458,321.4555225568386L580.1663187997395,321.55870101335415L587.3807699721355,321.6582032732252L594.7065224151042,321.7528664557387L602.3576170335937,321.8439848885229L610.0117197945312,321.93174491297947L617.6750783783855,322.01775630884094L625.3858730546875,322.1021692906861L633.0881060947917,322.18128808851594L640.7199948807291,322.25726609477806L648.3939976609374,322.3308840340075L656.0265806335937,322.4038184940607L663.687162470573,322.4760264024682L671.3530664057291,322.5458878089983L679.1050494940105,322.6127413931262L686.8422232656251,322.67676322961097L694.5807854106771,322.7368869556652L702.2908859002605,322.7988136637672L710.0266712984375,322.85976218651945L717.786521836198,322.91849241347404L725.5378107377603,322.97615746755343L733.1539646247396,323.0310928666848L740.3607797432292,323.08528842331583L747.5844867385416,323.13839929301173L754.7852855721355,323.18738726671097L762.0427763210938,323.2355672090633L769.2579216802085,323.2848493680743L776.4520100421876,323.33411938420215L783.6845100692709,323.3824221856021L790.9401496536459,323.42897394208075L798.1823682947917,323.47305954314777L805.6675522875,323.51514319181587L813.3963958184896,323.55567783765326L820.8885216783854,323.5965196349771L828.0678007236979,323.6383520264301L835.1325389604166,323.67940155695914L842.1857074184896,323.7189113345712L849.2099514299479,323.7571659718132L856.2804745559896,323.7943953362004L863.3391965078124,323.83194064098194L870.382183560677,323.8681630567249L877.6287987177083,323.9031515211323L884.8411673299479,323.93612477868896" style="fill: none;" fill="none"></path></g><g><path stroke="rgb(255, 112, 67)" stroke-width="2px" d="M166.6048125,137.07910217285158L173.57074482708333,219.21329518488318L180.7206366346354,247.44133166919826L187.76107833619795,261.86674933914463L195.0678563421875,270.74249300301784L202.26449005546877,276.8364816163913L209.40998534713543,281.33668330662687L216.33820019583334,284.8408804094363L223.4043268059896,287.6797944948449L230.36794517734378,290.0531013467933L237.5266300166667,292.0864699389892L244.47543907135417,293.86485065038505L251.43466092682294,295.4446284793287L258.3998990671875,296.86765782828604L265.4877768611979,298.16867273049087L272.52359065130213,299.3693048777445L279.56796607760424,300.4859918186691L286.5723100697917,301.53046012782727L293.5449528684896,302.5095736587833L300.4949189010417,303.429196209689L307.4721896111979,304.29582669083214L314.4418242674479,305.11333458367824L321.53756951093754,305.8896712100708L328.60068797864585,306.6241213319576L335.58142962239583,307.31999182617534L342.625573653125,307.9780118476567L349.8566853067709,308.6029604516782L357.32775416953126,309.19457417064325L364.62296239687504,309.75280566810693L371.94478111510415,310.28091983772566L379.1006892075521,310.7742056110516L386.21355772343753,311.2423649848477L393.3491030054688,311.6854172657217L400.54573671875,312.1045133994803L407.70511574479167,312.50028777915895L414.83533892864585,312.8761921880865L421.965793508073,313.23389208514976L429.10388414140624,313.5743998725853L436.26904805677077,313.8976817908091L443.81532048072916,314.2062125620908L451.0843810083333,314.50143523350494L458.2233972239584,314.78406931171475L465.3705122846354,315.05350907420296L472.5285029372396,315.3116935681724L479.755218075,315.55878128816653L486.99905648515625,315.7957694505701L494.2452088510417,316.02241029053516L501.3909355382812,316.2425587572124L508.55563666250004,316.4540580688489L515.6904877578124,316.65651042188574L522.8540319041667,316.85376236523314L529.9608841351563,317.0430980773728L537.0749096289063,317.22519620018835L544.2118432843749,317.40306771121203L551.3848746492189,317.57745501907715L558.5525839158855,317.7454012678297L565.7767537023437,317.90961807049126L572.9884281278646,318.0683186949938L580.1667815908854,318.2214939640658L587.3814641588541,318.3700744649134L594.706753810677,318.51423019988016L602.3578484291668,318.65472157066324L610.0117197945312,318.79075969380085L617.6780865208333,318.9232870974785L625.3863358458333,319.0501847943364L633.0888002815104,319.17228290312136L640.720689067448,319.2908518175219L648.3946918476563,319.4075593073685L656.0282004026042,319.520707657948L663.6878566572917,319.6307557199637L671.353760592448,319.7384072557513L679.1089832187499,319.8433070901742L686.842454661198,319.94503123038754L694.581248201823,320.04436652663935L702.2911172958333,320.14033653296747L710.0273654851563,320.23310028709716L717.786753231771,320.3248718678455L725.5380421333333,320.4150396041542L733.1546588114583,320.5033468731016L740.3633250945312,320.5892280475203L747.5877262765625,320.6731890732189L754.7857483632813,320.75574838998904L762.0430077166667,320.83600068149093L769.2583844713541,320.9138792909839L776.4522414377604,320.9894182091428L783.6842786736979,321.06320557101304L790.9401496536459,321.13616035359917L798.1823682947917,321.2074558029939L805.6675522875,321.2772526934744L813.3966272140625,321.3452952638973L820.8887530739584,321.41123235565726L828.0541483848958,321.4760938436031L835.1360098940105,321.5397002151894L842.1590969276043,321.6019909593641L849.2134223635418,321.6631981320747L856.2809373471355,321.723113135506L863.3299406848959,321.78186298080635L870.382183560677,321.83963469340586L877.6292615088541,321.89665085432534L884.8411673299479,321.95220272861536" style="fill: none;" fill="none"></path></g><g><path stroke="rgb(187, 187, 187)" stroke-width="2px" d="M166.6048125,298.7665783882141L172.15344694296877,301.22047983272546L177.72151861406252,302.4322515219557L183.32244845651041,303.30613690917374L188.94836902083335,304.03358300855547L194.54536513854168,304.69466463172665L200.15601359505212,305.3893647245507L205.78957021328125,306.5901318482207L211.46755478151042,307.88561461282114L217.1707614671875,309.06133551074697L222.98573221458338,310.11280237888604L228.76969595520833,311.0824411995482L234.55389109140623,311.9511140819207L240.35520950000003,312.7207653414969L246.1683290828125,313.407887616367L251.96571376666668,314.0369665928598L257.7806845140625,314.6086453903289L263.57853198906247,315.1244783968856L269.4087748442708,315.6046856631594L275.24873631354166,316.0423628330023L281.0542198424479,316.44582809107965L286.8765952481771,316.822039453117L292.6799962169271,317.17532289311373L298.49126463515626,317.5058850325357L304.3215074903646,317.8107275855559L310.13277590859377,318.09217765945596L315.94173037109374,318.3603907805798L321.7763697421875,318.6120160872816L327.575605590625,318.8538937445768L333.3905763380208,319.07342039999344L339.1745400786458,319.27903656822224L345.0325504026042,319.4747073056763L350.8546944127604,319.6628963589842L356.67336748932297,319.8397060907902L362.50754406927086,320.0106274608531L368.3361671554688,320.17320081115525L374.1819135140625,320.3275723720894L380.0295110372396,320.4740849637148L385.8386968953125,320.6136917934193L391.6633862567709,320.74877708174006L397.50149656145834,320.8763788491903L403.38773714531254,320.99911689761745L409.2200625606771,321.1167268724215L415.0831635872396,321.2289469636099L420.9483471739584,321.3391190594474L426.80172958645835,321.44281273609494L432.63590616640624,321.5457902319023L438.4876688098959,321.64461801301934L444.3084244466146,321.7383779044538L450.1368161372397,321.83237844971234L455.9517868846355,321.92034633128264L461.76097274270836,322.0042328973221L467.6914098809896,322.09063396248285L473.52766902109374,322.1703190337272L479.3118641572917,322.24742437809374L485.0861092838541,322.3250206623912L490.85688347682293,322.3982102597696L496.6177076601562,322.46741831049343L502.39611790703134,322.5359371454006L508.2032212049479,322.6011624219382L513.9776977270833,322.6664294265051L519.7463893598959,322.72996964214457L525.5227170466146,322.7899172891597L531.2990447333333,322.8507917889124L537.1061480312501,322.9083189059573L542.8866408382812,322.96423777848815L548.6435312968749,323.02021888440606L554.427726433073,323.0725445797396L560.1964180658854,323.1250745951729L565.9651096986979,323.1751407039569L571.7395862208333,323.22433267326306L577.5254011260416,323.27279506432893L583.2980264835937,323.3188414256441L589.084072784375,323.36205805051617L594.8506818570312,323.4042377637565L600.62700954375,323.4481041443627L606.3938500119792,323.4904300255489L612.1664753695313,323.52980885800554L617.9215146635418,323.5684712271889L623.6862725716146,323.6068662123405L629.4357583718751,323.6453649488117L635.2042186091146,323.6831282027748L640.9497706846354,323.7193382635924L646.7068925388022,323.7539407187604L652.4755841716145,323.78741940235255L658.2595479122396,323.8201849194219L664.0571639916668,323.8527838190069L669.837425403125,323.884206680343L675.6831717617188,323.9145906092094L681.4634331731772,323.9445056638158L687.2668341419271,323.97444285528604L693.0741688354167,324.0021532890179L698.8273569648438,324.030695409737L704.6344602627605,324.0583842611148L710.4357786713542,324.086576495484L716.2141889182292,324.1117774421549L722.0118049976562,324.14039552194726L727.8209908557292,324.1666737422253L733.6031034317708,324.1940223130726L739.4007195111978,324.2201335616834" style="fill: none;" fill="none"></path></g><g><path stroke="rgb(0, 153, 136)" stroke-width="2px" d="M166.6048125,163.00753967285158L172.15529810755208,232.57064106874756L177.7224441963542,256.4785583668413L183.3233740388021,268.708347939147L188.94883181197918,276.2489339486053L194.54767909427082,281.42758888192975L200.15717057291667,285.35566827296753L205.78933881770834,288.77445778981865L211.468711759375,291.85699476577645L217.17029867604165,294.52865689390313L222.98642640130208,296.8487233584871L228.77108432864586,298.8610216440758L234.54926317994793,300.6228969880687L240.35497810442712,302.1682323519836L246.16902326953127,303.536656023254L251.9668707445313,304.7547412473978L257.78230428307296,305.84449590478135L263.5783005934896,306.8266266928704L269.39928762578126,307.7175283120291L275.2489677091146,308.5303849149411L281.0470465796875,309.2730858301379L286.8779836216146,309.95833687157153L292.6802276125,310.5891471856542L298.49149603072914,311.17312258798194L304.3182679523438,311.7166726443994L310.1313875351563,312.22098810898285L315.94149897552086,312.692736030426L321.76456856796875,313.1336977694182L327.5769939640625,313.5458879310738L333.3921961070313,313.93733140465235L339.17153193619794,314.30283965975474L344.99714687994793,314.64683779625403L350.8556199950521,314.97106358679014L356.67313609375003,315.2784310749469L362.5031475533854,315.5690897498579L368.33015087057294,315.8465833825358L374.18214490963544,316.11093986645295L380.0207180054688,316.36265648431976L385.8393910820313,316.6016192054495L391.66361765234376,316.82981652080946L397.50242214375,317.04808543646624L403.32387196718753,317.2571791294365L409.2216823296875,317.45937860882987L415.0667345015625,317.65238075413964L420.94904136067714,317.8373424933896L426.80288656432293,318.0153163487864L432.6363689575521,318.186554725613L438.4592071544271,318.3542974756502L444.30935002890624,318.51496782814047L450.13403939036465,318.6699676998771L455.9529438625,318.81908562797554L461.7616669294271,318.9616365942195L467.69279825442715,319.10027436089507L473.52766902109374,319.23462163530405L479.31116997057285,319.3631749529038L485.08286974583336,319.4884543651137L490.8575776635417,319.61050570860755L496.6177076601562,319.72667610704565L502.39565511588546,319.84028698255514L508.1821642078125,319.94988338953993L513.978623309375,320.0572677151394L519.7466207554687,320.16177555305217L525.5234112333334,320.26165030748524L531.2937226351562,320.3594306641209L537.108693382552,320.4545757097004L542.887335025,320.5468229616558L548.6435312968749,320.63716132424594L554.4254124773438,320.72417804973435L560.19757504375,320.80833807371096L565.9653410942709,320.89149580530733L571.7407431986979,320.9717652579776L577.5254011260416,321.0509619570254L583.2977950880208,321.1276163150112L589.0843041799478,321.20137166248077L594.8509132526043,321.27269905008404L600.6193734898438,321.34245060938883L606.394081407552,321.41225752929057L612.1748056101563,321.4798228973521L617.9305390908855,321.54450861943263L623.685346989323,321.6079164202209L629.4436258213541,321.6708581270488L635.2118546630209,321.73284064412525L640.9569439473959,321.7931744155758L646.7156855705729,321.8518810548483L652.4839144122396,321.90878548336076L658.2683409440104,321.96399314360195L664.0652628367188,322.0179730939692L669.8455242481771,322.0707382294546L675.6915020023438,322.12200489840995L681.4726889960938,322.17341194669234L687.275395778125,322.22382773468775L693.0794909335938,322.27286449345587L698.8356872054687,322.32121468151024L704.6434846901042,322.3680809718104L710.4434147252604,322.41409648326936L716.2218249721353,322.45861855090953L722.0201352382812,322.5027562921302L727.8286269096353,322.54711391495476L733.6114336723958,322.5902590542341L739.3995625333333,322.6329438845731" style="fill: none;" fill="none"></path></g><g><path stroke="rgb(238, 51, 119)" stroke-width="2px" d="M166.6048125,332.6676823925972L171.19870880911458,332.98276753698354L175.79862140312503,333.18139786940884L180.44874683645833,333.4496673894879L185.12178043151042,333.6955106835581L189.76612097552083,333.8598782187221L194.408378959375,333.9835827098958L199.09506489322916,334.0805514769287L203.82617877708336,334.1561316838684L208.58806827213542,334.2148175522425L213.39230315703125,334.2639535385649L218.1928357127604,334.30370425035403L223.03177993359378,334.3360943019963L227.84388226796875,334.3640482162368L232.63654737421876,334.38743280214555L237.46785554114587,334.4064536072284L242.33988932890628,334.4227023481162L247.17675098958333,334.43805713975786L251.99672077343754,334.45309801558045L256.84908593750004,334.4646168848389L261.6998313325521,334.47346457155066L266.55034533203127,334.4801146775388L271.3932232776042,334.48702079103435L276.23031633385415,334.49381024328267L281.09818500130206,334.49900714370796L285.9200059497396,334.50184943018735" style="fill: none;" fill="none"></path></g><g><path stroke="rgb(51, 187, 238)" stroke-width="2px" d="M166.6048125,329.4536891555786L171.19917160026043,330.9868471492176L175.79746442526042,331.663204253179L180.4480526497396,332.1013308790102L185.12224322265627,332.4482563199252L189.76612097552083,332.7454058540905L194.40861035494794,332.97012230458637L199.09437070651043,333.14842919355783L203.8257159859375,333.29418396818613L208.58714268984374,333.4166205009373L213.39230315703125,333.5217895852168L218.18913338359377,333.61339147189915L223.02692062656254,333.6944675799119L227.84272529010417,333.76763600678356L232.6358531875,333.8348716908849L237.47063228802082,333.8967577067452L242.3262369901042,333.9537924214998L247.17721378072918,334.00574873896977L251.99533240000002,334.0527942976539L256.84792895963545,334.09869331163685L261.6986743546875,334.1427198618089L266.5496511453125,334.1849868820088L271.39368606875,334.2255214489319L276.22915935598957,334.26472025167453L281.10119314375,334.30303140177665L285.9197745541667,334.34028076700525" style="fill: none;" fill="none"></path></g><g><path stroke="rgb(51, 187, 238)" stroke-width="2px" d="M225.1053156625,-0.638970806256423L231.76881397578126,2.6172396955025343L238.7236393153646,6.894512737073008L245.52990869713545,10.620406745772222L252.38060602890627,15.842598289440986L259.18872657526043,21.451313820378253L265.9700052351563,25.43594687929205L272.8496270135417,31.05399040797619L279.7773790710938,36.65758763680874L286.48715649895837,42.26334432257118L292.97710813255213,47.505188532113706L299.4457713734375,52.79207884215781L305.9301695132812,57.48836575660748L312.43539325468754,62.25672327361405L318.92372511927084,66.56763787935174L325.3963220848958,70.71579007761305L331.90547955104165,74.56267737617279L338.3933486244792,78.32567106609386L345.14778539791666,81.88414175304703L352.06003395208336,85.44820911204758L358.9299371164063,88.9586421715114L365.77438676770834,92.27165494129824L372.675528334375,95.48187170209741L379.539646609375,98.16340454805938L386.3729892731771,100.80039928910087L393.1716226010417,103.38931069905729L400.02995598671873,105.8019327436215L406.8459439825521,108.12565537247004L413.7197808716146,110.47348145675305L420.6956632083334,112.75975526734719L427.6407699338542,115.14867795618926L434.60138016276045,117.33795750150645L441.55042061302083,119.43199797436226L448.48210639531254,121.39070045399194L455.42906428541676,123.22071437605918L462.32997445651046,125.23937550849439L469.18067178828124,127.15851891066508L476.0679296205729,128.92964447260647L482.7274942091145,130.6518296546981L489.2697412421875,132.35001816478388L495.8078231549479,133.8115792147753L502.59095297942713,135.26441137937678L509.5187050369792,136.6836948388221L516.4193838125,138.0456932097109L523.3068730403646,139.36917762135383L530.1341994192709,140.6866126682293L536.9462536903646,141.95013379662964L543.82587546875,143.09840861395043L550.7478426369793,144.26652873436103L557.6061760226562,145.41095544328078L564.4589559145834,146.51766819444566L571.3635684148437,147.58215044589562L578.3086751403646,148.63161467286233L585.2324934731771,149.69576829155818L592.1796827588541,150.85546043572896L599.2097116596354,151.6206503539663L606.191378885677,152.5229279354054L613.0323576033854,153.42316990169275L620.0566016148437,154.3810360631786L626.992221121875,155.30984686226645L633.8794789541666,156.25485354286596L640.3867852557293,157.20989472663544L646.8730345601564,158.0218319797544L653.3803408617188,158.80204954765216L659.9087041604166,159.59955971141127L666.4025895187499,160.38603067282054L672.938820266927,161.15346271996341L679.4752824106771,161.88909111506146L685.9573665947917,162.592234950046L692.451251953125,163.26827247170775L699.0416292653646,163.9080295384846L705.7069787432291,164.53387326598798L712.5903028507813,165.15301462110534L719.5104188544271,165.70932985578818L726.4094778609375,166.29576831703596L733.3372299184896,166.86958062565412L740.2224051906251,167.42734900114135L747.0943909151043,167.99236623347366" style="fill: none;" fill="none"></path></g><g><path stroke="rgb(204, 51, 17)" stroke-width="2px" d="M238.72294512864585,-2.96079338516319L245.5322226528646,2.4860069011686257L252.38014323776042,8.5663130330801L259.18826378411455,15.274163409321881L265.96977383958335,14.894721532809779L272.8496270135417,20.058208002506433L279.77714767552084,26.03658867934222L286.4781320716146,31.91329038020135L292.97710813255213,37.67085707979864L299.4480853291667,43.29809553741049L305.9301695132812,48.77896012521438L312.4356246502604,53.66494805614516L318.9181716255208,58.273606252571106L325.39539650260417,62.661380686202186L331.8950667502604,66.86660036277308L338.3942742067709,70.88193984497829L345.14778539791666,74.68788369221159L352.0549432494792,78.35961829052452L358.9253092049479,82.14837818830217L365.77230420755205,85.70310765946621L372.6764539166667,89.07369974176957L379.5405721916667,92.22379596469167L386.3739148554688,95.09616314146315L393.17115980989587,97.75536789810148L400.0304187778646,100.35335008683796L406.8466381692709,102.8414862888448L413.7151529601562,105.33611617882225L420.6949690216146,107.74776232965887L427.6370676046875,110.09751126630978L434.59258713098956,112.396302833141L441.53838804322925,114.61515283544453L448.47562731927087,116.74009710671552L455.4286014942709,118.71377472329331L462.31771049114593,120.69364500106671L469.18113457942707,122.70122423114452L476.05612844635414,124.60010270140754L482.7284197914062,126.43200218680224L489.27089822005206,128.20864498703875L495.80805455052086,129.83330479956652L502.5902587927083,131.37716169213283L509.50944921406244,132.87498096170802L516.4149872966145,134.3252890197053L523.2953032617188,135.72382856057317L530.1348936059895,137.0995196078048L536.9460222947916,138.49817402323046L543.8136115033855,139.7780749912498L550.7362728583333,141.0311101595093L557.6068702093751,142.23781354099134L564.4587245190104,143.40772850832332L571.3640312059896,144.5413135346981L578.3026588554687,145.65280459994966L585.2334190554689,146.754458587783L592.1806083411458,147.86425168376826L599.2057779348958,148.82018586768876L606.1925358635417,149.73787520145277L613.0330517901042,150.67391892023164L620.0452632317708,151.64448646462003L626.9919897263021,152.6151311325086L633.878553371875,153.59856928730542L640.3865538601563,154.57590004372568L646.8688694398438,155.48178643348115L653.3808036528645,156.32526028327752L659.9098611382813,157.14055194037206L666.4023581231771,157.94609686514005L672.9392830580729,158.7652015164604L679.4750510151041,159.56072171074385L685.9566724080729,160.3249597368635L692.4514833486978,161.04657176038413L699.0418606609375,161.75384873632126L705.707672929948,162.4321526032068L712.591228433073,163.09388101423406L719.5101874588541,163.7234354922112L726.4013790158855,164.34901289516358L733.3372299184896,164.97636768085476L740.2235621684896,165.59446291049863L747.0946223106771,166.20926781861718" style="fill: none;" fill="none"></path></g><g><path stroke="rgb(238, 51, 119)" stroke-width="2px" d="M166.6048125,305.94446376800533Z" style="fill: none;" fill="none"></path></g><g><path stroke="rgb(51, 187, 238)" stroke-width="2px" d="M166.6048125,305.09509065628055Z" style="fill: none;" fill="none"></path></g></g></g></g><g opacity="0.2"><g><g><g><path stroke="rgb(0, 119, 187)" stroke-width="2px" d="M166.6048125,329.36438794612883L173.89978933177085,332.1711823940277L181.21073245807295,331.91704493522644L188.5422697903646,332.3927226448059L195.88098038541668,332.19079028606416L203.20812120182293,332.2657566547394L210.60259812994795,331.9100253152847L217.98550527942712,332.2938261222839L225.25086347786458,332.3022858953476L232.53542750885416,332.13385106563567L239.85956018281252,332.3269081878662L247.14227304921874,332.2508252048492L254.46062083385416,332.30493188381195L261.7748034981771,332.31026351451874L269.06237567161463,332.2326115036011L276.3818804341146,332.27832059383394" style="fill: none;" fill="none"></path></g><g><path stroke="rgb(255, 112, 67)" stroke-width="2px" d="M166.6048125,269.1695932388306L173.9183009776042,330.9668845367432L181.22947549947918,332.39902489185334L188.560550040625,332.36914036273953L195.89416993307293,332.6536264801025L203.22663284765628,332.57082758903505L210.61000278828126,332.5035189056397L218.00355413411458,332.66625215291975L225.27122628828127,332.5342532873154L232.54329495833338,332.64342509508134L239.86418809427084,332.57351863861084L247.16032190390624,332.78123729467393L254.47797550182293,332.7994496440888L261.7727209380208,332.7211365866661L269.0811187130208,332.8065138745308L276.3874339278646,332.78983946084975" style="fill: none;" fill="none"></path></g><g><path stroke="rgb(187, 187, 187)" stroke-width="2px" d="M166.6048125,165.20835319519043L173.91644981302085,146.2163275909424L181.24150806927085,136.73985328674317L188.5684174901042,108.73918144226074L195.8992606356771,96.58359695434572L203.23496308828126,82.99022415161133L210.58616904427083,73.87524810791015L217.91909475,80.1891389465332L225.26544139895833,63.54461700439451L232.62127526640626,45.48383514404297L239.97340680468753,61.18104995727539L247.26861503203125,71.30833648681639" style="fill: none;" fill="none"></path></g><g><path stroke="rgb(0, 153, 136)" stroke-width="2px" d="M166.6048125,221.73207412719725L173.91644981302085,165.35251991271974L181.2424336515625,141.50767936706544L188.56888028125002,132.35652465820314L195.89972342682293,113.87681144714355L203.23519448385417,108.01442573547365L210.57598763906253,101.67385871887207L217.91863195885418,95.79819259643553L225.26544139895833,94.71289031982424L232.6131764213542,88.65090911865236L239.9741009914063,92.81957382202148L247.23459988281252,105.20954818725586" style="fill: none;" fill="none"></path></g><g><path style="fill: none;" fill="none" stroke="none" stroke-width="1px"></path></g><g><path style="fill: none;" fill="none" stroke="none" stroke-width="1px"></path></g><g><path stroke="rgb(51, 187, 238)" stroke-width="2px" d="M166.6048125,333.9345079493523L173.90603701223958,334.5977390170097L181.2549290125,334.6332823204994L188.62256405416667,334.64768249988555L195.99390142500002,334.6807483434677L203.35181785260417,334.6797700667381L210.69862729270835,334.70112002134323L218.05399836901043,334.71531291961674L225.3927089640625,334.71447478294374L232.76404633489585,334.7127926516533L240.15667209843753,334.6960736274719L247.54721530182294,334.72272862672804L254.91114801432292,334.705168762207L262.30446796458335,334.6840950322151L269.67325998411457,334.6592573475838L277.088793909375,334.6150888967514L284.41963705494794,334.6628194284439L291.60585796744795,334.6251411294937L298.78050910130213,334.6821213555336L305.9898695710938,334.63697237491607L313.2823010515625,334.51751672029496L320.5881534752604,334.39260191202163L327.81486861302085,334.3618030929565L335.1066059067708,334.5134328317642" style="fill: none;" fill="none"></path></g><g><path stroke="rgb(204, 51, 17)" stroke-width="2px" d="M166.6048125,332.05553124904634L173.90626840781252,333.846224219799L181.25585459479169,334.2175777959824L188.62325824088543,334.2847612094879L195.99690956744794,334.3398686957359L203.35181785260417,334.38875279188153L210.69307379895835,334.42936637163166L218.04821347968752,334.4666499352455L225.3943287330729,334.5102533197403L232.75849284114585,334.559181125164L240.1520441869792,334.61071661710736L247.53055482057292,334.66177130699157L254.9120735966146,334.7273041319847L262.28734469218756,334.8053765630722L269.67418556640627,334.89249726533893L277.0890253049479,334.98105812072754L284.42102542838546,335.0581405591965L291.58572655260417,335.14030724287034L298.7814346835938,335.21131994962695L305.9847788684896,335.2871213006973L313.27073127291663,335.390290517807L320.56941043385416,335.4831605672836L327.81602559088543,335.5614249587059L335.0698140106771,335.62188615560535" style="fill: none;" fill="none"></path></g><g><path stroke="rgb(255, 112, 67)" stroke-width="2px" d="M166.6048125,333.11162851810457L171.24521931927083,333.232600479126L175.89511335703128,333.6313696861267L180.54708995494795,334.09131656169893L185.28005500338543,334.17699395656587L190.0014502731771,334.21615386486053L194.71335832447917,334.25509387493133L199.52522926328126,334.2969227528572L204.34705021171877,334.44071546316144L209.1357815932292,334.6456331205368L213.9691723203125,334.6750179219246L218.79215024661463,334.69334562778477L223.62600376484377,334.6985123348236L228.48322823593747,334.6960641646385L233.3309654885417,334.69405849456786L238.17777715885418,334.6969388008118L243.07850399765627,334.69501514196395L247.97344594713542,334.69560499191283L252.83298437395834,334.69510841846466L257.7589333302083,334.706270506382L262.6353636338542,334.70556935548785L267.4409868921875,334.69574558258057L272.2401310744792,334.70180585145954L277.07537296614584,334.7084645318985L281.9406962822917,334.7033870458603L286.81111030104165,334.7059230852127L291.7581162544271,334.70240651607514L296.5933581460938,334.69573611974715L301.4207325882813,334.6944302487373L306.26569309401043,334.7046960711479L311.08288613098955,334.70062074422833L315.94381293125,334.69663508892063L320.772575746875,334.69731731414794L325.6679804875,334.7055657505989L330.5629224369792,334.7008546113968L335.500441171875,334.70279404163364L340.4108866247396,334.7055833244324L345.25561573489585,334.704172911644L350.18596120703126,334.7034104776382L355.0563752257812,334.7078395342827L359.8980961934896,334.70277917146683L364.7428253036458,334.69592853069304L369.64378353802084,334.6966733908653L374.5445103768229,334.6946501469612L379.4739302666667,334.70318021535877L384.3131058830729,334.7006464290619L389.14071172083334,334.702480866909L393.9808129195313,334.70247455835346L398.838037390625,334.69998042583467L403.6654118328125,334.6998303723335L408.5103723385417,334.71141288042065L413.3588037778646,334.7104188323021L418.2134828976562,334.709977684021L423.0600631723958,334.69471458435055L427.87795039609375,334.68698480129245L432.73054695572915,334.70041841983794L437.5849946799479,334.697187538147L442.4278726255208,334.69225605010985L447.24182612447925,334.6746285939216L452.09234012395837,334.6661233091354L456.9141610723958,334.6635877203941L461.74940296406254,334.6445548081398L466.60755301744786,334.6545272827148L471.5274856888021,334.6878454685211L476.3666613052083,334.66612916707993L481.2442485867188,334.656920478344L486.1199847036459,334.65093861579896L490.9910929091147,334.6446751213074L495.8617383234376,334.6405678009987L500.70854999375,334.6309098529816" style="fill: none;" fill="none"></path></g><g><path stroke="rgb(187, 187, 187)" stroke-width="2px" d="M166.6048125,325.0588176727295L171.24498792369792,332.54517429828644L175.89465056588543,332.7903815460205L180.5440818125,333.27946043014526L185.2795922122396,333.46135501384737L190.00214445989585,333.5305914115906L194.71335832447917,333.5842416214943L199.52360949427086,333.6331423902511L204.3461246294271,333.7138684701919L209.13369903307293,334.09769946813583L213.9691723203125,334.2019244670868L218.78752233515627,334.2400006556511L223.6236898091146,334.26147407770156L228.48114567578128,334.280452466011L233.32818874166668,334.2899193549156L238.17823995,334.3000148463249L243.07850399765627,334.3146984601021L247.9713633869792,334.33624668359755L252.83529832968748,334.3501818323135L257.76032170364584,334.36999925851825L262.63513223828124,334.38022272348405L267.44144968333336,334.39201251268383L272.2403624700521,334.40031997919084L277.074910175,334.39147989034655L281.9413904690104,334.3818228435516L286.8085649497396,334.4046467471123L291.75765346328126,334.41613237380983L296.5908127947917,334.4238143920898L301.41934421484376,334.43439248800274L306.2643047205729,334.4511646842957L311.08265473541667,334.4647271776199L315.9445071179688,334.4762524580956L320.77303853802084,334.48317654848097L325.665203740625,334.4826948451996L330.56014569010415,334.48191889286045L335.500441171875,334.48880332946777L340.41134941588547,334.5028727602959L345.2560785260417,334.51592921733857L350.1841100424479,334.5239289164543L355.0522101054688,334.5202514791489L359.8971706111979,334.51675789117814L364.7405113479167,334.52145956754686L369.6430893513021,334.52317504405977L374.5445103768229,334.53231073379516L379.4475511713542,334.5524368286133L384.31287448750004,334.5689765095711L389.1409431164063,334.58410532712935L393.9828954796875,334.6000650715828L398.8366490171875,334.6135892629623L403.66448625052084,334.6163708853722L408.5082897783854,334.6147585988045L413.3571840088542,334.61386683940884L418.2134828976562,334.6242272901535L423.05798061223965,334.6455024433136L427.87795039609375,334.6585503387451L432.7312411424479,334.6620065259934L437.58568886666677,334.6616167473793L442.4285668122397,334.68041444063186L447.24090054218755,334.69629307508467L452.0916459372396,334.7062502288818L456.9141610723958,334.7122739982605L461.74940296406254,334.7202858638763L466.60755301744786,334.73197922229764L471.5251717330729,334.72312967062L476.3638845583333,334.73307240486145L481.2442485867188,334.7550915169716L486.11929051692704,334.7714356327057L490.9936382604167,334.78904641628264L495.8619697190104,334.8031509947777L500.70901278489583,334.81481145858766" style="fill: none;" fill="none"></path></g><g><path stroke="rgb(0, 153, 136)" stroke-width="2px" d="M166.6048125,333.1126144552231L171.25840886692708,333.23550151348115L175.99715880468753,333.68018258571624L180.71114941614584,334.09736691713334L185.49386451276044,334.17361978054043L190.36983202526042,334.23271021842953L195.2245111450521,334.27818769454956L200.06507513489584,334.3117681360245L204.89082980807294,334.3262665486336L209.72792286432295,334.4660312461853L214.55159497734374,334.5167434716225L219.40812526171874,334.53674970388414" style="fill: none;" fill="none"></path></g><g><path stroke="rgb(238, 51, 119)" stroke-width="2px" d="M166.6048125,325.35145804882046L171.25910305364584,332.5542955684662L175.99785299140626,332.8249375605583L180.71091802057293,333.31787728071214L185.49386451276044,333.47232018470766L190.37029481640627,333.5480512404442L195.22381695833334,333.6150868535042L200.06345536588543,333.6682490515709L204.8903670169271,333.70902440071103L209.72699728203128,333.89946437358856L214.55367753750002,334.1928829550743L219.3859112867188,334.24164268255237" style="fill: none;" fill="none"></path></g><g><path stroke="rgb(51, 187, 238)" stroke-width="2px" d="M166.6048125,305.9494673538208L190.08637244843752,305.9751918411255L213.8076582104167,305.9780397033692L237.56249633046875,305.97822715759276L261.2027936419271,305.97671670913695L284.85350375416664,305.9731586837769L308.49889176822916,305.97416444778446L332.15608095651044,305.97323438644406L355.73667821015624,305.9730361175537L379.2934417197917,305.9529388618469L402.96520882916667,305.9670628166199L426.605506140625,305.9541537094116L450.5512456083334,305.95560287475587L474.28734068697923,305.9662156677246" style="fill: none;" fill="none"></path></g><g><path stroke="rgb(204, 51, 17)" stroke-width="2px" d="M166.6048125,305.07457162857054L190.07873639453126,305.9353325843811L213.7981709919271,305.9491320991516L237.53958816875004,305.9553000640869L261.1970087526042,305.9605055236816L284.8460990958334,305.9637931823731L308.47991733125,305.96226470947266L332.14867629817707,305.9670952606201L355.7276537828125,305.9688075828552L379.284185896875,305.9694708824158L402.94484601875,305.9732524108887L426.59879566901037,305.9744312095642L450.5250979085938,305.97794237136844L474.25725926250004,305.97891569137573" style="fill: none;" fill="none"></path></g><g><path stroke="rgb(255, 112, 67)" stroke-width="2px" d="M166.6048125,305.91492891311646L181.1413137861979,305.97002964019777L195.79258727656253,305.97656169891354L210.48736313463542,305.9785335731506L225.29829957031254,305.9767203140259" style="fill: none;" fill="none"></path></g><g><path stroke="rgb(187, 187, 187)" stroke-width="2px" d="M166.6048125,304.87161638259886L181.141082390625,305.92364553451534L195.7923558809896,305.94421503067014L210.4871317390625,305.9513995742798L225.29968794375003,305.9570772743225" style="fill: none;" fill="none"></path></g><g><path stroke="rgb(187, 187, 187)" stroke-width="2px" d="M166.6048125,305.9713274002075L206.60269425651043,305.97936630249023L246.5068608059896,305.9784686851502L286.3665994054688,305.9712553024292L326.1636298046875,305.97338939666747L365.8458879997396,303.1155055618286L405.4848752226562,305.17093030929567L445.3186975179687,305.4827315711975L485.2605815458333,305.61024730682374L524.9861107130208,305.64118446350096L564.6116769927085,305.71987918853756L604.244879326302,305.26148151397706L643.8963619101562,305.7699619102478L683.632535273698,305.1898523712158L723.4325738153645,305.7992480278015L763.1187657351562,304.77967729568485L802.7829750755209,305.8168579101562L842.370823876823,305.8175031852722L882.1072286359376,305.34692819595335L922.0137091411458,305.8370200538635L961.7998639484375,305.8470055961609L1001.5601024515626,305.84485708236696L1041.2791525427083,305.85618364334107L1080.9671956270834,305.85278062820436L1120.8049516471356,305.85888010025025L1160.6126262427083,305.8574669837952L1200.2976611846354,286.83806224823L1240.064147368229,305.86225788116457L1279.7271997307291,305.58146587371823L1319.487669629427,305.759651927948L1359.3196407601563,303.3945383834839L1399.0560455192708,305.80846572875976L1438.6804548210937,304.4232078552246L1478.3451269526042,305.7854124641418L1518.1840399505209,305.62021121978756L1558.0176308502605,305.8608916282654" style="fill: none;" fill="none"></path></g><g><path stroke="rgb(0, 153, 136)" stroke-width="2px" d="M166.6048125,305.29018363952633L206.62074311119792,305.9455560493469L246.52699222083334,305.9538869476319L286.3844168645834,305.9578523254395L326.17450539661456,305.96033248901364L365.81927750885416,-2498.908073730469L405.51102292239585,304.39533485412596L445.32401961614585,305.25513690948486L485.2779362138021,305.46458456039426L525.01063864375,304.3087814712525L564.62926305625,305.60774551391603L604.2696386526042,304.1247302627563L643.869751419271,305.6652290725708L683.6454934257812,303.8667247581482L723.4383587046874,305.68009202957154L763.1324180739583,303.94864946365357L802.802180908073,305.7038482475281L842.3835506333335,303.95787437438963L882.1245833039063,305.76118400573733L922.0150975145833,302.36130151748654L961.8186069898438,305.78000873565674L1001.5783827018228,302.42583623886105L1041.2865572010417,305.7915191459656L1080.9704351651042,302.1085339164734L1120.8241574796875,305.8003258895874L1160.6248902080729,302.57803825378414L1200.323577488802,302.9368652915955L1240.0824276184896,304.4887411308288L1279.7216462369793,303.9798281478882L1319.4943801010415,302.73095764160155L1359.3386151971354,305.7134624862671L1399.07501995625,303.18678142547606L1438.699429258073,302.22422561645504L1478.2932943442709,304.00782732009884L1518.2030143875,303.7124319076538L1558.026886673177,303.935152759552" style="fill: none;" fill="none"></path></g><g><path stroke="rgb(255, 112, 67)" stroke-width="2px" d="M166.6048125,333.0870990514755Z" style="fill: none;" fill="none"></path></g><g><path stroke="rgb(187, 187, 187)" stroke-width="2px" d="M166.6048125,325.26985417842866Z" style="fill: none;" fill="none"></path></g><g><path stroke="rgb(204, 51, 17)" stroke-width="2px" d="M166.6048125,292.302414150238L171.17718902083334,305.85472005844116L175.765300440625,315.8001237201691L180.35063511354167,320.81200618743895L184.95031631197918,321.640853061676L189.59002894453127,322.4259383869171L194.21308109583336,323.9401900005341L198.86505769375,324.1630550479889L203.49389473437503,323.639127702713L208.12735968645836,324.32004976272583L212.77285720833333,324.5129239368439L217.42923032213545,324.674633846283L222.0883801828125,324.5349606227875L226.80769289244793,325.0697963619232L231.53093932682293,325.20401628971103" style="fill: none;" fill="none"></path></g><g><path stroke="rgb(0, 119, 187)" stroke-width="2px" d="M166.6048125,302.8325001525879L171.17070994479167,300.8825544548035L175.7655318361979,313.28612826347353L180.35063511354167,321.00209378242494L184.9505477075521,324.5585456085205L189.5671207828125,324.60853640556337L194.2126183046875,326.28706190586087L198.86552048489585,326.9502352952957L203.49458892109377,327.4061293745041L208.1213434015625,327.8927911806107L212.77285720833333,328.17937354087826L217.42969311328125,328.50788887023924L222.0865290182292,328.6902457809448L226.80723010130208,328.3243270254135L231.53140211796878,328.8238781118393" style="fill: none;" fill="none"></path></g><g><path stroke="rgb(0, 119, 187)" stroke-width="2px" d="M166.6048125,297.9354243850708L173.57190180494794,303.1250477027893L180.71947965677086,304.57668600082394L187.7603841494792,305.7148179244995L195.06808773776044,306.78027889251706L202.26402726432292,307.8803576087952L209.41160511614584,308.8889875030518L216.33750600911458,309.9648215389252L223.40085587239582,310.99461753845213L230.36725099062502,312.0352318096161L237.53426607057293,313.063677778244L244.47474488463544,314.08347922325135L251.43535511354168,315.11626547813415L258.3998990671875,316.05203155517574L265.4856943010417,317.0826440620422L272.52359065130213,318.0729430961609L279.5677346820313,319.0688927936554L286.57184727864586,319.95984649658203L293.54472147291665,320.78665120124816L300.4937619231771,321.5009184837341L307.4696442598958,322.21057331085206L314.4688975494792,323.03951751708985L321.5433544002604,323.5801445102692L328.60022518750003,324.0505122184754L335.58721451171874,324.54788595199585L342.62487946640624,325.0036160087585L349.8559911200521,325.3591166353226L357.3270599828125,325.66194803237914L364.623193792448,325.90361708164215L371.94454971953127,326.1106467533112L379.09976362526044,326.13261765003205L386.21147516328125,326.1051655197143L393.3791844299479,326.2041882133484L400.5455053231771,326.224914522171L407.70257039348957,326.396041302681L414.83487613750003,326.40613318920134L421.9653307169271,326.5211075162888L429.1031899546875,326.5483541679382L436.26951084791665,326.64189562797543L443.8150890851563,326.650543756485L451.0841496127604,326.68562563419346L458.2233972239584,326.720432639122L465.36935530677084,326.77568567276L472.5303541018229,326.8476545763016L479.77627507213543,326.77558113098144L486.9992878807292,326.7822213363647L494.24196931302083,326.88364578723906L501.41222393098957,326.94973061084744L508.55609945364586,326.9130121135712L515.6902563622397,326.98041632652286L522.8531063218751,327.1005041885376L529.9611155307292,326.95434216499325L537.0751410244792,327.17162143707276L544.2081409552083,327.31252212524413L551.3846432536458,327.23985928058624L558.5528153114583,327.2328811168671L565.7765223067709,327.3264027500153L572.9877339411458,327.31777985572813L580.1663187997395,327.369820933342L587.3807699721355,327.35607459068297L594.7065224151042,327.26278186798095L602.3576170335937,327.2333001852035L610.0117197945312,327.20490447521206L617.6750783783855,327.2666048526764L625.3858730546875,327.33265182495114L633.0881060947917,327.157864279747L640.7199948807291,327.10740935325623L648.3939976609374,327.0992145395279L656.0265806335937,327.19601662158965L663.687162470573,327.2878773021698L671.3530664057291,327.2665066194534L679.1050494940105,327.19238739967346L686.8422232656251,327.12199923992154L694.5807854106771,326.96735401153563L702.2908859002605,327.21365083694457L710.0266712984375,327.2614057016373L717.786521836198,327.2143628025055L725.5378107377603,327.2475043487549L733.1539646247396,327.15106095314025L740.3607797432292,327.19984771728514L747.5844867385416,327.21963405132294L754.7852855721355,326.99697808742525L762.0427763210938,327.02670580387115L769.2579216802085,327.20807317256924L776.4520100421876,327.30167501449586L783.6845100692709,327.31645596027374L790.9401496536459,327.26310720920566L798.1823682947917,327.144483833313L805.6675522875,327.0583828639984L813.3963958184896,327.00558025360107L820.8885216783854,327.1098886156082L828.0678007236979,327.2751277112961L835.1325389604166,327.28555755615236L842.1857074184896,327.225801115036L849.2099514299479,327.187470331192L856.2804745559896,327.16661695003506L863.3391965078124,327.2668869352341L870.382183560677,327.21495310306545L877.6287987177083,327.16765065193175L884.8411673299479,327.04246457576755" style="fill: none;" fill="none"></path></g><g><path stroke="rgb(255, 112, 67)" stroke-width="2px" d="M166.6048125,137.07910217285158L173.57074482708333,301.2653540039063L180.7206366346354,303.8127487564087L187.76107833619795,305.0565075302124L195.0678563421875,306.1567989349365L202.26449005546877,307.21513664245606L209.40998534713543,308.2435465621948L216.33820019583334,309.27233860015866L223.4043268059896,310.2891443824768L230.36794517734378,311.30634850502014L237.5266300166667,312.30865542411806L244.47543907135417,313.3100557136536L251.43466092682294,314.2791904449463L258.3998990671875,315.23806025505064L265.4877768611979,316.24686498641967L272.52359065130213,317.2353814029693L279.56796607760424,318.2018701457977L286.5723100697917,319.12746683120724L293.5449528684896,319.96713377952574L300.4949189010417,320.72834032058717L307.4721896111979,321.4475913619995L314.4418242674479,322.09340901374816L321.53756951093754,322.77403186798097L328.60068797864585,323.31524465560915L335.58142962239583,323.8137142753601L342.625573653125,324.2163569355011L349.8566853067709,324.6340842533112L357.32775416953126,324.94644066810605L364.62296239687504,325.1586721944809L371.94478111510415,325.36863083839415L379.1006892075521,325.34560280799866L386.21355772343753,325.5254038524628L393.3491030054688,325.6315579175949L400.54573671875,325.7020614337921L407.70511574479167,325.7237006807327L414.83533892864585,325.7986886787415L421.965793508073,325.87561610698697L429.10388414140624,325.9366585922241L436.26904805677077,325.9457708501816L443.81532048072916,326.0012789297104L451.0843810083333,326.0713768959045L458.2233972239584,326.13193181991574L465.3705122846354,326.12996715545654L472.5285029372396,326.1727689027786L479.755218075,326.18949378490447L486.99905648515625,326.2185131406784L494.2452088510417,326.2065250825882L501.3909355382812,326.3449744462967L508.55563666250004,326.361154088974L515.6904877578124,326.3325934553146L522.8540319041667,326.4689222431183L529.9608841351563,326.4522937917709L537.0749096289063,326.44758039951324L544.2118432843749,326.5800798940659L551.3848746492189,326.739920668602L558.5525839158855,326.7284021472931L565.7767537023437,326.8484098005295L572.9884281278646,326.85675241470335L580.1667815908854,326.8484873056412L587.3814641588541,326.8783493041992L594.706753810677,326.90488308906555L602.3578484291668,326.96426191806796L610.0117197945312,326.96476299762725L617.6780865208333,327.0107767009735L625.3863358458333,326.9131481981277L633.0888002815104,326.8522598218918L640.720689067448,326.8598345947266L648.3946918476563,326.96685653686524L656.0282004026042,326.9551812028885L663.6878566572917,326.9642303752899L671.353760592448,327.0125503063202L679.1089832187499,327.0292211151123L686.842454661198,327.00805591106416L694.581248201823,327.03386511325834L702.2911172958333,326.98216559886936L710.0273654851563,326.932409119606L717.786753231771,327.0375790500641L725.5380421333333,327.0939144515991L733.1546588114583,327.12609169006345L740.3633250945312,327.1093785238266L747.5877262765625,327.12506339550015L754.7857483632813,327.1760428333282L762.0430077166667,327.15081852436066L769.2583844713541,327.1135917377472L776.4522414377604,327.07232387065886L783.6842786736979,327.072835764885L790.9401496536459,327.1449209260941L798.1823682947917,327.144901099205L805.6675522875,327.15381328582765L813.3966272140625,327.1363962650299L820.8887530739584,327.0833953857422L828.0541483848958,327.1149462747574L835.1360098940105,327.1274498319626L842.1590969276043,327.1309204387665L849.2134223635418,327.15166296958927L856.2809373471355,327.1501912736893L863.3299406848959,327.1567710971832L870.382183560677,327.1774838876724L877.6292615088541,327.21638154029847L884.8411673299479,327.1856255292892" style="fill: none;" fill="none"></path></g><g><path stroke="rgb(187, 187, 187)" stroke-width="2px" d="M166.6048125,298.7665783882141L172.15344694296877,303.6719273757935L177.72151861406252,304.85216079711915L183.32244845651041,305.9225532531738L188.94836902083335,306.93610021591184L194.54536513854168,307.9901697349548L200.15601359505212,309.543000869751L205.78957021328125,314.96194739341735L211.46755478151042,318.2029480075836L217.1707614671875,319.5900569915771L222.98573221458338,320.5698135280609L228.76969595520833,321.6846849060058L234.55389109140623,322.3076800060272L240.35520950000003,322.65647283554074L246.1683290828125,322.9557633304596L251.96571376666668,323.3980129051209L257.7806845140625,323.6781452178955L263.57853198906247,323.81513640403745L269.4087748442708,324.1667644786835L275.24873631354166,324.27556723594665L281.0542198424479,324.43093975067137L286.8765952481771,324.63614985466L292.6799962169271,324.85880041122437L298.49126463515626,325.01824464797977L304.3215074903646,325.03619338989256L310.13277590859377,325.0376858139038L315.94173037109374,325.2405689620972L321.7763697421875,325.3116041994095L327.575605590625,325.52914392471314L333.3905763380208,325.345084605217L339.1745400786458,325.3528279066086L345.0325504026042,325.44441101074216L350.8546944127604,325.58660134792325L356.67336748932297,325.5762868595123L362.50754406927086,325.7213656139374L368.3361671554688,325.76199811935425L374.1819135140625,325.78332644462586L380.0295110372396,325.7932777404785L385.8386968953125,325.81656712532043L391.6633862567709,325.9130591869354L397.50149656145834,325.87716350555417L403.38773714531254,325.9270948219299L409.2200625606771,325.951581029892L415.0831635872396,325.94972180843354L420.9483471739584,326.0791679620743L426.80172958645835,326.0032625198364L432.63590616640624,326.1730879354477L438.4876688098959,326.17973625183106L444.3084244466146,326.1302988052368L450.1368161372397,326.3250754594803L455.9517868846355,326.2083915138245L461.76097274270836,326.1730455780029L467.6914098809896,326.46642765998837L473.52766902109374,326.28155003070833L479.3118641572917,326.2986083650589L485.0861092838541,326.4754407835007L490.85688347682293,326.38213003635406L496.6177076601562,326.2999827289581L502.39611790703134,326.3949904775619L508.2032212049479,326.3362055540085L513.9776977270833,326.46532636642456L519.7463893598959,326.48813630104064L525.5227170466146,326.39193893909453L531.2990447333333,326.5656603384018L537.1061480312501,326.472872300148L542.8866408382812,326.48153755187985L548.6435312968749,326.59383705139163L554.427726433073,326.4617485141754L560.1964180658854,326.5765876579285L565.9651096986979,326.5114878702164L571.7395862208333,326.54829288482665L577.5254011260416,326.59259606838225L583.2980264835937,326.51598406791686L589.084072784375,326.40289599895476L594.8506818570312,326.41128547668455L600.62700954375,326.61609183311464L606.3938500119792,326.58639115333557L612.1664753695313,326.44666475772857L617.9215146635418,326.46801741600035L623.6862725716146,326.52183660507205L629.4357583718751,326.60374959468845L635.2042186091146,326.6198192882538L640.9497706846354,326.5686019277573L646.7068925388022,326.50855168819425L652.4755841716145,326.4833499097824L658.2595479122396,326.4887806749344L664.0571639916668,326.53772064685825L669.837425403125,326.50108506202696L675.6831717617188,326.4727704620361L681.4634331731772,326.49057500839234L687.2668341419271,326.54975556850434L693.0741688354167,326.41121067523954L698.8273569648438,326.53808924674985L704.6344602627605,326.51604805469515L710.4357786713542,326.61458228588106L716.2141889182292,326.3944695711136L722.0118049976562,326.7586075115204L727.8209908557292,326.5946643733978L733.6031034317708,326.7457029104233L739.4007195111978,326.6800182294846" style="fill: none;" fill="none"></path></g><g><path stroke="rgb(0, 153, 136)" stroke-width="2px" d="M166.6048125,163.00753967285158L172.15529810755208,302.06417936325073L177.7224441963542,304.22269311904904L183.3233740388021,305.32438682556153L188.94883181197918,306.33594749450685L194.54767909427082,307.2432872200012L200.15717057291667,308.84179229736327L205.78933881770834,312.6104495143891L211.468711759375,316.4065777873993L217.17029867604165,318.4537112903595L222.98642640130208,319.9221663951874L228.77108432864586,320.86393280982975L234.54926317994793,321.6284774780274L240.35497810442712,322.11752752304074L246.16902326953127,322.5515237045288L251.9668707445313,322.88052929878233L257.78230428307296,323.13310223579407L263.5783005934896,323.3733825016022L269.39928762578126,323.6022731208801L275.2489677091146,323.8211403465271L281.0470465796875,323.97212030410765L286.8779836216146,324.19136604309085L292.6802276125,324.30849068641663L298.49149603072914,324.44455541610716L304.3182679523438,324.6000522994995L310.1313875351563,324.6662759113312L315.94149897552086,324.79397008895876L321.76456856796875,324.8744167900086L327.5769939640625,324.9213596534729L333.3921961070313,325.1204928159714L339.17153193619794,325.09975749492645L344.99714687994793,325.14185088157654L350.8556199950521,325.1768534517288L356.67313609375003,325.2509501409531L362.5031475533854,325.280430021286L368.33015087057294,325.38600460052487L374.18214490963544,325.4537485742569L380.0207180054688,325.50131958961487L385.8393910820313,325.5072955942154L391.66361765234376,325.55375179767606L397.50242214375,325.6021663570404L403.32387196718753,325.6523680400848L409.2216823296875,325.7716411972046L415.0667345015625,325.77142310142517L420.94904136067714,325.79514417171475L426.80288656432293,325.842609744072L432.6363689575521,325.8811577224732L438.4592071544271,326.0518618297577L444.30935002890624,326.04112286567687L450.13403939036465,326.0780891990662L455.9529438625,326.0879251384735L461.7616669294271,326.04582544326786L467.69279825442715,326.12160291194914L473.52766902109374,326.16606651306154L479.31116997057285,326.1174816226959L485.08286974583336,326.18931894779206L490.8575776635417,326.25411051750183L496.6177076601562,326.1598949432373L502.39565511588546,326.238971786499L508.1821642078125,326.22578330039977L513.978623309375,326.30762329101566L519.7466207554687,326.3430242013931L525.5234112333334,326.2627370166779L531.2937226351562,326.3264804649353L537.108693382552,326.3500492286682L542.887335025,326.34917954921724L548.6435312968749,326.40401441574096L554.4254124773438,326.3603655195236L560.19757504375,326.33811794757844L565.9653410942709,326.43303016662594L571.7407431986979,326.3956681966782L577.5254011260416,326.4761437368393L583.2977950880208,326.4499677371979L589.0843041799478,326.390996260643L594.8509132526043,326.35772313594816L600.6193734898438,326.37984093189243L606.394081407552,326.51834166526794L612.1748056101563,326.4845025730133L617.9305390908855,326.3957177639008L623.685346989323,326.42187483787535L629.4436258213541,326.5075306034088L635.2118546630209,326.55296301841736L640.9569439473959,326.5406622362137L646.7156855705729,326.5253630876541L652.4839144122396,326.49111574172974L658.2683409440104,326.46039487838743L664.0652628367188,326.4639132499695L669.8455242481771,326.4649893093109L675.6915020023438,326.4384104633331L681.4726889960938,326.548664188385L687.275395778125,326.5607883310318L693.0794909335938,326.53596506595613L698.8356872054687,326.56872539520265L704.6434846901042,326.5279351758957L710.4434147252604,326.54032067298886L716.2218249721353,326.4914104413986L722.0201352382812,326.54083166599276L727.8286269096353,326.6455608987808L733.6114336723958,326.6157935285568L739.3995625333333,326.6541901016235" style="fill: none;" fill="none"></path></g><g><path stroke="rgb(238, 51, 119)" stroke-width="2px" d="M166.6048125,332.6676823925972L171.19870880911458,333.2975375962257L175.79862140312503,333.57806284189223L180.44874683645833,334.2528674054146L185.12178043151042,334.6764278841019L189.76612097552083,334.67925366640094L194.408378959375,334.72321618795394L199.09506489322916,334.7566231441498L203.82617877708336,334.7580587911606L208.58806827213542,334.7403565335274L213.39230315703125,334.75261901378633L218.1928357127604,334.73834725856784L223.03177993359378,334.7222577381134L227.84388226796875,334.72491544246674L232.63654737421876,334.71237223148347L237.46785554114587,334.689493803978L242.33988932890628,334.6804833841324L247.17675098958333,334.6967517971993L251.99672077343754,334.72127630710605L256.84908593750004,334.6812998914719L261.6998313325521,334.64857200622555L266.55034533203127,334.6182409214974L271.3932232776042,334.63722021102905L276.23031633385415,334.6481074261665L281.09818500130206,334.6221855711937L285.9200059497396,334.57199019670486" style="fill: none;" fill="none"></path></g><g><path stroke="rgb(51, 187, 238)" stroke-width="2px" d="M166.6048125,329.4536891555786L171.19917160026043,332.5184719848633L175.79746442526042,333.0138900661468L180.4480526497396,333.4130837488174L185.12224322265627,333.8324922966957L189.76612097552083,334.2267022204399L194.40861035494794,334.3137098193169L199.09437070651043,334.39159479618075L203.8257159859375,334.45498721838L208.58714268984374,334.51305431842803L213.39230315703125,334.5677134466171L218.18913338359377,334.6149866080284L223.02692062656254,334.6610800695419L227.84272529010417,334.7121937894821L232.6358531875,334.7691420221329L237.47063228802082,334.8176561665535L242.3262369901042,334.8586297845841L247.17721378072918,334.88109905719756L251.99533240000002,334.8916149687767L256.84792895963545,334.9621058678627L261.6986743546875,335.01406358242036L266.5496511453125,335.0628954076767L271.39368606875,335.10709810495376L276.22915935598957,335.1555527687073L281.10119314375,335.21109329223634L285.9197745541667,335.25950514793396" style="fill: none;" fill="none"></path></g><g><path stroke="rgb(51, 187, 238)" stroke-width="2px" d="M179.71985078177084,-20.13930313110348L186.1903651872396,17.879499206542985L192.66504471302085,8.601899414062503L199.1647149606771,24.85406524658201L205.67780615156252,15.461974182128925L212.14855195260418,26.931663665771474L218.62300008281252,37.11899322509765L225.1053156625,29.880376281738275L231.76881397578126,35.000789337158224L238.7236393153646,53.663155059814464L245.52990869713545,55.041578063964856L252.38060602890627,83.25776458740236L259.18872657526043,99.38696044921875L265.9700052351563,84.72951095581057L272.8496270135417,120.18243988037109L279.7773790710938,131.06594558715818L286.48715649895837,142.2137905883789L292.97710813255213,146.1102285003662L299.4457713734375,157.42663810729982L305.9301695132812,155.03274673461914L312.43539325468754,165.96259689331055L318.92372511927084,164.5375410461426L325.3963220848958,169.03648567199707L331.90547955104165,169.494566116333L338.3933486244792,174.8536372375488L345.14778539791666,176.62933341979982L352.06003395208336,183.80802268981935L358.9299371164063,189.24831916809086L365.77438676770834,190.1362754058838L372.675528334375,193.42213165283204L379.539646609375,182.57112762451172L386.3729892731771,186.35752990722656L393.1716226010417,189.8887060546875L400.02995598671873,188.74083732604979L406.8459439825521,190.24997360229492L413.7197808716146,195.71215896606444L420.6956632083334,197.9647386932373L427.6407699338542,206.47668891906739L434.60138016276045,203.13704772949222L441.55042061302083,203.50849548339843L448.48210639531254,201.91142875671386L455.42906428541676,200.2041101074219L462.32997445651046,212.09033729553227L469.18067178828124,211.5624806213379L476.0679296205729,208.51523918151855L482.7274942091145,209.681363067627L489.2697412421875,211.8969277954102L495.8078231549479,203.66597145080567L502.59095297942713,206.08355415344238L509.5187050369792,207.21616699218754L516.4193838125,207.02428596496583L523.3068730403646,207.65235855102543L530.1341994192709,209.9058322906494L536.9462536903646,209.53253883361816L543.82587546875,205.6023014831543L550.7478426369793,208.95402626037594L557.6061760226562,209.8662794494629L564.4589559145834,209.89217697143553L571.3635684148437,209.54084449768067L578.3086751403646,210.7035076904297L585.2324934731771,213.63663276672364L592.1796827588541,221.62571548461918L599.2097116596354,199.0341217803955L606.191378885677,209.27623123168945L613.0323576033854,210.89114936828614L620.0566016148437,216.42328399658203L626.992221121875,216.33786254882813L633.8794789541666,219.22899787902833L640.3867852557293,221.74316997528078L646.8730345601564,213.6416651916504L653.3803408617188,212.97499145507814L659.9087041604166,215.71451957702635L666.4025895187499,216.45458885192875L672.938820266927,216.57666481018066L679.4752824106771,215.69723052978517L685.9573665947917,214.67527336120605L692.451251953125,213.96878723144528L699.0416292653646,212.47877128601073L705.7069787432291,212.6260093688965L712.5903028507813,213.3010608673096L719.5104188544271,209.48414680480957L726.4094778609375,212.98060066223144L733.3372299184896,213.07683677673342L740.2224051906251,212.85493423461918L747.0943909151043,214.52877067565922" style="fill: none;" fill="none"></path></g><g><path stroke="rgb(204, 51, 17)" stroke-width="2px" d="M179.72008217734376,-23.675987548828104L186.19013379166668,7.826559906005846L192.66504471302085,24.535652618408214L199.16494635625,29.87359909057619L205.67132707552085,39.55509063720703L212.14808916145836,41.95934967041018L218.62300008281252,49.645174713134764L225.09721681744793,57.19632110595701L231.76950816250002,63.68751480102538L238.72294512864585,70.09689193725586L245.5322226528646,67.42431381225586L252.38014323776042,87.05919204711914L259.18826378411455,108.48278732299805L265.96977383958335,9.24841461181639L272.8496270135417,101.97525627136228L279.77714767552084,126.7592280578613L286.4781320716146,136.69467681884765L292.97710813255213,145.97722251892088L299.4480853291667,154.66859527587889L305.9301695132812,162.61943733215332L312.4356246502604,159.92913757324217L318.9181716255208,163.01003425598145L325.39539650260417,166.66167137145996L331.8950667502604,170.64126686096193L338.3942742067709,173.88305694580077L345.14778539791666,176.02211151123046L352.0549432494792,179.69079254150392L358.9253092049479,190.38958374023437L365.77230420755205,190.70790985107422L372.6764539166667,191.90683822631834L379.5405721916667,191.3806830596924L386.3739148554688,188.28993782043457L393.17115980989587,186.60336891174316L400.0304187778646,189.66439544677735L406.8466381692709,190.77646041870113L413.7151529601562,195.90455909729008L420.6949690216146,197.6251293182373L427.6370676046875,199.92791793823238L434.59258713098956,202.4872304534912L441.53838804322925,203.70279899597168L448.47562731927087,204.09489555358888L455.4286014942709,201.7406867980957L462.31771049114593,205.8756674194336L469.18113457942707,210.99459526062012L476.05612844635414,209.92627922058105L482.7284197914062,210.4962265777588L489.27089822005206,211.43052726745606L495.80805455052086,207.48289993286133L502.5902587927083,206.6333573913574L509.50944921406244,207.31035552978514L516.4149872966145,207.776337890625L523.2953032617188,207.87936561584473L530.1348936059895,209.3795617675781L536.9460222947916,213.30850135803223L543.8136115033855,209.44675689697266L550.7362728583333,210.42098533630372L557.6068702093751,210.2006256866455L564.4587245190104,210.40143241882325L571.3640312059896,210.52216735839843L578.3026588554687,211.39335365295412L585.2334190554689,212.94857482910155L592.1806083411458,215.589415512085L599.2057779348958,208.05274635314942L606.1925358635417,207.4605784606934L613.0330517901042,210.42734436035153L620.0452632317708,214.50941963195802L626.9919897263021,216.39186378479008L633.878553371875,219.13374229431156L640.3865538601563,220.61530838012695L646.8688694398438,217.5373821258545L653.3808036528645,214.89028335571285L659.9098611382813,214.50666549682617L666.4023581231771,215.3744631958008L672.9392830580729,217.92014923095704L679.4750510151041,217.74969566345214L685.9566724080729,216.93334693908693L692.4514833486978,215.16501914978028L699.0418606609375,215.4507426452637L705.707672929948,214.55551895141602L712.591228433073,214.55374534606932L719.5101874588541,213.2612340545654L726.4013790158855,214.149594039917L733.3372299184896,215.4952269744873L740.2235621684896,215.93538391113282L747.0946223106771,216.8463249206543" style="fill: none;" fill="none"></path></g><g><path stroke="rgb(238, 51, 119)" stroke-width="2px" d="M166.6048125,305.94446376800533Z" style="fill: none;" fill="none"></path></g><g><path stroke="rgb(51, 187, 238)" stroke-width="2px" d="M166.6048125,305.09509065628055Z" style="fill: none;" fill="none"></path></g></g></g></g></g></g><g transform="translate(41, 378)" clip-path="url(#clip_1)"><clipPath id="clip_1"><rect width="1666" height="21"></rect></clipPath><g><g><line x1="0" y1="0" x2="0" y2="5" style="visibility: inherit;" fill="rgb(0, 0, 0)" stroke="rgb(204, 204, 204)" stroke-width="1px"></line><line x1="166.6048125" y1="0" x2="166.6048125" y2="5" style="visibility: inherit;" fill="rgb(0, 0, 0)" stroke="rgb(204, 204, 204)" stroke-width="1px"></line><line x1="333.209625" y1="0" x2="333.209625" y2="5" style="visibility: inherit;" fill="rgb(0, 0, 0)" stroke="rgb(204, 204, 204)" stroke-width="1px"></line><line x1="499.8144375000001" y1="0" x2="499.8144375000001" y2="5" style="visibility: inherit;" fill="rgb(0, 0, 0)" stroke="rgb(204, 204, 204)" stroke-width="1px"></line><line x1="666.41925" y1="0" x2="666.41925" y2="5" style="visibility: inherit;" fill="rgb(0, 0, 0)" stroke="rgb(204, 204, 204)" stroke-width="1px"></line><line x1="833.0240625" y1="0" x2="833.0240625" y2="5" style="visibility: inherit;" fill="rgb(0, 0, 0)" stroke="rgb(204, 204, 204)" stroke-width="1px"></line><line x1="999.628875" y1="0" x2="999.628875" y2="5" style="visibility: inherit;" fill="rgb(0, 0, 0)" stroke="rgb(204, 204, 204)" stroke-width="1px"></line><line x1="1166.2336874999999" y1="0" x2="1166.2336874999999" y2="5" style="visibility: inherit;" fill="rgb(0, 0, 0)" stroke="rgb(204, 204, 204)" stroke-width="1px"></line><line x1="1332.8384999999998" y1="0" x2="1332.8384999999998" y2="5" style="visibility: inherit;" fill="rgb(0, 0, 0)" stroke="rgb(204, 204, 204)" stroke-width="1px"></line><line x1="1499.4433125" y1="0" x2="1499.4433125" y2="5" style="visibility: inherit;" fill="rgb(0, 0, 0)" stroke="rgb(204, 204, 204)" stroke-width="1px"></line><line x1="1666.048125" y1="0" x2="1666.048125" y2="5" style="visibility: inherit;" fill="rgb(0, 0, 0)" stroke="rgb(204, 204, 204)" stroke-width="1px"></line></g><g transform="translate(0, 8)"><text x="0" y="0" dx="0em" dy="0.95em" style="text-anchor: middle; visibility: hidden; font-family: Roboto, sans-serif; font-size: 12px; font-weight: 200;" fill="rgb(50, 49, 63)" stroke="none" stroke-width="1px">-0.2</text><text x="166.6048125" y="0" dx="0em" dy="0.95em" style="text-anchor: middle; visibility: inherit; font-family: Roboto, sans-serif; font-size: 12px; font-weight: 200;" fill="rgb(50, 49, 63)" stroke="none" stroke-width="1px">0</text><text x="333.209625" y="0" dx="0em" dy="0.95em" style="text-anchor: middle; visibility: inherit; font-family: Roboto, sans-serif; font-size: 12px; font-weight: 200;" fill="rgb(50, 49, 63)" stroke="none" stroke-width="1px">0.2</text><text x="499.8144375000001" y="0" dx="0em" dy="0.95em" style="text-anchor: middle; visibility: inherit; font-family: Roboto, sans-serif; font-size: 12px; font-weight: 200;" fill="rgb(50, 49, 63)" stroke="none" stroke-width="1px">0.4</text><text x="666.41925" y="0" dx="0em" dy="0.95em" style="text-anchor: middle; visibility: inherit; font-family: Roboto, sans-serif; font-size: 12px; font-weight: 200;" fill="rgb(50, 49, 63)" stroke="none" stroke-width="1px">0.6</text><text x="833.0240625" y="0" dx="0em" dy="0.95em" style="text-anchor: middle; visibility: inherit; font-family: Roboto, sans-serif; font-size: 12px; font-weight: 200;" fill="rgb(50, 49, 63)" stroke="none" stroke-width="1px">0.8</text><text x="999.628875" y="0" dx="0em" dy="0.95em" style="text-anchor: middle; visibility: inherit; font-family: Roboto, sans-serif; font-size: 12px; font-weight: 200;" fill="rgb(50, 49, 63)" stroke="none" stroke-width="1px">1</text><text x="1166.2336874999999" y="0" dx="0em" dy="0.95em" style="text-anchor: middle; visibility: inherit; font-family: Roboto, sans-serif; font-size: 12px; font-weight: 200;" fill="rgb(50, 49, 63)" stroke="none" stroke-width="1px">1.2</text><text x="1332.8384999999998" y="0" dx="0em" dy="0.95em" style="text-anchor: middle; visibility: inherit; font-family: Roboto, sans-serif; font-size: 12px; font-weight: 200;" fill="rgb(50, 49, 63)" stroke="none" stroke-width="1px">1.4</text><text x="1499.4433125" y="0" dx="0em" dy="0.95em" style="text-anchor: middle; visibility: inherit; font-family: Roboto, sans-serif; font-size: 12px; font-weight: 200;" fill="rgb(50, 49, 63)" stroke="none" stroke-width="1px">1.6</text><text x="1666.048125" y="0" dx="0em" dy="0.95em" style="text-anchor: middle; visibility: hidden; font-family: Roboto, sans-serif; font-size: 12px; font-weight: 200;" fill="rgb(50, 49, 63)" stroke="none" stroke-width="1px">1.8</text></g><line x1="0" y1="0" x2="1666.048125" y2="0" fill="rgb(0, 0, 0)" stroke="rgb(204, 204, 204)" stroke-width="1px"></line></g></g></g></g></svg>